error_02_fix_pit_pit_or_syu.ufo
<glyph name="ety001_cid01358_H" format="1">
  <advance width="1000"/>
  <outline>
    <contour>
      <point x="901" y="732" type="curve"/>
      <point x="796" y="856" type="line"/>
      <point x="632" y="803"/>
      <point x="377" y="773"/>
      <point x="139" y="763" type="curve"/>
      <point x="155" y="729"/>
      <point x="174" y="669"/>
      <point x="178" y="631" type="curve"/>
      <point x="419" y="639"/>
      <point x="693" y="667"/>
    </contour>
    <contour>
      <point x="291" y="483" type="curve"/>
      <point x="291" y="762" type="line"/>
      <point x="140" y="762" type="line"/>
      <point x="140" y="484" type="line"/>
      <point x="140" y="332"/>
      <point x="128" y="155"/>
      <point x="26" y="20" type="curve"/>
      <point x="62" y="-3"/>
      <point x="118" y="-58"/>
      <point x="144" y="-93" type="curve"/>
      <point x="276" y="73"/>
      <point x="291" y="294"/>
    </contour>
  </outline>
</glyph>
<glyph name="ety002_cid01370_EL" format="1">
  <advance width="1000"/>
  <outline>
    <contour>
      <point x="820" y="789" type="curve"/>
      <point x="793" y="814" type="line"/>
      <point x="663" y="791"/>
      <point x="421" y="770"/>
      <point x="220" y="760" type="curve"/>
      <point x="224" y="752"/>
      <point x="228" y="741"/>
      <point x="229" y="734" type="curve"/>
      <point x="433" y="743"/>
      <point x="671" y="764"/>
    </contour>
    <contour>
      <point x="250" y="663" type="curve"/>
      <point x="250" y="760" type="line"/>
      <point x="221" y="760" type="line"/>
      <point x="221" y="664" type="line"/>
      <point x="221" y="579"/>
      <point x="189" y="477"/>
      <point x="45" y="403" type="curve"/>
      <point x="52" y="398"/>
      <point x="61" y="388"/>
      <point x="65" y="381" type="curve"/>
      <point x="215" y="459"/>
      <point x="250" y="571"/>
    </contour>
  </outline>
</glyph>
<glyph name="ety003_cid01370_H" format="1">
  <advance width="1000"/>
  <outline>
    <contour>
      <point x="868" y="745" type="curve"/>
      <point x="780" y="853" type="line"/>
      <point x="627" y="827"/>
      <point x="395" y="804"/>
      <point x="187" y="792" type="curve"/>
      <point x="199" y="765"/>
      <point x="215" y="716"/>
      <point x="219" y="685" type="curve"/>
      <point x="430" y="694"/>
      <point x="676" y="714"/>
    </contour>
    <contour>
      <point x="329" y="712" type="curve"/>
      <point x="329" y="791" type="line"/>
      <point x="187" y="791" type="line"/>
      <point x="187" y="716" type="line"/>
      <point x="187" y="638"/>
      <point x="170" y="545"/>
      <point x="15" y="477" type="curve"/>
      <point x="45" y="457"/>
      <point x="101" y="403"/>
      <point x="121" y="375" type="curve"/>
      <point x="290" y="456"/>
      <point x="329" y="595"/>
    </contour>
  </outline>
</glyph>
<glyph name="ety004_cid02086_H" format="1">
  <advance width="1000"/>
  <outline>
    <contour>
      <point x="491" y="618" type="curve"/>
      <point x="404" y="712" type="line"/>
      <point x="352" y="683"/>
      <point x="270" y="651"/>
      <point x="197" y="630" type="curve"/>
      <point x="210" y="605"/>
      <point x="227" y="564"/>
      <point x="232" y="539" type="curve"/>
      <point x="314" y="557"/>
      <point x="412" y="584"/>
    </contour>
    <contour>
      <point x="206" y="99" type="curve"/>
      <point x="206" y="137"/>
      <point x="307" y="189"/>
      <point x="307" y="189" type="curve"/>
      <point x="307" y="597" type="line"/>
      <point x="195" y="629" type="line"/>
      <point x="195" y="270" type="line"/>
      <point x="195" y="230"/>
      <point x="180" y="210"/>
      <point x="162" y="200" type="curve"/>
      <point x="179" y="177"/>
      <point x="200" y="127"/>
    </contour>
  </outline>
</glyph>
<glyph name="ety005_cid02862_EL" format="1">
  <advance width="1000"/>
  <outline>
    <contour>
      <point x="898" y="792" type="curve"/>
      <point x="873" y="817" type="line"/>
      <point x="774" y="791"/>
      <point x="584" y="768"/>
      <point x="431" y="755" type="curve"/>
      <point x="435" y="747"/>
      <point x="439" y="736"/>
      <point x="441" y="729" type="curve"/>
      <point x="597" y="741"/>
      <point x="785" y="764"/>
    </contour>
    <contour>
      <point x="461" y="365" type="curve"/>
      <point x="461" y="754" type="line"/>
      <point x="431" y="754" type="line"/>
      <point x="431" y="364" type="line"/>
      <point x="431" y="214"/>
      <point x="418" y="64"/>
      <point x="313" y="-52" type="curve"/>
      <point x="322" y="-56"/>
      <point x="332" y="-64"/>
      <point x="337" y="-69" type="curve"/>
      <point x="445" y="51"/>
      <point x="461" y="203"/>
    </contour>
  </outline>
</glyph>
<glyph name="ety006_cid02902_EL" format="1">
  <advance width="1000"/>
  <outline>
    <contour>
      <point x="927" y="806" type="curve"/>
      <point x="903" y="830" type="line"/>
      <point x="803" y="806"/>
      <point x="607" y="788"/>
      <point x="451" y="779" type="curve"/>
      <point x="455" y="771"/>
      <point x="459" y="761"/>
      <point x="461" y="754" type="curve"/>
      <point x="619" y="761"/>
      <point x="814" y="779"/>
    </contour>
    <contour>
      <point x="438" y="360" type="curve"/>
      <point x="438" y="374"/>
      <point x="480" y="399"/>
      <point x="480" y="399" type="curve"/>
      <point x="480" y="775" type="line"/>
      <point x="451" y="780" type="line"/>
      <point x="451" y="445" type="line"/>
      <point x="451" y="408"/>
      <point x="432" y="395"/>
      <point x="422" y="390" type="curve"/>
      <point x="427" y="382"/>
      <point x="435" y="368"/>
    </contour>
  </outline>
</glyph>
<glyph name="ety008_cid02970_H" format="1">
  <advance width="1000"/>
  <outline>
    <contour>
      <point x="744" y="736" type="curve"/>
      <point x="668" y="829" type="line"/>
      <point x="633" y="805"/>
      <point x="574" y="774"/>
      <point x="532" y="759" type="curve"/>
      <point x="591" y="678" type="line"/>
      <point x="634" y="689"/>
      <point x="692" y="709"/>
    </contour>
    <contour>
      <point x="625" y="759" type="line"/>
      <point x="533" y="759" type="line"/>
      <point x="533" y="381" type="line"/>
      <point x="533" y="340"/>
      <point x="517" y="315"/>
      <point x="502" y="302" type="curve"/>
      <point x="517" y="269"/>
      <point x="535" y="196"/>
      <point x="540" y="164" type="curve"/>
      <point x="625" y="271" type="line"/>
    </contour>
  </outline>
</glyph>
<glyph name="ety009_cid03664_H" format="1">
  <advance width="1000"/>
  <outline>
    <contour>
      <point x="952" y="743" type="curve"/>
      <point x="861" y="853" type="line"/>
      <point x="745" y="822"/>
      <point x="568" y="795"/>
      <point x="408" y="780" type="curve"/>
      <point x="422" y="751"/>
      <point x="440" y="701"/>
      <point x="444" y="670" type="curve"/>
      <point x="609" y="682"/>
      <point x="802" y="706"/>
    </contour>
    <contour>
      <point x="532" y="450" type="curve"/>
      <point x="532" y="779" type="line"/>
      <point x="408" y="779" type="line"/>
      <point x="408" y="451" type="line"/>
      <point x="408" y="310"/>
      <point x="401" y="95"/>
      <point x="341" y="-37" type="curve"/>
      <point x="371" y="-52"/>
      <point x="421" y="-87"/>
      <point x="444" y="-109" type="curve"/>
      <point x="522" y="41"/>
      <point x="532" y="281"/>
    </contour>
  </outline>
</glyph>
<glyph name="ety012_cid03904_EL" format="1">
  <advance width="1000"/>
  <outline>
    <contour>
      <point x="450" y="791" type="curve"/>
      <point x="427" y="816" type="line"/>
      <point x="362" y="792"/>
      <point x="238" y="768"/>
      <point x="140" y="754" type="curve"/>
      <point x="144" y="746"/>
      <point x="149" y="736"/>
      <point x="151" y="728" type="curve"/>
      <point x="251" y="741"/>
      <point x="375" y="765"/>
    </contour>
    <contour>
      <point x="129" y="416" type="curve"/>
      <point x="129" y="430"/>
      <point x="171" y="453"/>
      <point x="171" y="453" type="curve"/>
      <point x="171" y="754" type="line"/>
      <point x="139" y="754" type="line"/>
      <point x="139" y="500" type="line"/>
      <point x="139" y="464"/>
      <point x="123" y="453"/>
      <point x="112" y="448" type="curve"/>
      <point x="118" y="439"/>
      <point x="126" y="425"/>
    </contour>
  </outline>
</glyph>
<glyph name="ety013_cid03904_H" format="1">
  <advance width="1000"/>
  <outline>
    <contour>
      <point x="481" y="738" type="curve"/>
      <point x="396" y="848" type="line"/>
      <point x="317" y="821"/>
      <point x="199" y="798"/>
      <point x="93" y="785" type="curve"/>
      <point x="107" y="755"/>
      <point x="125" y="708"/>
      <point x="129" y="678" type="curve"/>
      <point x="242" y="688"/>
      <point x="375" y="707"/>
    </contour>
    <contour>
      <point x="101" y="395" type="curve"/>
      <point x="101" y="434"/>
      <point x="224" y="503"/>
      <point x="224" y="503" type="curve"/>
      <point x="224" y="784" type="line"/>
      <point x="93" y="784" type="line"/>
      <point x="93" y="568" type="line"/>
      <point x="93" y="525"/>
      <point x="68" y="499"/>
      <point x="47" y="486" type="curve"/>
      <point x="66" y="467"/>
      <point x="93" y="421"/>
    </contour>
  </outline>
</glyph>
<glyph name="ety015_cid04085_H" format="1">
  <advance width="1000"/>
  <outline>
    <contour>
      <point x="944" y="728" type="curve"/>
      <point x="856" y="854" type="line"/>
      <point x="733" y="826"/>
      <point x="556" y="808"/>
      <point x="394" y="799" type="curve"/>
      <point x="409" y="766"/>
      <point x="427" y="711"/>
      <point x="431" y="675" type="curve"/>
      <point x="597" y="679"/>
      <point x="790" y="695"/>
    </contour>
    <contour>
      <point x="521" y="493" type="curve"/>
      <point x="521" y="800" type="line"/>
      <point x="395" y="800" type="line"/>
      <point x="395" y="493" type="line"/>
      <point x="395" y="342"/>
      <point x="382" y="118"/>
      <point x="262" y="-18" type="curve"/>
      <point x="293" y="-35"/>
      <point x="343" y="-73"/>
      <point x="366" y="-96" type="curve"/>
      <point x="502" y="59"/>
      <point x="521" y="311"/>
    </contour>
  </outline>
</glyph>
<glyph name="ety016_cid04159_EL" format="1">
  <advance width="1000"/>
  <outline>
    <contour>
      <point x="513" y="768" type="curve"/>
      <point x="485" y="789" type="line"/>
      <point x="458" y="764"/>
      <point x="407" y="732"/>
      <point x="365" y="709" type="curve"/>
      <point x="369" y="702"/>
      <point x="375" y="692"/>
      <point x="377" y="686" type="curve"/>
      <point x="422" y="709"/>
      <point x="474" y="739"/>
    </contour>
    <contour>
      <point x="393" y="709" type="line"/>
      <point x="364" y="709" type="line"/>
      <point x="364" y="368" type="line"/>
      <point x="364" y="327"/>
      <point x="342" y="307"/>
      <point x="330" y="299" type="curve"/>
      <point x="337" y="292"/>
      <point x="345" y="280"/>
      <point x="350" y="272" type="curve"/>
      <point x="393" y="322" type="line"/>
    </contour>
  </outline>
</glyph>
<glyph name="ety017_cid04159_H" format="1">
  <advance width="1000"/>
  <outline>
    <contour>
      <point x="542" y="751" type="curve"/>
      <point x="455" y="840" type="line"/>
      <point x="421" y="811"/>
      <point x="367" y="776"/>
      <point x="319" y="752" type="curve"/>
      <point x="332" y="729"/>
      <point x="348" y="691"/>
      <point x="354" y="667" type="curve"/>
      <point x="411" y="688"/>
      <point x="481" y="718"/>
    </contour>
    <contour>
      <point x="431" y="752" type="line"/>
      <point x="318" y="752" type="line"/>
      <point x="318" y="476" type="line"/>
      <point x="318" y="432"/>
      <point x="303" y="400"/>
      <point x="286" y="384" type="curve"/>
      <point x="304" y="358"/>
      <point x="333" y="292"/>
      <point x="342" y="261" type="curve"/>
      <point x="431" y="377" type="line"/>
    </contour>
  </outline>
</glyph>
<glyph name="ety018_cid04255_H" format="1">
  <advance width="1000"/>
  <outline>
    <contour>
      <point x="518" y="741" type="curve"/>
      <point x="430" y="853" type="line"/>
      <point x="341" y="816"/>
      <point x="204" y="783"/>
      <point x="79" y="764" type="curve"/>
      <point x="93" y="734"/>
      <point x="109" y="683"/>
      <point x="114" y="651" type="curve"/>
      <point x="246" y="667"/>
      <point x="398" y="696"/>
    </contour>
    <contour>
      <point x="80" y="-83" type="curve"/>
      <point x="80" y="-35"/>
      <point x="204" y="27"/>
      <point x="204" y="27" type="curve"/>
      <point x="204" y="721" type="line"/>
      <point x="79" y="762" type="line"/>
      <point x="79" y="114" type="line"/>
      <point x="79" y="71"/>
      <point x="56" y="48"/>
      <point x="35" y="36" type="curve"/>
      <point x="53" y="10"/>
      <point x="74" y="-49"/>
    </contour>
  </outline>
</glyph>
<glyph name="ety019_cid04344_H" format="1">
  <advance width="1000"/>
  <outline>
    <contour>
      <point x="951" y="750" type="curve"/>
      <point x="846" y="859" type="line"/>
      <point x="743" y="816"/>
      <point x="582" y="776"/>
      <point x="433" y="752" type="curve"/>
      <point x="448" y="723"/>
      <point x="467" y="672"/>
      <point x="473" y="640" type="curve"/>
      <point x="630" y="662"/>
      <point x="810" y="698"/>
    </contour>
    <contour>
      <point x="433" y="-79" type="curve"/>
      <point x="433" y="-34"/>
      <point x="564" y="25"/>
      <point x="564" y="25" type="curve"/>
      <point x="564" y="712" type="line"/>
      <point x="433" y="751" type="line"/>
      <point x="433" y="109" type="line"/>
      <point x="433" y="67"/>
      <point x="408" y="45"/>
      <point x="386" y="34" type="curve"/>
      <point x="404" y="8"/>
      <point x="426" y="-47"/>
    </contour>
  </outline>
</glyph>
<glyph name="ety021_cid04592_EL" format="1">
  <advance width="1000"/>
  <outline>
    <contour>
      <point x="868" y="474" type="curve"/>
      <point x="848" y="499" type="line"/>
      <point x="702" y="466"/>
      <point x="393" y="451"/>
      <point x="165" y="448" type="curve"/>
      <point x="169" y="441"/>
      <point x="172" y="429"/>
      <point x="173" y="422" type="curve"/>
      <point x="404" y="423"/>
      <point x="710" y="438"/>
    </contour>
    <contour>
      <point x="194" y="330" type="curve"/>
      <point x="194" y="449" type="line"/>
      <point x="165" y="449" type="line"/>
      <point x="165" y="330" type="line"/>
      <point x="165" y="211"/>
      <point x="155" y="66"/>
      <point x="48" y="-52" type="curve"/>
      <point x="56" y="-56"/>
      <point x="67" y="-65"/>
      <point x="72" y="-71" type="curve"/>
      <point x="182" y="52"/>
      <point x="194" y="201"/>
    </contour>
  </outline>
</glyph>
<glyph name="ety022_cid04841_H" format="1">
  <advance width="1000"/>
  <outline>
    <contour>
      <point x="500" y="741" type="curve"/>
      <point x="415" y="853" type="line"/>
      <point x="329" y="816"/>
      <point x="198" y="783"/>
      <point x="77" y="764" type="curve"/>
      <point x="90" y="734"/>
      <point x="106" y="683"/>
      <point x="110" y="651" type="curve"/>
      <point x="237" y="667"/>
      <point x="384" y="696"/>
    </contour>
    <contour>
      <point x="78" y="-83" type="curve"/>
      <point x="78" y="-35"/>
      <point x="197" y="27"/>
      <point x="197" y="27" type="curve"/>
      <point x="197" y="721" type="line"/>
      <point x="77" y="762" type="line"/>
      <point x="77" y="114" type="line"/>
      <point x="77" y="71"/>
      <point x="55" y="48"/>
      <point x="35" y="36" type="curve"/>
      <point x="52" y="10"/>
      <point x="72" y="-49"/>
    </contour>
  </outline>
</glyph>
<glyph name="ety023_cid05001_EL" format="1">
  <advance width="1000"/>
  <outline>
    <contour>
      <point x="941" y="787" type="curve"/>
      <point x="912" y="811" type="line"/>
      <point x="824" y="785"/>
      <point x="656" y="762"/>
      <point x="519" y="748" type="curve"/>
      <point x="524" y="740"/>
      <point x="528" y="729"/>
      <point x="530" y="722" type="curve"/>
      <point x="670" y="735"/>
      <point x="838" y="759"/>
    </contour>
    <contour>
      <point x="549" y="426" type="curve"/>
      <point x="549" y="747" type="line"/>
      <point x="519" y="747" type="line"/>
      <point x="519" y="426" type="line"/>
      <point x="519" y="273"/>
      <point x="508" y="100"/>
      <point x="424" y="-40" type="curve"/>
      <point x="432" y="-44"/>
      <point x="443" y="-50"/>
      <point x="450" y="-56" type="curve"/>
      <point x="536" y="89"/>
      <point x="549" y="263"/>
    </contour>
  </outline>
</glyph>
<glyph name="ety024_cid05001_H" format="1">
  <advance width="1000"/>
  <outline>
    <contour>
      <point x="969" y="751" type="curve"/>
      <point x="877" y="851" type="line"/>
      <point x="775" y="824"/>
      <point x="620" y="798"/>
      <point x="483" y="783" type="curve"/>
      <point x="498" y="757"/>
      <point x="517" y="714"/>
      <point x="522" y="687" type="curve"/>
      <point x="666" y="698"/>
      <point x="837" y="720"/>
    </contour>
    <contour>
      <point x="601" y="453" type="curve"/>
      <point x="601" y="781" type="line"/>
      <point x="483" y="781" type="line"/>
      <point x="483" y="454" type="line"/>
      <point x="483" y="311"/>
      <point x="475" y="107"/>
      <point x="410" y="-28" type="curve"/>
      <point x="440" y="-39"/>
      <point x="487" y="-66"/>
      <point x="509" y="-84" type="curve"/>
      <point x="590" y="66"/>
      <point x="601" y="287"/>
    </contour>
  </outline>
</glyph>
<glyph name="ety025_cid05002_H" format="1">
  <advance width="1000"/>
  <outline>
    <contour>
      <point x="978" y="744" type="curve"/>
      <point x="881" y="851" type="line"/>
      <point x="778" y="821"/>
      <point x="620" y="795"/>
      <point x="477" y="780" type="curve"/>
      <point x="491" y="751"/>
      <point x="509" y="702"/>
      <point x="514" y="671" type="curve"/>
      <point x="664" y="683"/>
      <point x="840" y="707"/>
    </contour>
    <contour>
      <point x="602" y="444" type="curve"/>
      <point x="602" y="779" type="line"/>
      <point x="475" y="779" type="line"/>
      <point x="475" y="445" type="line"/>
      <point x="475" y="311"/>
      <point x="468" y="104"/>
      <point x="406" y="-22" type="curve"/>
      <point x="437" y="-37"/>
      <point x="489" y="-70"/>
      <point x="514" y="-91" type="curve"/>
      <point x="591" y="53"/>
      <point x="602" y="283"/>
    </contour>
  </outline>
</glyph>
<glyph name="ety026_cid05215_EL" format="1">
  <advance width="1000"/>
  <outline>
    <contour>
      <point x="923" y="618" type="curve"/>
      <point x="896" y="639" type="line"/>
      <point x="857" y="619"/>
      <point x="782" y="596"/>
      <point x="721" y="582" type="curve"/>
      <point x="724" y="574"/>
      <point x="729" y="566"/>
      <point x="731" y="559" type="curve"/>
      <point x="796" y="572"/>
      <point x="872" y="593"/>
    </contour>
    <contour>
      <point x="749" y="582" type="line"/>
      <point x="720" y="582" type="line"/>
      <point x="720" y="439" type="line"/>
      <point x="720" y="401"/>
      <point x="709" y="387"/>
      <point x="701" y="382" type="curve"/>
      <point x="707" y="375"/>
      <point x="715" y="361"/>
      <point x="719" y="352" type="curve"/>
      <point x="749" y="393" type="line"/>
    </contour>
  </outline>
</glyph>
<glyph name="ety027_cid05215_H" format="1">
  <advance width="1000"/>
  <outline>
    <contour>
      <point x="974" y="573" type="curve"/>
      <point x="896" y="639" type="line"/>
      <point x="862" y="615"/>
      <point x="803" y="589"/>
      <point x="750" y="572" type="curve"/>
      <point x="761" y="553"/>
      <point x="775" y="521"/>
      <point x="780" y="502" type="curve"/>
      <point x="842" y="517"/>
      <point x="916" y="541"/>
    </contour>
    <contour>
      <point x="829" y="570" type="line"/>
      <point x="750" y="570" type="line"/>
      <point x="750" y="484" type="line"/>
      <point x="750" y="444"/>
      <point x="736" y="425"/>
      <point x="722" y="416" type="curve"/>
      <point x="735" y="397"/>
      <point x="753" y="356"/>
      <point x="759" y="335" type="curve"/>
      <point x="829" y="408" type="line"/>
    </contour>
  </outline>
</glyph>
<glyph name="ety028_cid05270_EL" format="1">
  <advance width="1000"/>
  <outline>
    <contour>
      <point x="903" y="791" type="curve"/>
      <point x="879" y="816" type="line"/>
      <point x="784" y="789"/>
      <point x="600" y="767"/>
      <point x="452" y="753" type="curve"/>
      <point x="456" y="746"/>
      <point x="460" y="735"/>
      <point x="461" y="727" type="curve"/>
      <point x="612" y="739"/>
      <point x="794" y="763"/>
    </contour>
    <contour>
      <point x="477" y="365" type="curve"/>
      <point x="477" y="754" type="line"/>
      <point x="450" y="754" type="line"/>
      <point x="450" y="364" type="line"/>
      <point x="450" y="214"/>
      <point x="437" y="64"/>
      <point x="339" y="-52" type="curve"/>
      <point x="347" y="-56"/>
      <point x="357" y="-64"/>
      <point x="363" y="-69" type="curve"/>
      <point x="463" y="51"/>
      <point x="477" y="203"/>
    </contour>
  </outline>
</glyph>
<glyph name="ety029_cid05270_H" format="1">
  <advance width="1000"/>
  <outline>
    <contour>
      <point x="945" y="728" type="curve"/>
      <point x="862" y="854" type="line"/>
      <point x="746" y="826"/>
      <point x="579" y="808"/>
      <point x="425" y="799" type="curve"/>
      <point x="439" y="766"/>
      <point x="456" y="711"/>
      <point x="460" y="675" type="curve"/>
      <point x="617" y="679"/>
      <point x="799" y="695"/>
    </contour>
    <contour>
      <point x="545" y="493" type="curve"/>
      <point x="545" y="800" type="line"/>
      <point x="426" y="800" type="line"/>
      <point x="426" y="493" type="line"/>
      <point x="426" y="342"/>
      <point x="414" y="118"/>
      <point x="300" y="-18" type="curve"/>
      <point x="329" y="-35"/>
      <point x="377" y="-73"/>
      <point x="398" y="-96" type="curve"/>
      <point x="527" y="59"/>
      <point x="545" y="311"/>
    </contour>
  </outline>
</glyph>
<glyph name="ety031_cid05421_EL" format="1">
  <advance width="1000"/>
  <outline>
    <contour>
      <point x="899" y="791" type="curve"/>
      <point x="874" y="816" type="line"/>
      <point x="773" y="789"/>
      <point x="578" y="767"/>
      <point x="422" y="753" type="curve"/>
      <point x="426" y="746"/>
      <point x="430" y="735"/>
      <point x="431" y="727" type="curve"/>
      <point x="590" y="739"/>
      <point x="784" y="763"/>
    </contour>
    <contour>
      <point x="449" y="365" type="curve"/>
      <point x="449" y="754" type="line"/>
      <point x="421" y="754" type="line"/>
      <point x="421" y="364" type="line"/>
      <point x="421" y="214"/>
      <point x="407" y="64"/>
      <point x="304" y="-52" type="curve"/>
      <point x="312" y="-56"/>
      <point x="323" y="-64"/>
      <point x="329" y="-69" type="curve"/>
      <point x="434" y="51"/>
      <point x="449" y="203"/>
    </contour>
  </outline>
</glyph>
<glyph name="ety033_cid05508_EL" format="1">
  <advance width="1000"/>
  <outline>
    <contour>
      <point x="917" y="794" type="curve"/>
      <point x="890" y="816" type="line"/>
      <point x="817" y="779"/>
      <point x="665" y="749"/>
      <point x="541" y="730" type="curve"/>
      <point x="546" y="723"/>
      <point x="550" y="714"/>
      <point x="552" y="707" type="curve"/>
      <point x="678" y="724"/>
      <point x="831" y="754"/>
    </contour>
    <contour>
      <point x="570" y="419" type="curve"/>
      <point x="570" y="730" type="line"/>
      <point x="540" y="730" type="line"/>
      <point x="540" y="419" type="line"/>
      <point x="540" y="263"/>
      <point x="529" y="86"/>
      <point x="442" y="-56" type="curve"/>
      <point x="451" y="-61"/>
      <point x="462" y="-67"/>
      <point x="468" y="-73" type="curve"/>
      <point x="557" y="74"/>
      <point x="570" y="253"/>
    </contour>
  </outline>
</glyph>
<glyph name="ety034_cid05508_H" format="1">
  <advance width="1000"/>
  <outline>
    <contour>
      <point x="979" y="746" type="curve"/>
      <point x="876" y="852" type="line"/>
      <point x="787" y="819"/>
      <point x="649" y="790"/>
      <point x="522" y="773" type="curve"/>
      <point x="537" y="745"/>
      <point x="555" y="695"/>
      <point x="561" y="665" type="curve"/>
      <point x="696" y="679"/>
      <point x="855" y="705"/>
    </contour>
    <contour>
      <point x="635" y="517" type="curve"/>
      <point x="635" y="773" type="line"/>
      <point x="520" y="773" type="line"/>
      <point x="520" y="518" type="line"/>
      <point x="520" y="362"/>
      <point x="513" y="137"/>
      <point x="423" y="-8" type="curve"/>
      <point x="450" y="-27"/>
      <point x="490" y="-72"/>
      <point x="509" y="-99" type="curve"/>
      <point x="623" y="68"/>
      <point x="635" y="331"/>
    </contour>
  </outline>
</glyph>
<glyph name="ety035_cid05512_H" format="1">
  <advance width="1000"/>
  <outline>
    <contour>
      <point x="958" y="738" type="curve"/>
      <point x="870" y="854" type="line"/>
      <point x="787" y="806"/>
      <point x="660" y="777"/>
      <point x="536" y="764" type="curve"/>
      <point x="554" y="731"/>
      <point x="572" y="681"/>
      <point x="577" y="648" type="curve"/>
      <point x="704" y="658"/>
      <point x="850" y="683"/>
    </contour>
    <contour>
      <point x="645" y="499" type="curve"/>
      <point x="645" y="765" type="line"/>
      <point x="537" y="765" type="line"/>
      <point x="537" y="499" type="line"/>
      <point x="537" y="349"/>
      <point x="532" y="131"/>
      <point x="466" y="-16" type="curve"/>
      <point x="493" y="-29"/>
      <point x="541" y="-68"/>
      <point x="561" y="-91" type="curve"/>
      <point x="633" y="70"/>
      <point x="645" y="330"/>
    </contour>
  </outline>
</glyph>
<glyph name="ety036_cid05788_H" format="1">
  <advance width="1000"/>
  <outline>
    <contour>
      <point x="461" y="285" type="curve"/>
      <point x="367" y="390" type="line"/>
      <point x="298" y="366"/>
      <point x="199" y="340"/>
      <point x="109" y="323" type="curve"/>
      <point x="124" y="296"/>
      <point x="143" y="252"/>
      <point x="149" y="224" type="curve"/>
      <point x="246" y="237"/>
      <point x="362" y="257"/>
    </contour>
    <contour>
      <point x="250" y="321" type="line"/>
      <point x="109" y="321" type="line"/>
      <point x="109" y="128" type="line"/>
      <point x="109" y="93"/>
      <point x="72" y="68"/>
      <point x="44" y="57" type="curve"/>
      <point x="68" y="29"/>
      <point x="97" y="-29"/>
      <point x="107" y="-57" type="curve"/>
      <point x="250" y="39" type="line"/>
    </contour>
  </outline>
</glyph>
<glyph name="ety037_cid05819_H" format="1">
  <advance width="1000"/>
  <outline>
    <contour>
      <point x="928" y="772" type="curve"/>
      <point x="823" y="858" type="line"/>
      <point x="744" y="829"/>
      <point x="608" y="804"/>
      <point x="486" y="789" type="curve"/>
      <point x="500" y="765"/>
      <point x="516" y="722"/>
      <point x="521" y="696" type="curve"/>
      <point x="654" y="709"/>
      <point x="810" y="733"/>
    </contour>
    <contour>
      <point x="613" y="656" type="curve"/>
      <point x="613" y="788" type="line"/>
      <point x="487" y="788" type="line"/>
      <point x="487" y="659" type="line"/>
      <point x="487" y="594"/>
      <point x="472" y="528"/>
      <point x="370" y="484" type="curve"/>
      <point x="402" y="463"/>
      <point x="451" y="419"/>
      <point x="473" y="391" type="curve"/>
      <point x="595" y="453"/>
      <point x="613" y="555"/>
    </contour>
  </outline>
</glyph>
<glyph name="ety038_cid05827_H" format="1">
  <advance width="1000"/>
  <outline>
    <contour>
      <point x="920" y="341" type="curve"/>
      <point x="815" y="427" type="line"/>
      <point x="736" y="398"/>
      <point x="600" y="373"/>
      <point x="478" y="358" type="curve"/>
      <point x="492" y="334"/>
      <point x="508" y="291"/>
      <point x="513" y="265" type="curve"/>
      <point x="646" y="278"/>
      <point x="802" y="302"/>
    </contour>
    <contour>
      <point x="605" y="203" type="curve"/>
      <point x="605" y="357" type="line"/>
      <point x="479" y="357" type="line"/>
      <point x="479" y="206" type="line"/>
      <point x="479" y="131"/>
      <point x="465" y="54"/>
      <point x="365" y="0" type="curve"/>
      <point x="396" y="-20"/>
      <point x="446" y="-64"/>
      <point x="468" y="-92" type="curve"/>
      <point x="588" y="-19"/>
      <point x="605" y="94"/>
    </contour>
  </outline>
</glyph>
<glyph name="ety040_cid06048_H" format="1">
  <advance width="1000"/>
  <outline>
    <contour>
      <point x="960" y="756" type="curve"/>
      <point x="875" y="857" type="line"/>
      <point x="762" y="827"/>
      <point x="580" y="807"/>
      <point x="419" y="799" type="curve"/>
      <point x="432" y="772"/>
      <point x="447" y="725"/>
      <point x="451" y="696" type="curve"/>
      <point x="618" y="701"/>
      <point x="815" y="719"/>
    </contour>
    <contour>
      <point x="418" y="331" type="curve"/>
      <point x="418" y="371"/>
      <point x="547" y="429"/>
      <point x="547" y="429" type="curve"/>
      <point x="547" y="773" type="line"/>
      <point x="418" y="799" type="line"/>
      <point x="418" y="503" type="line"/>
      <point x="418" y="461"/>
      <point x="395" y="442"/>
      <point x="374" y="432" type="curve"/>
      <point x="391" y="410"/>
      <point x="412" y="360"/>
    </contour>
  </outline>
</glyph>
<glyph name="ety042_cid06066_H" format="1">
  <advance width="1000"/>
  <outline>
    <contour>
      <point x="970" y="574" type="curve"/>
      <point x="896" y="637" type="line"/>
      <point x="860" y="612"/>
      <point x="797" y="587"/>
      <point x="741" y="570" type="curve"/>
      <point x="751" y="551"/>
      <point x="764" y="522"/>
      <point x="769" y="503" type="curve"/>
      <point x="834" y="519"/>
      <point x="911" y="543"/>
    </contour>
    <contour>
      <point x="751" y="338" type="curve"/>
      <point x="751" y="369"/>
      <point x="828" y="428"/>
      <point x="828" y="428" type="curve"/>
      <point x="828" y="569" type="line"/>
      <point x="741" y="569" type="line"/>
      <point x="741" y="490" type="line"/>
      <point x="741" y="444"/>
      <point x="724" y="420"/>
      <point x="709" y="408" type="curve"/>
      <point x="723" y="393"/>
      <point x="744" y="358"/>
    </contour>
  </outline>
</glyph>
<glyph name="ety043_cid06297_H" format="1">
  <advance width="1000"/>
  <outline>
    <contour>
      <point x="945" y="496" type="curve"/>
      <point x="840" y="599" type="line"/>
      <point x="756" y="564"/>
      <point x="611" y="534"/>
      <point x="482" y="516" type="curve"/>
      <point x="496" y="488"/>
      <point x="512" y="436"/>
      <point x="517" y="405" type="curve"/>
      <point x="657" y="420"/>
      <point x="821" y="450"/>
    </contour>
    <contour>
      <point x="618" y="295" type="curve"/>
      <point x="618" y="514" type="line"/>
      <point x="483" y="514" type="line"/>
      <point x="483" y="297" type="line"/>
      <point x="483" y="191"/>
      <point x="470" y="82"/>
      <point x="371" y="-1" type="curve"/>
      <point x="406" y="-21"/>
      <point x="461" y="-66"/>
      <point x="486" y="-95" type="curve"/>
      <point x="603" y="8"/>
      <point x="618" y="156"/>
    </contour>
  </outline>
</glyph>
<glyph name="ety044_cid06539_H" format="1">
  <advance width="1000"/>
  <outline>
    <contour>
      <point x="928" y="772" type="curve"/>
      <point x="823" y="858" type="line"/>
      <point x="744" y="829"/>
      <point x="608" y="804"/>
      <point x="486" y="789" type="curve"/>
      <point x="500" y="765"/>
      <point x="516" y="722"/>
      <point x="521" y="696" type="curve"/>
      <point x="654" y="709"/>
      <point x="810" y="733"/>
    </contour>
    <contour>
      <point x="613" y="658" type="curve"/>
      <point x="613" y="788" type="line"/>
      <point x="487" y="788" type="line"/>
      <point x="487" y="661" type="line"/>
      <point x="487" y="600"/>
      <point x="475" y="536"/>
      <point x="395" y="492" type="curve"/>
      <point x="426" y="472"/>
      <point x="476" y="428"/>
      <point x="499" y="399" type="curve"/>
      <point x="598" y="463"/>
      <point x="613" y="561"/>
    </contour>
  </outline>
</glyph>
<glyph name="ety045_cid06561_H" format="1">
  <advance width="1000"/>
  <outline>
    <contour>
      <point x="962" y="743" type="curve"/>
      <point x="871" y="853" type="line"/>
      <point x="755" y="822"/>
      <point x="578" y="795"/>
      <point x="418" y="780" type="curve"/>
      <point x="432" y="751"/>
      <point x="450" y="701"/>
      <point x="454" y="670" type="curve"/>
      <point x="619" y="682"/>
      <point x="812" y="706"/>
    </contour>
    <contour>
      <point x="542" y="450" type="curve"/>
      <point x="542" y="779" type="line"/>
      <point x="418" y="779" type="line"/>
      <point x="418" y="451" type="line"/>
      <point x="418" y="310"/>
      <point x="411" y="95"/>
      <point x="351" y="-37" type="curve"/>
      <point x="381" y="-52"/>
      <point x="431" y="-87"/>
      <point x="454" y="-109" type="curve"/>
      <point x="532" y="41"/>
      <point x="542" y="281"/>
    </contour>
  </outline>
</glyph>
<glyph name="ety046_cid06660_H" format="1">
  <advance width="1000"/>
  <outline>
    <contour>
      <point x="880" y="446" type="curve"/>
      <point x="817" y="558" type="line"/>
      <point x="638" y="528"/>
      <point x="381" y="510"/>
      <point x="149" y="504" type="curve"/>
      <point x="162" y="475"/>
      <point x="178" y="427"/>
      <point x="181" y="395" type="curve"/>
      <point x="411" y="398"/>
      <point x="677" y="413"/>
    </contour>
    <contour>
      <point x="157" y="-81" type="curve"/>
      <point x="157" y="-37"/>
      <point x="293" y="39"/>
      <point x="293" y="39" type="curve"/>
      <point x="293" y="506" type="line"/>
      <point x="148" y="506" type="line"/>
      <point x="148" y="110" type="line"/>
      <point x="148" y="65"/>
      <point x="118" y="35"/>
      <point x="93" y="20" type="curve"/>
      <point x="115" y="-2"/>
      <point x="147" y="-52"/>
    </contour>
  </outline>
</glyph>
<glyph name="ety047_cid06675_H" format="1">
  <advance width="1000"/>
  <outline>
    <contour>
      <point x="913" y="437" type="curve"/>
      <point x="840" y="506" type="line"/>
      <point x="786" y="483"/>
      <point x="694" y="463"/>
      <point x="614" y="450" type="curve"/>
      <point x="625" y="430"/>
      <point x="637" y="398"/>
      <point x="641" y="379" type="curve"/>
      <point x="729" y="389"/>
      <point x="835" y="408"/>
    </contour>
    <contour>
      <point x="717" y="448" type="line"/>
      <point x="614" y="448" type="line"/>
      <point x="614" y="378" type="line"/>
      <point x="614" y="341"/>
      <point x="592" y="315"/>
      <point x="574" y="303" type="curve"/>
      <point x="591" y="285"/>
      <point x="619" y="244"/>
      <point x="629" y="223" type="curve"/>
      <point x="717" y="309" type="line"/>
    </contour>
  </outline>
</glyph>
<glyph name="ety048_cid06880_EL" format="1">
  <advance width="1000"/>
  <outline>
    <contour>
      <point x="882" y="638" type="curve"/>
      <point x="854" y="660" type="line"/>
      <point x="805" y="639"/>
      <point x="711" y="619"/>
      <point x="632" y="606" type="curve"/>
      <point x="637" y="598"/>
      <point x="642" y="588"/>
      <point x="644" y="582" type="curve"/>
      <point x="724" y="594"/>
      <point x="819" y="614"/>
    </contour>
    <contour>
      <point x="621" y="386" type="curve"/>
      <point x="621" y="400"/>
      <point x="663" y="416"/>
      <point x="663" y="416" type="curve"/>
      <point x="663" y="605" type="line"/>
      <point x="632" y="605" type="line"/>
      <point x="632" y="462" type="line"/>
      <point x="632" y="428"/>
      <point x="617" y="423"/>
      <point x="606" y="420" type="curve"/>
      <point x="612" y="410"/>
      <point x="619" y="395"/>
    </contour>
  </outline>
</glyph>
<glyph name="ety049_cid06880_H" format="1">
  <advance width="1000"/>
  <outline>
    <contour>
      <point x="929" y="601" type="curve"/>
      <point x="845" y="681" type="line"/>
      <point x="791" y="656"/>
      <point x="700" y="634"/>
      <point x="619" y="620" type="curve"/>
      <point x="631" y="597"/>
      <point x="645" y="560"/>
      <point x="650" y="537" type="curve"/>
      <point x="740" y="548"/>
      <point x="848" y="570"/>
    </contour>
    <contour>
      <point x="633" y="350" type="curve"/>
      <point x="633" y="386"/>
      <point x="727" y="446"/>
      <point x="727" y="446" type="curve"/>
      <point x="727" y="619" type="line"/>
      <point x="618" y="619" type="line"/>
      <point x="618" y="507" type="line"/>
      <point x="618" y="463"/>
      <point x="606" y="442"/>
      <point x="590" y="430" type="curve"/>
      <point x="605" y="414"/>
      <point x="627" y="373"/>
    </contour>
  </outline>
</glyph>
<glyph name="ety050_cid06943_H" format="1">
  <advance width="1000"/>
  <outline>
    <contour>
      <point x="946" y="750" type="curve"/>
      <point x="834" y="861" type="line"/>
      <point x="741" y="822"/>
      <point x="597" y="786"/>
      <point x="463" y="764" type="curve"/>
      <point x="479" y="734"/>
      <point x="499" y="682"/>
      <point x="505" y="650" type="curve"/>
      <point x="649" y="669"/>
      <point x="815" y="702"/>
    </contour>
    <contour>
      <point x="471" y="-95" type="curve"/>
      <point x="471" y="-48"/>
      <point x="598" y="9"/>
      <point x="598" y="9" type="curve"/>
      <point x="598" y="725" type="line"/>
      <point x="461" y="764" type="line"/>
      <point x="461" y="93" type="line"/>
      <point x="461" y="51"/>
      <point x="442" y="30"/>
      <point x="422" y="19" type="curve"/>
      <point x="441" y="-6"/>
      <point x="464" y="-62"/>
    </contour>
  </outline>
</glyph>
<glyph name="ety051_cid07020_H" format="1">
  <advance width="1000"/>
  <outline>
    <contour>
      <point x="487" y="478" type="curve"/>
      <point x="361" y="576" type="line"/>
      <point x="298" y="541"/>
      <point x="196" y="499"/>
      <point x="102" y="471" type="curve"/>
      <point x="119" y="445"/>
      <point x="140" y="396"/>
      <point x="148" y="367" type="curve"/>
      <point x="255" y="394"/>
      <point x="384" y="433"/>
    </contour>
    <contour>
      <point x="244" y="471" type="line"/>
      <point x="103" y="471" type="line"/>
      <point x="103" y="184" type="line"/>
      <point x="103" y="145"/>
      <point x="66" y="117"/>
      <point x="38" y="104" type="curve"/>
      <point x="62" y="73"/>
      <point x="91" y="8"/>
      <point x="101" y="-23" type="curve"/>
      <point x="244" y="84" type="line"/>
    </contour>
  </outline>
</glyph>
<glyph name="ety052_cid07065_H" format="1">
  <advance width="1000"/>
  <outline>
    <contour>
      <point x="945" y="515" type="curve"/>
      <point x="840" y="618" type="line"/>
      <point x="756" y="583"/>
      <point x="611" y="553"/>
      <point x="482" y="535" type="curve"/>
      <point x="496" y="507"/>
      <point x="512" y="455"/>
      <point x="517" y="424" type="curve"/>
      <point x="657" y="439"/>
      <point x="821" y="469"/>
    </contour>
    <contour>
      <point x="618" y="311" type="curve"/>
      <point x="618" y="533" type="line"/>
      <point x="483" y="533" type="line"/>
      <point x="483" y="313" type="line"/>
      <point x="483" y="205"/>
      <point x="470" y="94"/>
      <point x="371" y="10" type="curve"/>
      <point x="406" y="-10"/>
      <point x="461" y="-55"/>
      <point x="487" y="-84" type="curve"/>
      <point x="603" y="21"/>
      <point x="618" y="170"/>
    </contour>
  </outline>
</glyph>
<glyph name="ety053_cid07507_EL" format="1">
  <advance width="1000"/>
  <outline>
    <contour>
      <point x="872" y="787" type="curve"/>
      <point x="846" y="811" type="line"/>
      <point x="749" y="782"/>
      <point x="560" y="759"/>
      <point x="406" y="745" type="curve"/>
      <point x="410" y="737"/>
      <point x="415" y="726"/>
      <point x="416" y="719" type="curve"/>
      <point x="572" y="732"/>
      <point x="761" y="756"/>
    </contour>
    <contour>
      <point x="435" y="413" type="curve"/>
      <point x="435" y="744" type="line"/>
      <point x="406" y="744" type="line"/>
      <point x="406" y="413" type="line"/>
      <point x="406" y="259"/>
      <point x="399" y="82"/>
      <point x="346" y="-64" type="curve"/>
      <point x="355" y="-67"/>
      <point x="366" y="-74"/>
      <point x="373" y="-79" type="curve"/>
      <point x="427" y="71"/>
      <point x="435" y="249"/>
    </contour>
  </outline>
</glyph>
<glyph name="ety054_cid07507_H" format="1">
  <advance width="1000"/>
  <outline>
    <contour>
      <point x="947" y="737" type="curve"/>
      <point x="871" y="851" type="line"/>
      <point x="740" y="820"/>
      <point x="548" y="795"/>
      <point x="375" y="782" type="curve"/>
      <point x="388" y="752"/>
      <point x="405" y="704"/>
      <point x="409" y="671" type="curve"/>
      <point x="584" y="681"/>
      <point x="789" y="703"/>
    </contour>
    <contour>
      <point x="508" y="450" type="curve"/>
      <point x="508" y="780" type="line"/>
      <point x="374" y="780" type="line"/>
      <point x="374" y="451" type="line"/>
      <point x="374" y="312"/>
      <point x="367" y="98"/>
      <point x="304" y="-30" type="curve"/>
      <point x="336" y="-47"/>
      <point x="388" y="-88"/>
      <point x="412" y="-113" type="curve"/>
      <point x="498" y="35"/>
      <point x="508" y="279"/>
    </contour>
  </outline>
</glyph>
<glyph name="ety055_cid07666_H" format="1">
  <advance width="1000"/>
  <outline>
    <contour>
      <point x="930" y="735" type="curve"/>
      <point x="850" y="846" type="line"/>
      <point x="748" y="813"/>
      <point x="586" y="793"/>
      <point x="439" y="786" type="curve"/>
      <point x="450" y="755"/>
      <point x="463" y="701"/>
      <point x="466" y="668" type="curve"/>
      <point x="618" y="673"/>
      <point x="796" y="692"/>
    </contour>
    <contour>
      <point x="552" y="786" type="line"/>
      <point x="437" y="786" type="line"/>
      <point x="437" y="539" type="line"/>
      <point x="437" y="495"/>
      <point x="420" y="464"/>
      <point x="402" y="448" type="curve"/>
      <point x="420" y="414"/>
      <point x="446" y="336"/>
      <point x="454" y="300" type="curve"/>
      <point x="552" y="424" type="line"/>
    </contour>
  </outline>
</glyph>
<glyph name="ety056_cid07693_EL" format="1">
  <advance width="1000"/>
  <outline>
    <contour>
      <point x="912" y="787" type="curve"/>
      <point x="884" y="811" type="line"/>
      <point x="789" y="783"/>
      <point x="603" y="759"/>
      <point x="452" y="745" type="curve"/>
      <point x="456" y="738"/>
      <point x="461" y="727"/>
      <point x="463" y="720" type="curve"/>
      <point x="616" y="733"/>
      <point x="801" y="757"/>
    </contour>
    <contour>
      <point x="481" y="418" type="curve"/>
      <point x="481" y="745" type="line"/>
      <point x="451" y="745" type="line"/>
      <point x="451" y="418" type="line"/>
      <point x="451" y="259"/>
      <point x="439" y="82"/>
      <point x="348" y="-62" type="curve"/>
      <point x="357" y="-65"/>
      <point x="368" y="-72"/>
      <point x="374" y="-78" type="curve"/>
      <point x="469" y="69"/>
      <point x="481" y="249"/>
    </contour>
  </outline>
</glyph>
<glyph name="ety057_cid07693_H" format="1">
  <advance width="1000"/>
  <outline>
    <contour>
      <point x="949" y="749" type="curve"/>
      <point x="855" y="851" type="line"/>
      <point x="743" y="821"/>
      <point x="569" y="795"/>
      <point x="414" y="779" type="curve"/>
      <point x="428" y="752"/>
      <point x="446" y="706"/>
      <point x="450" y="677" type="curve"/>
      <point x="612" y="689"/>
      <point x="803" y="713"/>
    </contour>
    <contour>
      <point x="537" y="452" type="curve"/>
      <point x="537" y="779" type="line"/>
      <point x="412" y="779" type="line"/>
      <point x="412" y="453" type="line"/>
      <point x="412" y="310"/>
      <point x="403" y="99"/>
      <point x="321" y="-33" type="curve"/>
      <point x="352" y="-48"/>
      <point x="402" y="-81"/>
      <point x="426" y="-103" type="curve"/>
      <point x="524" y="46"/>
      <point x="537" y="281"/>
    </contour>
  </outline>
</glyph>
<glyph name="ety058_cid07731_EL" format="1">
  <advance width="1000"/>
  <outline>
    <contour>
      <point x="920" y="617" type="curve"/>
      <point x="893" y="638" type="line"/>
      <point x="854" y="618"/>
      <point x="779" y="595"/>
      <point x="718" y="581" type="curve"/>
      <point x="721" y="573"/>
      <point x="726" y="565"/>
      <point x="728" y="558" type="curve"/>
      <point x="793" y="572"/>
      <point x="869" y="592"/>
    </contour>
    <contour>
      <point x="716" y="351" type="curve"/>
      <point x="716" y="365"/>
      <point x="746" y="382"/>
      <point x="746" y="382" type="curve"/>
      <point x="746" y="581" type="line"/>
      <point x="717" y="581" type="line"/>
      <point x="717" y="428" type="line"/>
      <point x="717" y="393"/>
      <point x="709" y="386"/>
      <point x="700" y="383" type="curve"/>
      <point x="706" y="375"/>
      <point x="714" y="360"/>
    </contour>
  </outline>
</glyph>
<glyph name="ety060_cid07734_H" format="1">
  <advance width="1000"/>
  <outline>
    <contour>
      <point x="673" y="755" type="curve"/>
      <point x="622" y="853" type="line"/>
      <point x="568" y="829"/>
      <point x="489" y="808"/>
      <point x="420" y="795" type="curve"/>
      <point x="432" y="769"/>
      <point x="444" y="732"/>
      <point x="448" y="708" type="curve"/>
      <point x="517" y="716"/>
      <point x="604" y="732"/>
    </contour>
    <contour>
      <point x="530" y="730" type="curve"/>
      <point x="530" y="795" type="line"/>
      <point x="421" y="795" type="line"/>
      <point x="421" y="733" type="line"/>
      <point x="421" y="671"/>
      <point x="415" y="586"/>
      <point x="364" y="519" type="curve"/>
      <point x="388" y="505"/>
      <point x="438" y="464"/>
      <point x="456" y="443" type="curve"/>
      <point x="517" y="524"/>
      <point x="530" y="643"/>
    </contour>
  </outline>
</glyph>
<glyph name="ety061_cid07734_H" format="1">
  <advance width="1000"/>
  <outline>
    <contour>
      <point x="966" y="758" type="curve"/>
      <point x="905" y="856" type="line"/>
      <point x="851" y="835"/>
      <point x="770" y="818"/>
      <point x="700" y="807" type="curve"/>
      <point x="712" y="781"/>
      <point x="725" y="742"/>
      <point x="729" y="717" type="curve"/>
      <point x="802" y="722"/>
      <point x="893" y="735"/>
    </contour>
    <contour>
      <point x="808" y="739" type="curve"/>
      <point x="808" y="807" type="line"/>
      <point x="701" y="807" type="line"/>
      <point x="701" y="741" type="line"/>
      <point x="701" y="677"/>
      <point x="697" y="580"/>
      <point x="659" y="505" type="curve"/>
      <point x="687" y="497"/>
      <point x="740" y="476"/>
      <point x="763" y="462" type="curve"/>
      <point x="801" y="541"/>
      <point x="808" y="659"/>
    </contour>
  </outline>
</glyph>
<glyph name="ety062_cid07775_H" format="1">
  <advance width="1000"/>
  <outline>
    <contour>
      <point x="991" y="709" type="curve"/>
      <point x="885" y="827" type="line"/>
      <point x="776" y="803"/>
      <point x="611" y="786"/>
      <point x="461" y="778" type="curve"/>
      <point x="476" y="747"/>
      <point x="494" y="693"/>
      <point x="498" y="659" type="curve"/>
      <point x="656" y="663"/>
      <point x="842" y="678"/>
    </contour>
    <contour>
      <point x="582" y="536" type="curve"/>
      <point x="582" y="779" type="line"/>
      <point x="461" y="779" type="line"/>
      <point x="461" y="536" type="line"/>
      <point x="461" y="362"/>
      <point x="452" y="153"/>
      <point x="368" y="-19" type="curve"/>
      <point x="401" y="-36"/>
      <point x="450" y="-73"/>
      <point x="475" y="-99" type="curve"/>
      <point x="572" y="99"/>
      <point x="582" y="338"/>
    </contour>
  </outline>
</glyph>
<glyph name="ety063_cid07868_H" format="1">
  <advance width="1000"/>
  <outline>
    <contour>
      <point x="973" y="744" type="curve"/>
      <point x="848" y="849" type="line"/>
      <point x="763" y="821"/>
      <point x="623" y="799"/>
      <point x="495" y="787" type="curve"/>
      <point x="511" y="758"/>
      <point x="530" y="705"/>
      <point x="536" y="674" type="curve"/>
      <point x="677" y="683"/>
      <point x="843" y="705"/>
    </contour>
    <contour>
      <point x="627" y="464" type="curve"/>
      <point x="627" y="786" type="line"/>
      <point x="495" y="786" type="line"/>
      <point x="495" y="465" type="line"/>
      <point x="495" y="349"/>
      <point x="486" y="239"/>
      <point x="422" y="158" type="curve"/>
      <point x="452" y="136"/>
      <point x="499" y="86"/>
      <point x="520" y="55" type="curve"/>
      <point x="615" y="160"/>
      <point x="627" y="308"/>
    </contour>
  </outline>
</glyph>
<glyph name="ety064_cid07892_H" format="1">
  <advance width="1000"/>
  <outline>
    <contour>
      <point x="962" y="748" type="curve"/>
      <point x="875" y="851" type="line"/>
      <point x="770" y="827"/>
      <point x="608" y="808"/>
      <point x="463" y="799" type="curve"/>
      <point x="476" y="771"/>
      <point x="492" y="725"/>
      <point x="496" y="696" type="curve"/>
      <point x="647" y="701"/>
      <point x="825" y="718"/>
    </contour>
    <contour>
      <point x="583" y="532" type="curve"/>
      <point x="583" y="800" type="line"/>
      <point x="463" y="800" type="line"/>
      <point x="463" y="533" type="line"/>
      <point x="463" y="418"/>
      <point x="455" y="242"/>
      <point x="391" y="133" type="curve"/>
      <point x="420" y="119"/>
      <point x="467" y="85"/>
      <point x="488" y="64" type="curve"/>
      <point x="571" y="188"/>
      <point x="583" y="390"/>
    </contour>
  </outline>
</glyph>
<glyph name="ety065_cid07931_H" format="1">
  <advance width="1000"/>
  <outline>
    <contour>
      <point x="951" y="743" type="curve"/>
      <point x="834" y="860" type="line"/>
      <point x="735" y="820"/>
      <point x="583" y="784"/>
      <point x="441" y="763" type="curve"/>
      <point x="458" y="731"/>
      <point x="480" y="676"/>
      <point x="486" y="642" type="curve"/>
      <point x="637" y="661"/>
      <point x="812" y="693"/>
    </contour>
    <contour>
      <point x="448" y="35" type="curve"/>
      <point x="448" y="77"/>
      <point x="568" y="133"/>
      <point x="568" y="133" type="curve"/>
      <point x="568" y="721" type="line"/>
      <point x="442" y="757" type="line"/>
      <point x="442" y="214" type="line"/>
      <point x="442" y="172"/>
      <point x="422" y="152"/>
      <point x="402" y="141" type="curve"/>
      <point x="420" y="118"/>
      <point x="441" y="65"/>
    </contour>
  </outline>
</glyph>
<glyph name="ety066_cid08041_EL" format="1">
  <advance width="1000"/>
  <outline>
    <contour>
      <point x="936" y="787" type="curve"/>
      <point x="909" y="811" type="line"/>
      <point x="817" y="784"/>
      <point x="638" y="760"/>
      <point x="493" y="746" type="curve"/>
      <point x="497" y="738"/>
      <point x="502" y="727"/>
      <point x="503" y="720" type="curve"/>
      <point x="651" y="734"/>
      <point x="828" y="758"/>
    </contour>
    <contour>
      <point x="523" y="399" type="curve"/>
      <point x="523" y="745" type="line"/>
      <point x="493" y="745" type="line"/>
      <point x="493" y="398" type="line"/>
      <point x="493" y="248"/>
      <point x="482" y="84"/>
      <point x="403" y="-46" type="curve"/>
      <point x="411" y="-50"/>
      <point x="422" y="-57"/>
      <point x="427" y="-63" type="curve"/>
      <point x="511" y="73"/>
      <point x="523" y="238"/>
    </contour>
  </outline>
</glyph>
<glyph name="ety067_cid08115_EL" format="1">
  <advance width="1000"/>
  <outline>
    <contour>
      <point x="878" y="794" type="curve"/>
      <point x="847" y="815" type="line"/>
      <point x="757" y="768"/>
      <point x="565" y="730"/>
      <point x="407" y="707" type="curve"/>
      <point x="411" y="700"/>
      <point x="416" y="689"/>
      <point x="417" y="682" type="curve"/>
      <point x="579" y="706"/>
      <point x="770" y="743"/>
    </contour>
    <contour>
      <point x="385" y="83" type="curve"/>
      <point x="385" y="97"/>
      <point x="435" y="124"/>
      <point x="435" y="124" type="curve"/>
      <point x="435" y="696" type="line"/>
      <point x="406" y="707" type="line"/>
      <point x="406" y="170" type="line"/>
      <point x="406" y="132"/>
      <point x="381" y="119"/>
      <point x="369" y="114" type="curve"/>
      <point x="375" y="105"/>
      <point x="382" y="91"/>
    </contour>
  </outline>
</glyph>
<glyph name="ety068_cid08115_H" format="1">
  <advance width="1000"/>
  <outline>
    <contour>
      <point x="946" y="749" type="curve"/>
      <point x="840" y="859" type="line"/>
      <point x="721" y="818"/>
      <point x="534" y="783"/>
      <point x="364" y="764" type="curve"/>
      <point x="379" y="734"/>
      <point x="398" y="682"/>
      <point x="403" y="650" type="curve"/>
      <point x="581" y="667"/>
      <point x="787" y="699"/>
    </contour>
    <contour>
      <point x="364" y="67" type="curve"/>
      <point x="364" y="111"/>
      <point x="499" y="171"/>
      <point x="499" y="171" type="curve"/>
      <point x="499" y="724" type="line"/>
      <point x="364" y="763" type="line"/>
      <point x="364" y="256" type="line"/>
      <point x="364" y="213"/>
      <point x="338" y="191"/>
      <point x="315" y="180" type="curve"/>
      <point x="334" y="155"/>
      <point x="357" y="99"/>
    </contour>
  </outline>
</glyph>
<glyph name="ety069_cid08265_EL" format="1">
  <advance width="1000"/>
  <outline>
    <contour>
      <point x="662" y="780" type="curve"/>
      <point x="634" y="802" type="line"/>
      <point x="591" y="774"/>
      <point x="510" y="744"/>
      <point x="441" y="723" type="curve"/>
      <point x="445" y="717"/>
      <point x="450" y="707"/>
      <point x="453" y="701" type="curve"/>
      <point x="524" y="720"/>
      <point x="607" y="750"/>
    </contour>
    <contour>
      <point x="470" y="723" type="line"/>
      <point x="440" y="723" type="line"/>
      <point x="440" y="182" type="line"/>
      <point x="440" y="142"/>
      <point x="417" y="123"/>
      <point x="405" y="116" type="curve"/>
      <point x="411" y="108"/>
      <point x="420" y="96"/>
      <point x="424" y="87" type="curve"/>
      <point x="470" y="136" type="line"/>
    </contour>
  </outline>
</glyph>
<glyph name="ety070_cid08595_H" format="1">
  <advance width="1000"/>
  <outline>
    <contour>
      <point x="949" y="758" type="curve"/>
      <point x="846" y="861" type="line"/>
      <point x="752" y="825"/>
      <point x="603" y="792"/>
      <point x="467" y="773" type="curve"/>
      <point x="482" y="745"/>
      <point x="500" y="697"/>
      <point x="506" y="667" type="curve"/>
      <point x="650" y="684"/>
      <point x="819" y="714"/>
    </contour>
    <contour>
      <point x="467" y="-95" type="curve"/>
      <point x="467" y="-51"/>
      <point x="596" y="5"/>
      <point x="596" y="5" type="curve"/>
      <point x="596" y="735" type="line"/>
      <point x="467" y="772" type="line"/>
      <point x="467" y="87" type="line"/>
      <point x="467" y="45"/>
      <point x="442" y="24"/>
      <point x="420" y="13" type="curve"/>
      <point x="438" y="-12"/>
      <point x="460" y="-64"/>
    </contour>
  </outline>
</glyph>
<glyph name="ety071_cid08839_H" format="1">
  <advance width="1000"/>
  <outline>
    <contour>
      <point x="928" y="777" type="curve"/>
      <point x="823" y="858" type="line"/>
      <point x="744" y="831"/>
      <point x="608" y="807"/>
      <point x="486" y="793" type="curve"/>
      <point x="500" y="770"/>
      <point x="516" y="730"/>
      <point x="521" y="705" type="curve"/>
      <point x="654" y="717"/>
      <point x="810" y="741"/>
    </contour>
    <contour>
      <point x="613" y="670" type="curve"/>
      <point x="613" y="793" type="line"/>
      <point x="487" y="793" type="line"/>
      <point x="487" y="674" type="line"/>
      <point x="487" y="616"/>
      <point x="475" y="556"/>
      <point x="395" y="514" type="curve"/>
      <point x="426" y="495"/>
      <point x="476" y="454"/>
      <point x="499" y="427" type="curve"/>
      <point x="598" y="486"/>
      <point x="613" y="580"/>
    </contour>
  </outline>
</glyph>
<glyph name="ety072_cid08873_H" format="1">
  <advance width="1000"/>
  <outline>
    <contour>
      <point x="970" y="579" type="curve"/>
      <point x="897" y="645" type="line"/>
      <point x="865" y="621"/>
      <point x="810" y="595"/>
      <point x="760" y="578" type="curve"/>
      <point x="771" y="559"/>
      <point x="783" y="527"/>
      <point x="788" y="508" type="curve"/>
      <point x="846" y="523"/>
      <point x="916" y="547"/>
    </contour>
    <contour>
      <point x="835" y="576" type="line"/>
      <point x="761" y="576" type="line"/>
      <point x="761" y="490" type="line"/>
      <point x="761" y="450"/>
      <point x="748" y="431"/>
      <point x="735" y="422" type="curve"/>
      <point x="747" y="403"/>
      <point x="763" y="362"/>
      <point x="769" y="341" type="curve"/>
      <point x="835" y="414" type="line"/>
    </contour>
  </outline>
</glyph>
<glyph name="ety073_cid08898_H" format="1">
  <advance width="1000"/>
  <outline>
    <contour>
      <point x="694" y="737" type="curve"/>
      <point x="619" y="840" type="line"/>
      <point x="569" y="808"/>
      <point x="495" y="768"/>
      <point x="429" y="741" type="curve"/>
      <point x="441" y="715"/>
      <point x="456" y="673"/>
      <point x="462" y="646" type="curve"/>
      <point x="534" y="669"/>
      <point x="620" y="702"/>
    </contour>
    <contour>
      <point x="550" y="741" type="line"/>
      <point x="430" y="741" type="line"/>
      <point x="430" y="253" type="line"/>
      <point x="430" y="213"/>
      <point x="407" y="188"/>
      <point x="386" y="175" type="curve"/>
      <point x="406" y="140"/>
      <point x="429" y="66"/>
      <point x="436" y="32" type="curve"/>
      <point x="550" y="141" type="line"/>
    </contour>
  </outline>
</glyph>
<glyph name="ety074_cid08914_H" format="1">
  <advance width="1000"/>
  <outline>
    <contour>
      <point x="949" y="521" type="curve"/>
      <point x="843" y="602" type="line"/>
      <point x="762" y="567"/>
      <point x="603" y="529"/>
      <point x="490" y="517" type="curve"/>
      <point x="524" y="484"/>
      <point x="560" y="431"/>
      <point x="582" y="393" type="curve"/>
      <point x="694" y="420"/>
      <point x="856" y="475"/>
    </contour>
    <contour>
      <point x="489" y="-94" type="curve"/>
      <point x="489" y="-51"/>
      <point x="623" y="4"/>
      <point x="623" y="4" type="curve"/>
      <point x="623" y="515" type="line"/>
      <point x="489" y="515" type="line"/>
      <point x="489" y="96" type="line"/>
      <point x="489" y="55"/>
      <point x="465" y="36"/>
      <point x="442" y="26" type="curve"/>
      <point x="461" y="-2"/>
      <point x="482" y="-61"/>
    </contour>
  </outline>
</glyph>
<glyph name="ety075_cid08965_H" format="1">
  <advance width="1000"/>
  <outline>
    <contour>
      <point x="973" y="579" type="curve"/>
      <point x="903" y="645" type="line"/>
      <point x="872" y="621"/>
      <point x="819" y="595"/>
      <point x="771" y="578" type="curve"/>
      <point x="781" y="559"/>
      <point x="794" y="527"/>
      <point x="798" y="508" type="curve"/>
      <point x="854" y="523"/>
      <point x="921" y="547"/>
    </contour>
    <contour>
      <point x="845" y="576" type="line"/>
      <point x="773" y="576" type="line"/>
      <point x="773" y="490" type="line"/>
      <point x="773" y="450"/>
      <point x="760" y="431"/>
      <point x="748" y="422" type="curve"/>
      <point x="759" y="403"/>
      <point x="775" y="362"/>
      <point x="781" y="341" type="curve"/>
      <point x="845" y="414" type="line"/>
    </contour>
  </outline>
</glyph>
<glyph name="ety076_cid09035_H" format="1">
  <advance width="1000"/>
  <outline>
    <contour>
      <point x="872" y="405" type="curve"/>
      <point x="816" y="476" type="line"/>
      <point x="643" y="458"/>
      <point x="384" y="447"/>
      <point x="156" y="443" type="curve"/>
      <point x="168" y="425"/>
      <point x="183" y="395"/>
      <point x="185" y="375" type="curve"/>
      <point x="410" y="376"/>
      <point x="677" y="385"/>
    </contour>
    <contour>
      <point x="165" y="144" type="curve"/>
      <point x="165" y="174"/>
      <point x="300" y="228"/>
      <point x="300" y="228" type="curve"/>
      <point x="300" y="444" type="line"/>
      <point x="156" y="444" type="line"/>
      <point x="156" y="278" type="line"/>
      <point x="156" y="246"/>
      <point x="126" y="225"/>
      <point x="102" y="215" type="curve"/>
      <point x="124" y="199"/>
      <point x="155" y="164"/>
    </contour>
  </outline>
</glyph>
<glyph name="ety077_cid09209_EL" format="1">
  <advance width="1000"/>
  <outline>
    <contour>
      <point x="652" y="777" type="curve"/>
      <point x="623" y="799" type="line"/>
      <point x="582" y="772"/>
      <point x="502" y="744"/>
      <point x="435" y="724" type="curve"/>
      <point x="439" y="718"/>
      <point x="444" y="708"/>
      <point x="447" y="701" type="curve"/>
      <point x="517" y="720"/>
      <point x="598" y="748"/>
    </contour>
    <contour>
      <point x="464" y="724" type="line"/>
      <point x="434" y="724" type="line"/>
      <point x="434" y="160" type="line"/>
      <point x="434" y="119"/>
      <point x="423" y="103"/>
      <point x="415" y="97" type="curve"/>
      <point x="421" y="89"/>
      <point x="429" y="77"/>
      <point x="433" y="69" type="curve"/>
      <point x="464" y="114" type="line"/>
    </contour>
  </outline>
</glyph>
<glyph name="ety078_cid09222_EL" format="1">
  <advance width="1000"/>
  <outline>
    <contour>
      <point x="904" y="789" type="curve"/>
      <point x="878" y="813" type="line"/>
      <point x="797" y="782"/>
      <point x="640" y="752"/>
      <point x="512" y="732" type="curve"/>
      <point x="516" y="724"/>
      <point x="521" y="715"/>
      <point x="523" y="707" type="curve"/>
      <point x="653" y="725"/>
      <point x="809" y="755"/>
    </contour>
    <contour>
      <point x="486" y="-64" type="curve"/>
      <point x="486" y="-51"/>
      <point x="540" y="-19"/>
      <point x="540" y="-19" type="curve"/>
      <point x="540" y="730" type="line"/>
      <point x="511" y="730" type="line"/>
      <point x="511" y="26" type="line"/>
      <point x="511" y="-12"/>
      <point x="483" y="-28"/>
      <point x="469" y="-34" type="curve"/>
      <point x="476" y="-42"/>
      <point x="483" y="-56"/>
    </contour>
  </outline>
</glyph>
<glyph name="ety079_cid09222_H" format="1">
  <advance width="1000"/>
  <outline>
    <contour>
      <point x="942" y="728" type="curve"/>
      <point x="850" y="844" type="line"/>
      <point x="760" y="810"/>
      <point x="628" y="775"/>
      <point x="508" y="754" type="curve"/>
      <point x="523" y="724"/>
      <point x="542" y="674"/>
      <point x="548" y="643" type="curve"/>
      <point x="674" y="661"/>
      <point x="822" y="690"/>
    </contour>
    <contour>
      <point x="513" y="-98" type="curve"/>
      <point x="513" y="-53"/>
      <point x="631" y="-6"/>
      <point x="631" y="-6" type="curve"/>
      <point x="631" y="754" type="line"/>
      <point x="509" y="754" type="line"/>
      <point x="509" y="90" type="line"/>
      <point x="509" y="50"/>
      <point x="487" y="31"/>
      <point x="466" y="21" type="curve"/>
      <point x="485" y="-8"/>
      <point x="506" y="-65"/>
    </contour>
  </outline>
</glyph>
<glyph name="ety080_cid09223_EL" format="1">
  <advance width="1000"/>
  <outline>
    <contour>
      <point x="476" y="778" type="curve"/>
      <point x="451" y="802" type="line"/>
      <point x="377" y="773"/>
      <point x="234" y="745"/>
      <point x="118" y="726" type="curve"/>
      <point x="122" y="719"/>
      <point x="127" y="709"/>
      <point x="129" y="702" type="curve"/>
      <point x="247" y="719"/>
      <point x="389" y="747"/>
    </contour>
    <contour>
      <point x="148" y="728" type="line"/>
      <point x="118" y="728" type="line"/>
      <point x="118" y="26" type="line"/>
      <point x="118" y="-13"/>
      <point x="88" y="-30"/>
      <point x="74" y="-37" type="curve"/>
      <point x="80" y="-45"/>
      <point x="87" y="-58"/>
      <point x="91" y="-66" type="curve"/>
      <point x="148" y="-20" type="line"/>
    </contour>
  </outline>
</glyph>
<glyph name="ety081_cid09223_H" format="1">
  <advance width="1000"/>
  <outline>
    <contour>
      <point x="512" y="724" type="curve"/>
      <point x="422" y="842" type="line"/>
      <point x="334" y="807"/>
      <point x="203" y="772"/>
      <point x="84" y="750" type="curve"/>
      <point x="98" y="720"/>
      <point x="115" y="668"/>
      <point x="120" y="635" type="curve"/>
      <point x="246" y="654"/>
      <point x="393" y="684"/>
    </contour>
    <contour>
      <point x="207" y="750" type="line"/>
      <point x="83" y="750" type="line"/>
      <point x="83" y="152" type="line"/>
      <point x="83" y="102"/>
      <point x="52" y="56"/>
      <point x="29" y="36" type="curve"/>
      <point x="49" y="10"/>
      <point x="86" y="-55"/>
      <point x="100" y="-88" type="curve"/>
      <point x="207" y="54" type="line"/>
    </contour>
  </outline>
</glyph>
<glyph name="ety082_cid09334_H" format="1">
  <advance width="1000"/>
  <outline>
    <contour>
      <point x="555" y="764" type="curve"/>
      <point x="493" y="850" type="line"/>
      <point x="392" y="816"/>
      <point x="225" y="785"/>
      <point x="79" y="767" type="curve"/>
      <point x="88" y="744"/>
      <point x="99" y="704"/>
      <point x="101" y="679" type="curve"/>
      <point x="251" y="695"/>
      <point x="427" y="723"/>
    </contour>
    <contour>
      <point x="176" y="467" type="curve"/>
      <point x="176" y="766" type="line"/>
      <point x="79" y="766" type="line"/>
      <point x="79" y="467" type="line"/>
      <point x="79" y="326"/>
      <point x="75" y="133"/>
      <point x="16" y="2" type="curve"/>
      <point x="38" y="-13"/>
      <point x="80" y="-58"/>
      <point x="96" y="-83" type="curve"/>
      <point x="164" y="63"/>
      <point x="176" y="306"/>
    </contour>
  </outline>
</glyph>
<glyph name="ety083_cid09451_H" format="1">
  <advance width="1000"/>
  <outline>
    <contour>
      <point x="732" y="742" type="curve"/>
      <point x="673" y="839" type="line"/>
      <point x="625" y="816"/>
      <point x="554" y="792"/>
      <point x="494" y="775" type="curve"/>
      <point x="506" y="750"/>
      <point x="519" y="713"/>
      <point x="523" y="689" type="curve"/>
      <point x="586" y="701"/>
      <point x="665" y="719"/>
    </contour>
    <contour>
      <point x="508" y="430" type="curve"/>
      <point x="508" y="463"/>
      <point x="595" y="513"/>
      <point x="595" y="513" type="curve"/>
      <point x="595" y="776" type="line"/>
      <point x="495" y="776" type="line"/>
      <point x="495" y="584" type="line"/>
      <point x="495" y="543"/>
      <point x="483" y="525"/>
      <point x="468" y="515" type="curve"/>
      <point x="483" y="496"/>
      <point x="502" y="454"/>
    </contour>
  </outline>
</glyph>
<glyph name="ety084_cid09461_EL" format="1">
  <advance width="1000"/>
  <outline>
    <contour>
      <point x="919" y="616" type="curve"/>
      <point x="892" y="637" type="line"/>
      <point x="853" y="617"/>
      <point x="778" y="594"/>
      <point x="717" y="580" type="curve"/>
      <point x="721" y="572"/>
      <point x="725" y="564"/>
      <point x="727" y="557" type="curve"/>
      <point x="792" y="571"/>
      <point x="868" y="591"/>
    </contour>
    <contour>
      <point x="715" y="354" type="curve"/>
      <point x="715" y="368"/>
      <point x="745" y="385"/>
      <point x="745" y="385" type="curve"/>
      <point x="745" y="580" type="line"/>
      <point x="716" y="580" type="line"/>
      <point x="716" y="431" type="line"/>
      <point x="716" y="396"/>
      <point x="708" y="389"/>
      <point x="699" y="386" type="curve"/>
      <point x="705" y="377"/>
      <point x="713" y="363"/>
    </contour>
  </outline>
</glyph>
<glyph name="ety085_cid09461_H" format="1">
  <advance width="1000"/>
  <outline>
    <contour>
      <point x="969" y="574" type="curve"/>
      <point x="896" y="637" type="line"/>
      <point x="863" y="614"/>
      <point x="806" y="591"/>
      <point x="754" y="575" type="curve"/>
      <point x="765" y="557"/>
      <point x="778" y="527"/>
      <point x="782" y="509" type="curve"/>
      <point x="842" y="522"/>
      <point x="914" y="545"/>
    </contour>
    <contour>
      <point x="766" y="337" type="curve"/>
      <point x="766" y="367"/>
      <point x="837" y="421"/>
      <point x="837" y="421" type="curve"/>
      <point x="837" y="574" type="line"/>
      <point x="753" y="574" type="line"/>
      <point x="753" y="481" type="line"/>
      <point x="753" y="436"/>
      <point x="740" y="413"/>
      <point x="725" y="402" type="curve"/>
      <point x="739" y="388"/>
      <point x="759" y="355"/>
    </contour>
  </outline>
</glyph>
<glyph name="ety086_cid09484_H" format="1">
  <advance width="1000"/>
  <outline>
    <contour>
      <point x="965" y="582" type="curve"/>
      <point x="893" y="643" type="line"/>
      <point x="862" y="619"/>
      <point x="808" y="594"/>
      <point x="760" y="576" type="curve"/>
      <point x="770" y="559"/>
      <point x="783" y="530"/>
      <point x="788" y="512" type="curve"/>
      <point x="844" y="528"/>
      <point x="912" y="552"/>
    </contour>
    <contour>
      <point x="768" y="342" type="curve"/>
      <point x="768" y="371"/>
      <point x="836" y="424"/>
      <point x="836" y="424" type="curve"/>
      <point x="836" y="593" type="line"/>
      <point x="760" y="593" type="line"/>
      <point x="760" y="484" type="line"/>
      <point x="760" y="439"/>
      <point x="744" y="415"/>
      <point x="731" y="404" type="curve"/>
      <point x="743" y="391"/>
      <point x="762" y="360"/>
    </contour>
  </outline>
</glyph>
<glyph name="ety087_cid09852_H" format="1">
  <advance width="1000"/>
  <outline>
    <contour>
      <point x="636" y="733" type="curve"/>
      <point x="545" y="841" type="line"/>
      <point x="487" y="810"/>
      <point x="401" y="772"/>
      <point x="324" y="746" type="curve"/>
      <point x="338" y="719"/>
      <point x="357" y="674"/>
      <point x="363" y="646" type="curve"/>
      <point x="447" y="668"/>
      <point x="549" y="699"/>
    </contour>
    <contour>
      <point x="341" y="42" type="curve"/>
      <point x="341" y="89"/>
      <point x="451" y="182"/>
      <point x="451" y="182" type="curve"/>
      <point x="451" y="747" type="line"/>
      <point x="323" y="747" type="line"/>
      <point x="323" y="250" type="line"/>
      <point x="323" y="194"/>
      <point x="296" y="155"/>
      <point x="274" y="135" type="curve"/>
      <point x="294" y="116"/>
      <point x="329" y="69"/>
    </contour>
  </outline>
</glyph>
<glyph name="ety088_cid10778_H" format="1">
  <advance width="1000"/>
  <outline>
    <contour>
      <point x="962" y="583" type="curve"/>
      <point x="881" y="652" type="line"/>
      <point x="842" y="627"/>
      <point x="774" y="601"/>
      <point x="713" y="584" type="curve"/>
      <point x="725" y="564"/>
      <point x="739" y="531"/>
      <point x="744" y="511" type="curve"/>
      <point x="814" y="526"/>
      <point x="898" y="550"/>
    </contour>
    <contour>
      <point x="799" y="583" type="line"/>
      <point x="713" y="583" type="line"/>
      <point x="713" y="495" type="line"/>
      <point x="713" y="454"/>
      <point x="698" y="435"/>
      <point x="683" y="425" type="curve"/>
      <point x="698" y="405"/>
      <point x="717" y="360"/>
      <point x="723" y="339" type="curve"/>
      <point x="799" y="416" type="line"/>
    </contour>
  </outline>
</glyph>
<glyph name="ety089_cid11735_H" format="1">
  <advance width="1000"/>
  <outline>
    <contour>
      <point x="512" y="747" type="curve"/>
      <point x="387" y="856" type="line"/>
      <point x="311" y="813"/>
      <point x="191" y="763"/>
      <point x="102" y="738" type="curve"/>
      <point x="204" y="637" type="line"/>
      <point x="293" y="660"/>
      <point x="413" y="701"/>
    </contour>
    <contour>
      <point x="107" y="4" type="curve"/>
      <point x="107" y="57"/>
      <point x="255" y="120"/>
      <point x="255" y="120" type="curve"/>
      <point x="255" y="695" type="line"/>
      <point x="101" y="737" type="line"/>
      <point x="101" y="229" type="line"/>
      <point x="101" y="187"/>
      <point x="74" y="162"/>
      <point x="48" y="149" type="curve"/>
      <point x="72" y="114"/>
      <point x="98" y="44"/>
    </contour>
  </outline>
</glyph>
<glyph name="ety090_cid13310_H" format="1">
  <advance width="1000"/>
  <outline>
    <contour>
      <point x="939" y="728" type="curve"/>
      <point x="842" y="847" type="line"/>
      <point x="722" y="810"/>
      <point x="544" y="774"/>
      <point x="382" y="753" type="curve"/>
      <point x="398" y="722"/>
      <point x="417" y="669"/>
      <point x="422" y="636" type="curve"/>
      <point x="590" y="655"/>
      <point x="783" y="686"/>
    </contour>
    <contour>
      <point x="521" y="752" type="line"/>
      <point x="382" y="752" type="line"/>
      <point x="382" y="137" type="line"/>
      <point x="382" y="91"/>
      <point x="336" y="48"/>
      <point x="307" y="31" type="curve"/>
      <point x="331" y="1"/>
      <point x="367" y="-65"/>
      <point x="380" y="-99" type="curve"/>
      <point x="521" y="36" type="line"/>
    </contour>
  </outline>
</glyph>
<glyph name="ety091_cid13452_H" format="1">
  <advance width="1000"/>
  <outline>
    <contour>
      <point x="953" y="728" type="curve"/>
      <point x="866" y="854" type="line"/>
      <point x="741" y="826"/>
      <point x="561" y="807"/>
      <point x="395" y="799" type="curve"/>
      <point x="410" y="766"/>
      <point x="428" y="711"/>
      <point x="432" y="675" type="curve"/>
      <point x="601" y="679"/>
      <point x="797" y="695"/>
    </contour>
    <contour>
      <point x="535" y="491" type="curve"/>
      <point x="535" y="800" type="line"/>
      <point x="395" y="800" type="line"/>
      <point x="395" y="492" type="line"/>
      <point x="395" y="343"/>
      <point x="383" y="113"/>
      <point x="272" y="-23" type="curve"/>
      <point x="306" y="-41"/>
      <point x="362" y="-84"/>
      <point x="388" y="-109" type="curve"/>
      <point x="518" y="47"/>
      <point x="535" y="309"/>
    </contour>
  </outline>
</glyph>
<glyph name="ety092_cid14496_H" format="1">
  <advance width="1000"/>
  <outline>
    <contour>
      <point x="950" y="726" type="curve"/>
      <point x="874" y="855" type="line"/>
      <point x="753" y="828"/>
      <point x="584" y="809"/>
      <point x="428" y="800" type="curve"/>
      <point x="442" y="767"/>
      <point x="459" y="712"/>
      <point x="462" y="676" type="curve"/>
      <point x="620" y="680"/>
      <point x="803" y="695"/>
    </contour>
    <contour>
      <point x="550" y="490" type="curve"/>
      <point x="550" y="800" type="line"/>
      <point x="427" y="800" type="line"/>
      <point x="427" y="491" type="line"/>
      <point x="427" y="342"/>
      <point x="417" y="116"/>
      <point x="320" y="-21" type="curve"/>
      <point x="351" y="-37"/>
      <point x="400" y="-76"/>
      <point x="423" y="-99" type="curve"/>
      <point x="535" y="58"/>
      <point x="550" y="312"/>
    </contour>
  </outline>
</glyph>
<glyph name="ety093_cid14497_EL" format="1">
  <advance width="1000"/>
  <outline>
    <contour>
      <point x="899" y="792" type="curve"/>
      <point x="874" y="817" type="line"/>
      <point x="775" y="791"/>
      <point x="584" y="768"/>
      <point x="430" y="755" type="curve"/>
      <point x="434" y="747"/>
      <point x="438" y="736"/>
      <point x="440" y="729" type="curve"/>
      <point x="596" y="741"/>
      <point x="786" y="764"/>
    </contour>
    <contour>
      <point x="460" y="361" type="curve"/>
      <point x="460" y="754" type="line"/>
      <point x="430" y="754" type="line"/>
      <point x="430" y="361" type="line"/>
      <point x="430" y="215"/>
      <point x="420" y="65"/>
      <point x="342" y="-53" type="curve"/>
      <point x="351" y="-57"/>
      <point x="362" y="-65"/>
      <point x="368" y="-69" type="curve"/>
      <point x="448" y="53"/>
      <point x="460" y="204"/>
    </contour>
  </outline>
</glyph>
<glyph name="ety094_cid14497_H" format="1">
  <advance width="1000"/>
  <outline>
    <contour>
      <point x="955" y="725" type="curve"/>
      <point x="874" y="854" type="line"/>
      <point x="752" y="827"/>
      <point x="582" y="808"/>
      <point x="424" y="800" type="curve"/>
      <point x="439" y="766"/>
      <point x="457" y="712"/>
      <point x="461" y="676" type="curve"/>
      <point x="620" y="679"/>
      <point x="806" y="694"/>
    </contour>
    <contour>
      <point x="559" y="490" type="curve"/>
      <point x="559" y="801" type="line"/>
      <point x="424" y="801" type="line"/>
      <point x="424" y="491" type="line"/>
      <point x="424" y="343"/>
      <point x="414" y="114"/>
      <point x="325" y="-23" type="curve"/>
      <point x="358" y="-40"/>
      <point x="412" y="-80"/>
      <point x="437" y="-104" type="curve"/>
      <point x="545" y="54"/>
      <point x="559" y="312"/>
    </contour>
  </outline>
</glyph>
<glyph name="ety095_cid17455_H" format="1">
  <advance width="1000"/>
  <outline>
    <contour>
      <point x="462" y="450" type="curve"/>
      <point x="462" y="781" type="line"/>
      <point x="330" y="781" type="line"/>
      <point x="330" y="451" type="line"/>
      <point x="330" y="313"/>
      <point x="325" y="93"/>
      <point x="282" y="-41" type="curve"/>
      <point x="315" y="-56"/>
      <point x="368" y="-92"/>
      <point x="394" y="-114" type="curve"/>
      <point x="455" y="39"/>
      <point x="462" y="284"/>
    </contour>
    <contour>
      <point x="932" y="746" type="curve"/>
      <point x="826" y="852" type="line"/>
      <point x="703" y="821"/>
      <point x="506" y="795"/>
      <point x="330" y="782" type="curve"/>
      <point x="344" y="754"/>
      <point x="361" y="702"/>
      <point x="366" y="671" type="curve"/>
      <point x="550" y="682"/>
      <point x="765" y="706"/>
    </contour>
  </outline>
</glyph>
<glyph name="ety096_cid17814_H" format="1">
  <advance width="1000"/>
  <outline>
    <contour>
      <point x="958" y="763" type="curve"/>
      <point x="848" y="856" type="line"/>
      <point x="765" y="825"/>
      <point x="622" y="798"/>
      <point x="495" y="782" type="curve"/>
      <point x="509" y="756"/>
      <point x="526" y="709"/>
      <point x="531" y="681" type="curve"/>
      <point x="671" y="695"/>
      <point x="834" y="721"/>
    </contour>
    <contour>
      <point x="623" y="607" type="curve"/>
      <point x="623" y="781" type="line"/>
      <point x="495" y="781" type="line"/>
      <point x="495" y="610" type="line"/>
      <point x="495" y="523"/>
      <point x="479" y="435"/>
      <point x="365" y="373" type="curve"/>
      <point x="397" y="352"/>
      <point x="448" y="307"/>
      <point x="470" y="277" type="curve"/>
      <point x="604" y="358"/>
      <point x="623" y="484"/>
    </contour>
  </outline>
</glyph>
<glyph name="ety097_cid17963_EL" format="1">
  <advance width="1000"/>
  <outline>
    <contour>
      <point x="599" y="756" type="curve"/>
      <point x="571" y="777" type="line"/>
      <point x="522" y="759"/>
      <point x="428" y="739"/>
      <point x="350" y="728" type="curve"/>
      <point x="354" y="720"/>
      <point x="359" y="711"/>
      <point x="361" y="705" type="curve"/>
      <point x="442" y="716"/>
      <point x="536" y="733"/>
    </contour>
    <contour>
      <point x="379" y="363" type="curve"/>
      <point x="379" y="727" type="line"/>
      <point x="350" y="727" type="line"/>
      <point x="350" y="364" type="line"/>
      <point x="350" y="263"/>
      <point x="340" y="63"/>
      <point x="255" y="-53" type="curve"/>
      <point x="263" y="-59"/>
      <point x="274" y="-67"/>
      <point x="280" y="-73" type="curve"/>
      <point x="366" y="52"/>
      <point x="379" y="265"/>
    </contour>
  </outline>
</glyph>
<glyph name="ety098_cid17963_H" format="1">
  <advance width="1000"/>
  <outline>
    <contour>
      <point x="660" y="723" type="curve"/>
      <point x="558" y="827" type="line"/>
      <point x="503" y="799"/>
      <point x="417" y="771"/>
      <point x="339" y="753" type="curve"/>
      <point x="354" y="725"/>
      <point x="372" y="678"/>
      <point x="378" y="649" type="curve"/>
      <point x="467" y="663"/>
      <point x="573" y="688"/>
    </contour>
    <contour>
      <point x="455" y="343" type="curve"/>
      <point x="455" y="752" type="line"/>
      <point x="337" y="752" type="line"/>
      <point x="337" y="343" type="line"/>
      <point x="337" y="267"/>
      <point x="328" y="105"/>
      <point x="253" y="-22" type="curve"/>
      <point x="283" y="-39"/>
      <point x="332" y="-73"/>
      <point x="354" y="-98" type="curve"/>
      <point x="429" y="27"/>
      <point x="455" y="316"/>
    </contour>
  </outline>
</glyph>
<glyph name="ety099_cid17981_EL" format="1">
  <advance width="1000"/>
  <outline>
    <contour>
      <point x="933" y="790" type="curve"/>
      <point x="912" y="815" type="line"/>
      <point x="860" y="784"/>
      <point x="759" y="757"/>
      <point x="677" y="738" type="curve"/>
      <point x="682" y="729"/>
      <point x="687" y="719"/>
      <point x="689" y="713" type="curve"/>
      <point x="771" y="729"/>
      <point x="873" y="757"/>
    </contour>
    <contour>
      <point x="707" y="422" type="curve"/>
      <point x="707" y="737" type="line"/>
      <point x="677" y="737" type="line"/>
      <point x="677" y="422" type="line"/>
      <point x="677" y="255"/>
      <point x="667" y="85"/>
      <point x="574" y="-53" type="curve"/>
      <point x="582" y="-58"/>
      <point x="593" y="-65"/>
      <point x="598" y="-71" type="curve"/>
      <point x="693" y="76"/>
      <point x="707" y="240"/>
    </contour>
  </outline>
</glyph>
<glyph name="ety100_cid18441_EL" format="1">
  <advance width="1000"/>
  <outline>
    <contour>
      <point x="913" y="620" type="curve"/>
      <point x="885" y="641" type="line"/>
      <point x="846" y="621"/>
      <point x="771" y="598"/>
      <point x="710" y="584" type="curve"/>
      <point x="714" y="576"/>
      <point x="719" y="568"/>
      <point x="721" y="561" type="curve"/>
      <point x="785" y="574"/>
      <point x="862" y="595"/>
    </contour>
    <contour>
      <point x="708" y="350" type="curve"/>
      <point x="708" y="365"/>
      <point x="738" y="386"/>
      <point x="738" y="386" type="curve"/>
      <point x="738" y="575" type="line"/>
      <point x="709" y="584" type="line"/>
      <point x="709" y="432" type="line"/>
      <point x="709" y="395"/>
      <point x="699" y="385"/>
      <point x="691" y="380" type="curve"/>
      <point x="697" y="373"/>
      <point x="705" y="358"/>
    </contour>
  </outline>
</glyph>
<glyph name="ety102_cid18442_H" format="1">
  <advance width="1000"/>
  <outline>
    <contour>
      <point x="964" y="573" type="curve"/>
      <point x="886" y="640" type="line"/>
      <point x="851" y="617"/>
      <point x="790" y="593"/>
      <point x="736" y="577" type="curve"/>
      <point x="747" y="558"/>
      <point x="760" y="526"/>
      <point x="765" y="507" type="curve"/>
      <point x="829" y="521"/>
      <point x="905" y="543"/>
    </contour>
    <contour>
      <point x="744" y="331" type="curve"/>
      <point x="744" y="360"/>
      <point x="817" y="407"/>
      <point x="817" y="407" type="curve"/>
      <point x="817" y="552" type="line"/>
      <point x="735" y="576" type="line"/>
      <point x="735" y="470" type="line"/>
      <point x="735" y="428"/>
      <point x="722" y="410"/>
      <point x="709" y="401" type="curve"/>
      <point x="721" y="385"/>
      <point x="739" y="350"/>
    </contour>
  </outline>
</glyph>
<glyph name="ety103_cid18475_EL" format="1">
  <advance width="1000"/>
  <outline>
    <contour>
      <point x="498" y="810" type="curve"/>
      <point x="471" y="831" type="line"/>
      <point x="438" y="808"/>
      <point x="378" y="781"/>
      <point x="328" y="763" type="curve"/>
      <point x="331" y="755"/>
      <point x="337" y="746"/>
      <point x="339" y="739" type="curve"/>
      <point x="392" y="757"/>
      <point x="455" y="782"/>
    </contour>
    <contour>
      <point x="316" y="484" type="curve"/>
      <point x="316" y="498"/>
      <point x="356" y="518"/>
      <point x="356" y="518" type="curve"/>
      <point x="356" y="763" type="line"/>
      <point x="327" y="763" type="line"/>
      <point x="327" y="564" type="line"/>
      <point x="327" y="528"/>
      <point x="311" y="520"/>
      <point x="300" y="516" type="curve"/>
      <point x="306" y="507"/>
      <point x="313" y="493"/>
    </contour>
  </outline>
</glyph>
<glyph name="ety104_cid18475_H" format="1">
  <advance width="1000"/>
  <outline>
    <contour>
      <point x="538" y="782" type="curve"/>
      <point x="457" y="856" type="line"/>
      <point x="422" y="829"/>
      <point x="363" y="799"/>
      <point x="310" y="780" type="curve"/>
      <point x="322" y="759"/>
      <point x="336" y="725"/>
      <point x="342" y="704" type="curve"/>
      <point x="404" y="721"/>
      <point x="479" y="748"/>
    </contour>
    <contour>
      <point x="321" y="447" type="curve"/>
      <point x="321" y="478"/>
      <point x="402" y="523"/>
      <point x="402" y="523" type="curve"/>
      <point x="402" y="779" type="line"/>
      <point x="309" y="779" type="line"/>
      <point x="309" y="591" type="line"/>
      <point x="309" y="552"/>
      <point x="299" y="536"/>
      <point x="285" y="528" type="curve"/>
      <point x="298" y="510"/>
      <point x="316" y="469"/>
    </contour>
  </outline>
</glyph>
<glyph name="ety105_cid18640_EL" format="1">
  <advance width="1000"/>
  <outline>
    <contour>
      <point x="198" y="518" type="curve"/>
      <point x="198" y="780" type="line"/>
      <point x="169" y="780" type="line"/>
      <point x="169" y="517" type="line"/>
      <point x="169" y="364"/>
      <point x="165" y="121"/>
      <point x="52" y="-38" type="curve"/>
      <point x="60" y="-43"/>
      <point x="70" y="-52"/>
      <point x="75" y="-59" type="curve"/>
      <point x="191" y="112"/>
      <point x="198" y="357"/>
    </contour>
    <contour>
      <point x="842" y="804" type="curve"/>
      <point x="816" y="828" type="line"/>
      <point x="672" y="803"/>
      <point x="393" y="785"/>
      <point x="169" y="779" type="curve"/>
      <point x="173" y="771"/>
      <point x="177" y="761"/>
      <point x="178" y="753" type="curve"/>
      <point x="405" y="758"/>
      <point x="680" y="776"/>
    </contour>
  </outline>
</glyph>
<glyph name="ety106_cid18640_H" format="1">
  <advance width="1000"/>
  <outline>
    <contour>
      <point x="265" y="514" type="curve"/>
      <point x="265" y="810" type="line"/>
      <point x="118" y="810" type="line"/>
      <point x="118" y="514" type="line"/>
      <point x="118" y="374"/>
      <point x="111" y="143"/>
      <point x="16" y="11" type="curve"/>
      <point x="54" y="-13"/>
      <point x="107" y="-63"/>
      <point x="130" y="-94" type="curve"/>
      <point x="249" y="75"/>
      <point x="265" y="330"/>
    </contour>
    <contour>
      <point x="883" y="770" type="curve"/>
      <point x="803" y="861" type="line"/>
      <point x="636" y="831"/>
      <point x="359" y="813"/>
      <point x="118" y="809" type="curve"/>
      <point x="129" y="784"/>
      <point x="141" y="741"/>
      <point x="144" y="713" type="curve"/>
      <point x="388" y="716"/>
      <point x="676" y="733"/>
    </contour>
  </outline>
</glyph>
<glyph name="ety107_cid18747_EL" format="1">
  <advance width="1000"/>
  <outline>
    <contour>
      <point x="624" y="781" type="curve"/>
      <point x="596" y="803" type="line"/>
      <point x="550" y="775"/>
      <point x="461" y="745"/>
      <point x="386" y="724" type="curve"/>
      <point x="390" y="717"/>
      <point x="396" y="708"/>
      <point x="398" y="701" type="curve"/>
      <point x="475" y="721"/>
      <point x="565" y="751"/>
    </contour>
    <contour>
      <point x="371" y="87" type="curve"/>
      <point x="371" y="102"/>
      <point x="415" y="136"/>
      <point x="415" y="136" type="curve"/>
      <point x="415" y="723" type="line"/>
      <point x="385" y="723" type="line"/>
      <point x="385" y="182" type="line"/>
      <point x="385" y="142"/>
      <point x="364" y="123"/>
      <point x="352" y="115" type="curve"/>
      <point x="358" y="108"/>
      <point x="367" y="95"/>
    </contour>
  </outline>
</glyph>
<glyph name="ety108_cid18747_H" format="1">
  <advance width="1000"/>
  <outline>
    <contour>
      <point x="642" y="736" type="curve"/>
      <point x="551" y="843" type="line"/>
      <point x="496" y="812"/>
      <point x="415" y="774"/>
      <point x="342" y="749" type="curve"/>
      <point x="357" y="722"/>
      <point x="375" y="677"/>
      <point x="381" y="649" type="curve"/>
      <point x="462" y="671"/>
      <point x="558" y="702"/>
    </contour>
    <contour>
      <point x="350" y="42" type="curve"/>
      <point x="350" y="91"/>
      <point x="478" y="190"/>
      <point x="478" y="190" type="curve"/>
      <point x="478" y="748" type="line"/>
      <point x="342" y="748" type="line"/>
      <point x="342" y="259" type="line"/>
      <point x="342" y="203"/>
      <point x="306" y="160"/>
      <point x="279" y="140" type="curve"/>
      <point x="302" y="120"/>
      <point x="338" y="70"/>
    </contour>
  </outline>
</glyph>
<glyph name="ety109_cid19257_EL" format="1">
  <advance width="1000"/>
  <outline>
    <contour>
      <point x="416" y="418" type="curve"/>
      <point x="416" y="745" type="line"/>
      <point x="386" y="745" type="line"/>
      <point x="386" y="418" type="line"/>
      <point x="386" y="259"/>
      <point x="376" y="82"/>
      <point x="286" y="-62" type="curve"/>
      <point x="295" y="-65"/>
      <point x="306" y="-72"/>
      <point x="312" y="-78" type="curve"/>
      <point x="403" y="69"/>
      <point x="416" y="249"/>
    </contour>
    <contour>
      <point x="917" y="799" type="curve"/>
      <point x="888" y="821" type="line"/>
      <point x="780" y="786"/>
      <point x="563" y="760"/>
      <point x="386" y="744" type="curve"/>
      <point x="390" y="737"/>
      <point x="394" y="726"/>
      <point x="396" y="719" type="curve"/>
      <point x="575" y="733"/>
      <point x="792" y="760"/>
    </contour>
  </outline>
</glyph>
<glyph name="ety110_cid19396_H" format="1">
  <advance width="1000"/>
  <outline>
    <contour>
      <point x="927" y="738" type="curve"/>
      <point x="864" y="850" type="line"/>
      <point x="726" y="821"/>
      <point x="527" y="797"/>
      <point x="351" y="784" type="curve"/>
      <point x="364" y="755"/>
      <point x="381" y="710"/>
      <point x="385" y="679" type="curve"/>
      <point x="561" y="688"/>
      <point x="769" y="708"/>
    </contour>
    <contour>
      <point x="473" y="504" type="curve"/>
      <point x="473" y="784" type="line"/>
      <point x="350" y="784" type="line"/>
      <point x="350" y="505" type="line"/>
      <point x="350" y="350"/>
      <point x="343" y="135"/>
      <point x="251" y="-1" type="curve"/>
      <point x="278" y="-22"/>
      <point x="319" y="-72"/>
      <point x="337" y="-102" type="curve"/>
      <point x="462" y="57"/>
      <point x="473" y="315"/>
    </contour>
  </outline>
</glyph>
<glyph name="ety111_cid19737_EL" format="1">
  <advance width="1000"/>
  <outline>
    <contour>
      <point x="923" y="637" type="curve"/>
      <point x="896" y="659" type="line"/>
      <point x="857" y="638"/>
      <point x="782" y="616"/>
      <point x="721" y="602" type="curve"/>
      <point x="724" y="594"/>
      <point x="729" y="585"/>
      <point x="731" y="578" type="curve"/>
      <point x="796" y="592"/>
      <point x="872" y="613"/>
    </contour>
    <contour>
      <point x="749" y="602" type="line"/>
      <point x="720" y="602" type="line"/>
      <point x="720" y="459" type="line"/>
      <point x="720" y="421"/>
      <point x="709" y="407"/>
      <point x="701" y="402" type="curve"/>
      <point x="707" y="394"/>
      <point x="715" y="380"/>
      <point x="719" y="372" type="curve"/>
      <point x="749" y="413" type="line"/>
    </contour>
  </outline>
</glyph>
<glyph name="ety112_cid19737_H" format="1">
  <advance width="1000"/>
  <outline>
    <contour>
      <point x="960" y="603" type="curve"/>
      <point x="882" y="669" type="line"/>
      <point x="848" y="645"/>
      <point x="789" y="619"/>
      <point x="735" y="602" type="curve"/>
      <point x="746" y="583"/>
      <point x="760" y="551"/>
      <point x="765" y="532" type="curve"/>
      <point x="827" y="547"/>
      <point x="902" y="571"/>
    </contour>
    <contour>
      <point x="815" y="600" type="line"/>
      <point x="735" y="600" type="line"/>
      <point x="735" y="488" type="line"/>
      <point x="735" y="448"/>
      <point x="721" y="429"/>
      <point x="707" y="420" type="curve"/>
      <point x="720" y="401"/>
      <point x="738" y="359"/>
      <point x="744" y="339" type="curve"/>
      <point x="815" y="412" type="line"/>
    </contour>
  </outline>
</glyph>
<glyph name="ety113_cid20268_H" format="1">
  <advance width="1000"/>
  <outline>
    <contour>
      <point x="483" y="321" type="curve"/>
      <point x="391" y="439" type="line"/>
      <point x="316" y="411"/>
      <point x="207" y="382"/>
      <point x="108" y="364" type="curve"/>
      <point x="123" y="333"/>
      <point x="142" y="284"/>
      <point x="147" y="252" type="curve"/>
      <point x="253" y="266"/>
      <point x="378" y="290"/>
    </contour>
    <contour>
      <point x="108" y="-53" type="curve"/>
      <point x="108" y="-10"/>
      <point x="250" y="58"/>
      <point x="250" y="58" type="curve"/>
      <point x="250" y="363" type="line"/>
      <point x="108" y="363" type="line"/>
      <point x="108" y="143" type="line"/>
      <point x="108" y="99"/>
      <point x="80" y="75"/>
      <point x="56" y="63" type="curve"/>
      <point x="76" y="37"/>
      <point x="101" y="-21"/>
    </contour>
  </outline>
</glyph>
<glyph name="ety114_cid20293_EL" format="1">
  <advance width="1000"/>
  <outline>
    <contour>
      <point x="816" y="793" type="curve"/>
      <point x="796" y="818" type="line"/>
      <point x="661" y="791"/>
      <point x="397" y="769"/>
      <point x="191" y="759" type="curve"/>
      <point x="194" y="752"/>
      <point x="198" y="740"/>
      <point x="199" y="732" type="curve"/>
      <point x="408" y="741"/>
      <point x="668" y="764"/>
    </contour>
    <contour>
      <point x="162" y="346" type="curve"/>
      <point x="162" y="360"/>
      <point x="220" y="390"/>
      <point x="220" y="390" type="curve"/>
      <point x="220" y="750" type="line"/>
      <point x="190" y="759" type="line"/>
      <point x="190" y="435" type="line"/>
      <point x="190" y="398"/>
      <point x="160" y="381"/>
      <point x="145" y="376" type="curve"/>
      <point x="151" y="368"/>
      <point x="159" y="355"/>
    </contour>
  </outline>
</glyph>
<glyph name="ety115_cid20293_H" format="1">
  <advance width="1000"/>
  <outline>
    <contour>
      <point x="883" y="744" type="curve"/>
      <point x="825" y="856" type="line"/>
      <point x="644" y="826"/>
      <point x="371" y="808"/>
      <point x="131" y="803" type="curve"/>
      <point x="143" y="774"/>
      <point x="158" y="726"/>
      <point x="160" y="693" type="curve"/>
      <point x="397" y="695"/>
      <point x="678" y="710"/>
    </contour>
    <contour>
      <point x="107" y="330" type="curve"/>
      <point x="107" y="373"/>
      <point x="280" y="431"/>
      <point x="280" y="431" type="curve"/>
      <point x="280" y="779" type="line"/>
      <point x="131" y="804" type="line"/>
      <point x="131" y="509" type="line"/>
      <point x="131" y="465"/>
      <point x="92" y="447"/>
      <point x="65" y="438" type="curve"/>
      <point x="82" y="415"/>
      <point x="102" y="361"/>
    </contour>
  </outline>
</glyph>
<glyph name="ety116_cid20414_H" format="1">
  <advance width="1000"/>
  <outline>
    <contour>
      <point x="931" y="770" type="curve"/>
      <point x="826" y="856" type="line"/>
      <point x="747" y="827"/>
      <point x="611" y="802"/>
      <point x="489" y="787" type="curve"/>
      <point x="503" y="763"/>
      <point x="519" y="720"/>
      <point x="524" y="694" type="curve"/>
      <point x="657" y="707"/>
      <point x="813" y="731"/>
    </contour>
    <contour>
      <point x="616" y="633" type="curve"/>
      <point x="616" y="786" type="line"/>
      <point x="490" y="786" type="line"/>
      <point x="490" y="636" type="line"/>
      <point x="490" y="560"/>
      <point x="474" y="483"/>
      <point x="366" y="429" type="curve"/>
      <point x="398" y="409"/>
      <point x="447" y="365"/>
      <point x="469" y="337" type="curve"/>
      <point x="598" y="409"/>
      <point x="616" y="522"/>
    </contour>
  </outline>
</glyph>
<glyph name="ety118_cid20903_H" format="1">
  <advance width="1000"/>
  <outline>
    <contour>
      <point x="650" y="733" type="curve"/>
      <point x="566" y="836" type="line"/>
      <point x="513" y="805"/>
      <point x="434" y="767"/>
      <point x="365" y="742" type="curve"/>
      <point x="378" y="716"/>
      <point x="395" y="673"/>
      <point x="401" y="646" type="curve"/>
      <point x="478" y="669"/>
      <point x="571" y="699"/>
    </contour>
    <contour>
      <point x="494" y="741" type="line"/>
      <point x="364" y="741" type="line"/>
      <point x="364" y="247" type="line"/>
      <point x="364" y="206"/>
      <point x="339" y="182"/>
      <point x="316" y="170" type="curve"/>
      <point x="337" y="137"/>
      <point x="362" y="65"/>
      <point x="370" y="33" type="curve"/>
      <point x="494" y="138" type="line"/>
    </contour>
  </outline>
</glyph>
<glyph name="ety119_cid21034_H" format="1">
  <advance width="1000"/>
  <outline>
    <contour>
      <point x="953" y="738" type="curve"/>
      <point x="841" y="851" type="line"/>
      <point x="734" y="810"/>
      <point x="568" y="774"/>
      <point x="415" y="753" type="curve"/>
      <point x="431" y="723"/>
      <point x="451" y="669"/>
      <point x="457" y="636" type="curve"/>
      <point x="619" y="655"/>
      <point x="806" y="688"/>
    </contour>
    <contour>
      <point x="415" y="-101" type="curve"/>
      <point x="415" y="-57"/>
      <point x="550" y="-8"/>
      <point x="550" y="-8" type="curve"/>
      <point x="550" y="712" type="line"/>
      <point x="415" y="751" type="line"/>
      <point x="415" y="75" type="line"/>
      <point x="415" y="35"/>
      <point x="393" y="19"/>
      <point x="372" y="10" type="curve"/>
      <point x="390" y="-15"/>
      <point x="409" y="-69"/>
    </contour>
  </outline>
</glyph>
<glyph name="ety120_cid21035_H" format="1">
  <advance width="1000"/>
  <outline>
    <contour>
      <point x="952" y="747" type="curve"/>
      <point x="841" y="859" type="line"/>
      <point x="734" y="816"/>
      <point x="568" y="776"/>
      <point x="415" y="752" type="curve"/>
      <point x="431" y="722"/>
      <point x="451" y="669"/>
      <point x="458" y="636" type="curve"/>
      <point x="620" y="658"/>
      <point x="806" y="694"/>
    </contour>
    <contour>
      <point x="414" y="9" type="curve"/>
      <point x="414" y="54"/>
      <point x="549" y="113"/>
      <point x="549" y="113" type="curve"/>
      <point x="549" y="711" type="line"/>
      <point x="414" y="750" type="line"/>
      <point x="414" y="198" type="line"/>
      <point x="414" y="155"/>
      <point x="388" y="133"/>
      <point x="365" y="122" type="curve"/>
      <point x="384" y="97"/>
      <point x="407" y="41"/>
    </contour>
  </outline>
</glyph>
<glyph name="ety121_cid21081_H" format="1">
  <advance width="1000"/>
  <outline>
    <contour>
      <point x="967" y="742" type="curve"/>
      <point x="862" y="859" type="line"/>
      <point x="740" y="828"/>
      <point x="555" y="803"/>
      <point x="387" y="790" type="curve"/>
      <point x="402" y="759"/>
      <point x="420" y="705"/>
      <point x="425" y="671" type="curve"/>
      <point x="600" y="681"/>
      <point x="804" y="703"/>
    </contour>
    <contour>
      <point x="520" y="544" type="curve"/>
      <point x="520" y="789" type="line"/>
      <point x="387" y="789" type="line"/>
      <point x="387" y="544" type="line"/>
      <point x="387" y="370"/>
      <point x="379" y="161"/>
      <point x="294" y="-13" type="curve"/>
      <point x="330" y="-31"/>
      <point x="384" y="-73"/>
      <point x="411" y="-101" type="curve"/>
      <point x="510" y="101"/>
      <point x="520" y="345"/>
    </contour>
  </outline>
</glyph>
<glyph name="ety122_cid21431_EL" format="1">
  <advance width="1000"/>
  <outline>
    <contour>
      <point x="876" y="806" type="curve"/>
      <point x="852" y="830" type="line"/>
      <point x="752" y="806"/>
      <point x="556" y="788"/>
      <point x="400" y="779" type="curve"/>
      <point x="404" y="771"/>
      <point x="408" y="761"/>
      <point x="410" y="754" type="curve"/>
      <point x="568" y="761"/>
      <point x="763" y="779"/>
    </contour>
    <contour>
      <point x="387" y="360" type="curve"/>
      <point x="387" y="374"/>
      <point x="429" y="399"/>
      <point x="429" y="399" type="curve"/>
      <point x="429" y="775" type="line"/>
      <point x="400" y="780" type="line"/>
      <point x="400" y="445" type="line"/>
      <point x="400" y="408"/>
      <point x="381" y="395"/>
      <point x="371" y="390" type="curve"/>
      <point x="377" y="382"/>
      <point x="384" y="368"/>
    </contour>
  </outline>
</glyph>
<glyph name="ety123_cid21431_H" format="1">
  <advance width="1000"/>
  <outline>
    <contour>
      <point x="936" y="756" type="curve"/>
      <point x="851" y="857" type="line"/>
      <point x="738" y="827"/>
      <point x="556" y="807"/>
      <point x="395" y="799" type="curve"/>
      <point x="408" y="772"/>
      <point x="423" y="725"/>
      <point x="427" y="696" type="curve"/>
      <point x="594" y="701"/>
      <point x="791" y="719"/>
    </contour>
    <contour>
      <point x="394" y="331" type="curve"/>
      <point x="394" y="371"/>
      <point x="523" y="429"/>
      <point x="523" y="429" type="curve"/>
      <point x="523" y="773" type="line"/>
      <point x="394" y="799" type="line"/>
      <point x="394" y="503" type="line"/>
      <point x="394" y="461"/>
      <point x="371" y="442"/>
      <point x="350" y="432" type="curve"/>
      <point x="367" y="410"/>
      <point x="388" y="360"/>
    </contour>
  </outline>
</glyph>
<glyph name="ety124_cid21711_H" format="1">
  <advance width="1000"/>
  <outline>
    <contour>
      <point x="962" y="749" type="curve"/>
      <point x="866" y="851" type="line"/>
      <point x="751" y="821"/>
      <point x="572" y="795"/>
      <point x="412" y="779" type="curve"/>
      <point x="427" y="752"/>
      <point x="445" y="706"/>
      <point x="450" y="677" type="curve"/>
      <point x="616" y="689"/>
      <point x="812" y="713"/>
    </contour>
    <contour>
      <point x="545" y="452" type="curve"/>
      <point x="545" y="779" type="line"/>
      <point x="413" y="779" type="line"/>
      <point x="413" y="452" type="line"/>
      <point x="413" y="310"/>
      <point x="404" y="98"/>
      <point x="320" y="-34" type="curve"/>
      <point x="352" y="-49"/>
      <point x="405" y="-83"/>
      <point x="429" y="-105" type="curve"/>
      <point x="531" y="44"/>
      <point x="545" y="281"/>
    </contour>
  </outline>
</glyph>
<glyph name="ety125_cid22182_H" format="1">
  <advance width="1000"/>
  <outline>
    <contour>
      <point x="627" y="766" type="curve"/>
      <point x="544" y="850" type="line"/>
      <point x="502" y="834"/>
      <point x="429" y="809"/>
      <point x="379" y="799" type="curve"/>
      <point x="438" y="733" type="line"/>
      <point x="491" y="738"/>
      <point x="560" y="749"/>
    </contour>
    <contour>
      <point x="384" y="465" type="curve"/>
      <point x="384" y="494"/>
      <point x="484" y="530"/>
      <point x="484" y="530" type="curve"/>
      <point x="484" y="800" type="line"/>
      <point x="380" y="800" type="line"/>
      <point x="380" y="596" type="line"/>
      <point x="380" y="562"/>
      <point x="366" y="552"/>
      <point x="350" y="545" type="curve"/>
      <point x="364" y="527"/>
      <point x="380" y="487"/>
    </contour>
  </outline>
</glyph>
<glyph name="ety126_cid22335_EL" format="1">
  <advance width="1000"/>
  <outline>
    <contour>
      <point x="918" y="622" type="curve"/>
      <point x="891" y="644" type="line"/>
      <point x="852" y="623"/>
      <point x="777" y="601"/>
      <point x="716" y="587" type="curve"/>
      <point x="720" y="579"/>
      <point x="724" y="571"/>
      <point x="726" y="564" type="curve"/>
      <point x="791" y="577"/>
      <point x="868" y="598"/>
    </contour>
    <contour>
      <point x="744" y="587" type="line"/>
      <point x="715" y="587" type="line"/>
      <point x="715" y="444" type="line"/>
      <point x="715" y="406"/>
      <point x="704" y="392"/>
      <point x="696" y="387" type="curve"/>
      <point x="702" y="379"/>
      <point x="710" y="366"/>
      <point x="714" y="357" type="curve"/>
      <point x="744" y="398" type="line"/>
    </contour>
  </outline>
</glyph>
<glyph name="ety127_cid22335_H" format="1">
  <advance width="1000"/>
  <outline>
    <contour>
      <point x="974" y="572" type="curve"/>
      <point x="896" y="638" type="line"/>
      <point x="862" y="614"/>
      <point x="803" y="588"/>
      <point x="749" y="571" type="curve"/>
      <point x="760" y="552"/>
      <point x="774" y="520"/>
      <point x="779" y="501" type="curve"/>
      <point x="841" y="516"/>
      <point x="916" y="540"/>
    </contour>
    <contour>
      <point x="829" y="570" type="line"/>
      <point x="749" y="570" type="line"/>
      <point x="749" y="484" type="line"/>
      <point x="749" y="444"/>
      <point x="735" y="425"/>
      <point x="721" y="416" type="curve"/>
      <point x="734" y="397"/>
      <point x="752" y="356"/>
      <point x="758" y="335" type="curve"/>
      <point x="829" y="408" type="line"/>
    </contour>
  </outline>
</glyph>
<glyph name="ety128_cid22732_EL" format="1">
  <advance width="1000"/>
  <outline>
    <contour>
      <point x="918" y="806" type="curve"/>
      <point x="894" y="830" type="line"/>
      <point x="794" y="806"/>
      <point x="598" y="788"/>
      <point x="442" y="779" type="curve"/>
      <point x="446" y="771"/>
      <point x="450" y="761"/>
      <point x="452" y="754" type="curve"/>
      <point x="610" y="761"/>
      <point x="805" y="779"/>
    </contour>
    <contour>
      <point x="429" y="360" type="curve"/>
      <point x="429" y="374"/>
      <point x="472" y="399"/>
      <point x="472" y="399" type="curve"/>
      <point x="472" y="775" type="line"/>
      <point x="442" y="780" type="line"/>
      <point x="442" y="445" type="line"/>
      <point x="442" y="408"/>
      <point x="424" y="395"/>
      <point x="413" y="390" type="curve"/>
      <point x="419" y="382"/>
      <point x="427" y="368"/>
    </contour>
  </outline>
</glyph>
<glyph name="ety129_cid22732_H" format="1">
  <advance width="1000"/>
  <outline>
    <contour>
      <point x="963" y="756" type="curve"/>
      <point x="878" y="857" type="line"/>
      <point x="765" y="827"/>
      <point x="583" y="807"/>
      <point x="422" y="799" type="curve"/>
      <point x="435" y="772"/>
      <point x="450" y="725"/>
      <point x="454" y="696" type="curve"/>
      <point x="621" y="701"/>
      <point x="818" y="719"/>
    </contour>
    <contour>
      <point x="421" y="331" type="curve"/>
      <point x="421" y="371"/>
      <point x="550" y="429"/>
      <point x="550" y="429" type="curve"/>
      <point x="550" y="773" type="line"/>
      <point x="421" y="799" type="line"/>
      <point x="421" y="503" type="line"/>
      <point x="421" y="461"/>
      <point x="398" y="442"/>
      <point x="377" y="432" type="curve"/>
      <point x="394" y="410"/>
      <point x="415" y="360"/>
    </contour>
  </outline>
</glyph>
<glyph name="ety131_cid22958_H" format="1">
  <advance width="1000"/>
  <outline>
    <contour>
      <point x="890" y="719" type="curve"/>
      <point x="816" y="851" type="line"/>
      <point x="639" y="804"/>
      <point x="389" y="772"/>
      <point x="155" y="758" type="curve"/>
      <point x="171" y="723"/>
      <point x="189" y="667"/>
      <point x="193" y="628" type="curve"/>
      <point x="424" y="640"/>
      <point x="686" y="667"/>
    </contour>
    <contour>
      <point x="165" y="-84" type="curve"/>
      <point x="165" y="-33"/>
      <point x="303" y="40"/>
      <point x="303" y="40" type="curve"/>
      <point x="303" y="757" type="line"/>
      <point x="155" y="757" type="line"/>
      <point x="155" y="124" type="line"/>
      <point x="155" y="78"/>
      <point x="130" y="49"/>
      <point x="106" y="34" type="curve"/>
      <point x="127" y="9"/>
      <point x="156" y="-50"/>
    </contour>
  </outline>
</glyph>
<glyph name="ety132_cid22965_EL" format="1">
  <advance width="1000"/>
  <outline>
    <contour>
      <point x="802" y="793" type="curve"/>
      <point x="782" y="818" type="line"/>
      <point x="647" y="791"/>
      <point x="383" y="769"/>
      <point x="178" y="759" type="curve"/>
      <point x="181" y="752"/>
      <point x="184" y="740"/>
      <point x="185" y="732" type="curve"/>
      <point x="394" y="741"/>
      <point x="654" y="764"/>
    </contour>
    <contour>
      <point x="164" y="318" type="curve"/>
      <point x="164" y="332"/>
      <point x="206" y="362"/>
      <point x="206" y="362" type="curve"/>
      <point x="206" y="759" type="line"/>
      <point x="177" y="759" type="line"/>
      <point x="177" y="407" type="line"/>
      <point x="177" y="369"/>
      <point x="157" y="353"/>
      <point x="146" y="347" type="curve"/>
      <point x="152" y="339"/>
      <point x="161" y="326"/>
    </contour>
  </outline>
</glyph>
<glyph name="ety133_cid22965_H" format="1">
  <advance width="1000"/>
  <outline>
    <contour>
      <point x="854" y="746" type="curve"/>
      <point x="795" y="855" type="line"/>
      <point x="623" y="826"/>
      <point x="363" y="808"/>
      <point x="135" y="803" type="curve"/>
      <point x="147" y="775"/>
      <point x="161" y="728"/>
      <point x="163" y="696" type="curve"/>
      <point x="390" y="698"/>
      <point x="658" y="713"/>
    </contour>
    <contour>
      <point x="144" y="288" type="curve"/>
      <point x="144" y="336"/>
      <point x="279" y="420"/>
      <point x="279" y="420" type="curve"/>
      <point x="279" y="804" type="line"/>
      <point x="135" y="804" type="line"/>
      <point x="135" y="499" type="line"/>
      <point x="135" y="449"/>
      <point x="105" y="416"/>
      <point x="81" y="400" type="curve"/>
      <point x="103" y="376"/>
      <point x="134" y="320"/>
    </contour>
  </outline>
</glyph>
<glyph name="ety134_cid23090_H" format="1">
  <advance width="1000"/>
  <outline>
    <contour>
      <point x="935" y="728" type="curve"/>
      <point x="838" y="847" type="line"/>
      <point x="718" y="810"/>
      <point x="540" y="774"/>
      <point x="378" y="753" type="curve"/>
      <point x="394" y="722"/>
      <point x="413" y="669"/>
      <point x="418" y="636" type="curve"/>
      <point x="586" y="655"/>
      <point x="779" y="686"/>
    </contour>
    <contour>
      <point x="517" y="752" type="line"/>
      <point x="378" y="752" type="line"/>
      <point x="378" y="137" type="line"/>
      <point x="378" y="91"/>
      <point x="332" y="48"/>
      <point x="303" y="31" type="curve"/>
      <point x="327" y="1"/>
      <point x="363" y="-65"/>
      <point x="376" y="-99" type="curve"/>
      <point x="517" y="36" type="line"/>
    </contour>
  </outline>
</glyph>
<glyph name="ety135_cid23269_H" format="1">
  <advance width="1000"/>
  <outline>
    <contour>
      <point x="955" y="744" type="curve"/>
      <point x="845" y="859" type="line"/>
      <point x="720" y="815"/>
      <point x="526" y="776"/>
      <point x="348" y="755" type="curve"/>
      <point x="364" y="724"/>
      <point x="384" y="669"/>
      <point x="389" y="635" type="curve"/>
      <point x="575" y="655"/>
      <point x="788" y="690"/>
    </contour>
    <contour>
      <point x="348" y="-31" type="curve"/>
      <point x="348" y="17"/>
      <point x="492" y="80"/>
      <point x="492" y="80" type="curve"/>
      <point x="492" y="713" type="line"/>
      <point x="347" y="754" type="line"/>
      <point x="347" y="167" type="line"/>
      <point x="347" y="124"/>
      <point x="320" y="101"/>
      <point x="296" y="89" type="curve"/>
      <point x="316" y="62"/>
      <point x="341" y="3"/>
    </contour>
  </outline>
</glyph>
<glyph name="ety136_cid23336_EL" format="1">
  <advance width="1000"/>
  <outline>
    <contour>
      <point x="898" y="791" type="curve"/>
      <point x="873" y="816" type="line"/>
      <point x="770" y="789"/>
      <point x="573" y="767"/>
      <point x="413" y="753" type="curve"/>
      <point x="417" y="746"/>
      <point x="421" y="735"/>
      <point x="423" y="727" type="curve"/>
      <point x="584" y="739"/>
      <point x="781" y="763"/>
    </contour>
    <contour>
      <point x="440" y="365" type="curve"/>
      <point x="440" y="754" type="line"/>
      <point x="411" y="754" type="line"/>
      <point x="411" y="364" type="line"/>
      <point x="411" y="214"/>
      <point x="397" y="64"/>
      <point x="292" y="-52" type="curve"/>
      <point x="300" y="-56"/>
      <point x="311" y="-64"/>
      <point x="317" y="-69" type="curve"/>
      <point x="425" y="51"/>
      <point x="440" y="203"/>
    </contour>
  </outline>
</glyph>
<glyph name="ety138_cid23601_EL" format="1">
  <advance width="1000"/>
  <outline>
    <contour>
      <point x="914" y="805" type="curve"/>
      <point x="890" y="829" type="line"/>
      <point x="772" y="803"/>
      <point x="542" y="784"/>
      <point x="360" y="775" type="curve"/>
      <point x="363" y="768"/>
      <point x="368" y="758"/>
      <point x="369" y="750" type="curve"/>
      <point x="554" y="757"/>
      <point x="782" y="776"/>
    </contour>
    <contour>
      <point x="347" y="364" type="curve"/>
      <point x="347" y="377"/>
      <point x="389" y="403"/>
      <point x="389" y="403" type="curve"/>
      <point x="389" y="770" type="line"/>
      <point x="360" y="776" type="line"/>
      <point x="360" y="449" type="line"/>
      <point x="360" y="412"/>
      <point x="341" y="399"/>
      <point x="330" y="394" type="curve"/>
      <point x="336" y="386"/>
      <point x="344" y="372"/>
    </contour>
  </outline>
</glyph>
<glyph name="ety139_cid23752_H" format="1">
  <advance width="1000"/>
  <outline>
    <contour>
      <point x="969" y="723" type="curve"/>
      <point x="886" y="846" type="line"/>
      <point x="820" y="814"/>
      <point x="727" y="784"/>
      <point x="641" y="765" type="curve"/>
      <point x="656" y="733"/>
      <point x="674" y="684"/>
      <point x="680" y="652" type="curve"/>
      <point x="772" y="666"/>
      <point x="878" y="688"/>
    </contour>
    <contour>
      <point x="763" y="407" type="curve"/>
      <point x="763" y="766" type="line"/>
      <point x="640" y="766" type="line"/>
      <point x="640" y="408" type="line"/>
      <point x="640" y="266"/>
      <point x="633" y="121"/>
      <point x="579" y="-16" type="curve"/>
      <point x="611" y="-37"/>
      <point x="654" y="-71"/>
      <point x="677" y="-99" type="curve"/>
      <point x="750" y="56"/>
      <point x="763" y="226"/>
    </contour>
  </outline>
</glyph>
<glyph name="ety140_cid24133_EL" format="1">
  <advance width="1000"/>
  <outline>
    <contour>
      <point x="370" y="546" type="curve"/>
      <point x="370" y="750" type="line"/>
      <point x="340" y="750" type="line"/>
      <point x="340" y="546" type="line"/>
      <point x="340" y="388"/>
      <point x="336" y="137"/>
      <point x="224" y="-44" type="curve"/>
      <point x="231" y="-49"/>
      <point x="242" y="-58"/>
      <point x="247" y="-65" type="curve"/>
      <point x="363" y="129"/>
      <point x="370" y="381"/>
    </contour>
    <contour>
      <point x="904" y="778" type="curve"/>
      <point x="879" y="803" type="line"/>
      <point x="759" y="777"/>
      <point x="526" y="758"/>
      <point x="340" y="749" type="curve"/>
      <point x="344" y="742"/>
      <point x="348" y="730"/>
      <point x="349" y="723" type="curve"/>
      <point x="538" y="731"/>
      <point x="769" y="751"/>
    </contour>
  </outline>
</glyph>
<glyph name="ety141_cid24572_EL" format="1">
  <advance width="1000"/>
  <outline>
    <contour>
      <point x="889" y="618" type="curve"/>
      <point x="862" y="639" type="line"/>
      <point x="822" y="619"/>
      <point x="748" y="596"/>
      <point x="686" y="582" type="curve"/>
      <point x="690" y="574"/>
      <point x="695" y="566"/>
      <point x="697" y="559" type="curve"/>
      <point x="762" y="572"/>
      <point x="838" y="593"/>
    </contour>
    <contour>
      <point x="715" y="582" type="line"/>
      <point x="685" y="582" type="line"/>
      <point x="685" y="439" type="line"/>
      <point x="685" y="401"/>
      <point x="674" y="387"/>
      <point x="667" y="382" type="curve"/>
      <point x="672" y="375"/>
      <point x="680" y="361"/>
      <point x="684" y="352" type="curve"/>
      <point x="715" y="393" type="line"/>
    </contour>
  </outline>
</glyph>
<glyph name="ety142_cid24573_EL" format="1">
  <advance width="1000"/>
  <outline>
    <contour>
      <point x="909" y="645" type="curve"/>
      <point x="881" y="667" type="line"/>
      <point x="842" y="646"/>
      <point x="768" y="623"/>
      <point x="706" y="610" type="curve"/>
      <point x="710" y="602"/>
      <point x="715" y="593"/>
      <point x="717" y="586" type="curve"/>
      <point x="781" y="600"/>
      <point x="858" y="621"/>
    </contour>
    <contour>
      <point x="734" y="610" type="line"/>
      <point x="705" y="610" type="line"/>
      <point x="705" y="467" type="line"/>
      <point x="705" y="428"/>
      <point x="694" y="415"/>
      <point x="686" y="410" type="curve"/>
      <point x="692" y="402"/>
      <point x="700" y="388"/>
      <point x="704" y="379" type="curve"/>
      <point x="734" y="421" type="line"/>
    </contour>
  </outline>
</glyph>
<glyph name="ety143_cid24573_H" format="1">
  <advance width="1000"/>
  <outline>
    <contour>
      <point x="958" y="595" type="curve"/>
      <point x="877" y="664" type="line"/>
      <point x="837" y="639"/>
      <point x="767" y="613"/>
      <point x="705" y="596" type="curve"/>
      <point x="716" y="576"/>
      <point x="730" y="543"/>
      <point x="735" y="523" type="curve"/>
      <point x="807" y="538"/>
      <point x="893" y="562"/>
    </contour>
    <contour>
      <point x="790" y="595" type="line"/>
      <point x="705" y="595" type="line"/>
      <point x="705" y="489" type="line"/>
      <point x="705" y="448"/>
      <point x="690" y="429"/>
      <point x="676" y="419" type="curve"/>
      <point x="690" y="399"/>
      <point x="708" y="356"/>
      <point x="715" y="334" type="curve"/>
      <point x="790" y="410" type="line"/>
    </contour>
  </outline>
</glyph>
<glyph name="ety144_cid24664_EL" format="1">
  <advance width="1000"/>
  <outline>
    <contour>
      <point x="452" y="810" type="curve"/>
      <point x="425" y="831" type="line"/>
      <point x="392" y="808"/>
      <point x="332" y="781"/>
      <point x="281" y="763" type="curve"/>
      <point x="285" y="755"/>
      <point x="291" y="746"/>
      <point x="293" y="739" type="curve"/>
      <point x="346" y="757"/>
      <point x="409" y="782"/>
    </contour>
    <contour>
      <point x="270" y="484" type="curve"/>
      <point x="270" y="498"/>
      <point x="310" y="518"/>
      <point x="310" y="518" type="curve"/>
      <point x="310" y="763" type="line"/>
      <point x="280" y="763" type="line"/>
      <point x="280" y="564" type="line"/>
      <point x="280" y="528"/>
      <point x="265" y="520"/>
      <point x="254" y="516" type="curve"/>
      <point x="260" y="507"/>
      <point x="267" y="493"/>
    </contour>
  </outline>
</glyph>
<glyph name="ety145_cid25097_EL" format="1">
  <advance width="1000"/>
  <outline>
    <contour>
      <point x="882" y="797" type="curve"/>
      <point x="856" y="820" type="line"/>
      <point x="779" y="793"/>
      <point x="634" y="767"/>
      <point x="514" y="749" type="curve"/>
      <point x="519" y="742"/>
      <point x="524" y="731"/>
      <point x="525" y="724" type="curve"/>
      <point x="647" y="740"/>
      <point x="792" y="767"/>
    </contour>
    <contour>
      <point x="543" y="627" type="curve"/>
      <point x="543" y="748" type="line"/>
      <point x="514" y="748" type="line"/>
      <point x="514" y="627" type="line"/>
      <point x="514" y="536"/>
      <point x="502" y="435"/>
      <point x="397" y="359" type="curve"/>
      <point x="405" y="354"/>
      <point x="415" y="344"/>
      <point x="419" y="337" type="curve"/>
      <point x="529" y="420"/>
      <point x="543" y="525"/>
    </contour>
  </outline>
</glyph>
<glyph name="ety146_cid25097_H" format="1">
  <advance width="1000"/>
  <outline>
    <contour>
      <point x="931" y="767" type="curve"/>
      <point x="826" y="856" type="line"/>
      <point x="747" y="826"/>
      <point x="611" y="800"/>
      <point x="489" y="785" type="curve"/>
      <point x="503" y="760"/>
      <point x="519" y="715"/>
      <point x="524" y="688" type="curve"/>
      <point x="657" y="702"/>
      <point x="813" y="727"/>
    </contour>
    <contour>
      <point x="616" y="631" type="curve"/>
      <point x="616" y="784" type="line"/>
      <point x="490" y="784" type="line"/>
      <point x="490" y="634" type="line"/>
      <point x="490" y="557"/>
      <point x="474" y="480"/>
      <point x="361" y="428" type="curve"/>
      <point x="393" y="407"/>
      <point x="442" y="361"/>
      <point x="464" y="332" type="curve"/>
      <point x="597" y="403"/>
      <point x="616" y="518"/>
    </contour>
  </outline>
</glyph>
<glyph name="ety147_cid25153_EL" format="1">
  <advance width="1000"/>
  <outline>
    <contour>
      <point x="885" y="785" type="curve"/>
      <point x="859" y="809" type="line"/>
      <point x="779" y="781"/>
      <point x="626" y="754"/>
      <point x="501" y="737" type="curve"/>
      <point x="505" y="729"/>
      <point x="510" y="719"/>
      <point x="512" y="712" type="curve"/>
      <point x="639" y="728"/>
      <point x="791" y="755"/>
    </contour>
    <contour>
      <point x="529" y="583" type="curve"/>
      <point x="529" y="736" type="line"/>
      <point x="500" y="736" type="line"/>
      <point x="500" y="583" type="line"/>
      <point x="500" y="469"/>
      <point x="488" y="340"/>
      <point x="378" y="239" type="curve"/>
      <point x="386" y="235"/>
      <point x="396" y="227"/>
      <point x="401" y="220" type="curve"/>
      <point x="516" y="326"/>
      <point x="529" y="458"/>
    </contour>
  </outline>
</glyph>
<glyph name="ety148_cid25153_H" format="1">
  <advance width="1000"/>
  <outline>
    <contour>
      <point x="958" y="763" type="curve"/>
      <point x="848" y="856" type="line"/>
      <point x="765" y="825"/>
      <point x="622" y="798"/>
      <point x="495" y="782" type="curve"/>
      <point x="509" y="756"/>
      <point x="526" y="709"/>
      <point x="531" y="681" type="curve"/>
      <point x="671" y="695"/>
      <point x="834" y="721"/>
    </contour>
    <contour>
      <point x="620" y="566" type="curve"/>
      <point x="620" y="781" type="line"/>
      <point x="495" y="781" type="line"/>
      <point x="495" y="568" type="line"/>
      <point x="495" y="461"/>
      <point x="480" y="352"/>
      <point x="365" y="273" type="curve"/>
      <point x="397" y="253"/>
      <point x="447" y="209"/>
      <point x="469" y="182" type="curve"/>
      <point x="602" y="280"/>
      <point x="620" y="426"/>
    </contour>
  </outline>
</glyph>
<glyph name="ety152_cid25369_EL" format="1">
  <advance width="1000"/>
  <outline>
    <contour>
      <point x="867" y="784" type="curve"/>
      <point x="849" y="811" type="line"/>
      <point x="747" y="782"/>
      <point x="547" y="760"/>
      <point x="392" y="748" type="curve"/>
      <point x="396" y="740"/>
      <point x="401" y="729"/>
      <point x="402" y="721" type="curve"/>
      <point x="558" y="732"/>
      <point x="756" y="755"/>
    </contour>
    <contour>
      <point x="422" y="422" type="curve"/>
      <point x="422" y="747" type="line"/>
      <point x="392" y="747" type="line"/>
      <point x="392" y="422" type="line"/>
      <point x="392" y="266"/>
      <point x="382" y="90"/>
      <point x="301" y="-52" type="curve"/>
      <point x="310" y="-56"/>
      <point x="321" y="-63"/>
      <point x="328" y="-68" type="curve"/>
      <point x="410" y="78"/>
      <point x="422" y="256"/>
    </contour>
  </outline>
</glyph>
<glyph name="ety153_cid25465_EL" format="1">
  <advance width="1000"/>
  <outline>
    <contour>
      <point x="422" y="546" type="curve"/>
      <point x="422" y="750" type="line"/>
      <point x="392" y="750" type="line"/>
      <point x="392" y="546" type="line"/>
      <point x="392" y="388"/>
      <point x="388" y="137"/>
      <point x="276" y="-44" type="curve"/>
      <point x="283" y="-49"/>
      <point x="294" y="-58"/>
      <point x="299" y="-65" type="curve"/>
      <point x="415" y="129"/>
      <point x="422" y="381"/>
    </contour>
    <contour>
      <point x="902" y="776" type="curve"/>
      <point x="877" y="801" type="line"/>
      <point x="769" y="777"/>
      <point x="560" y="758"/>
      <point x="392" y="749" type="curve"/>
      <point x="396" y="741"/>
      <point x="400" y="730"/>
      <point x="401" y="723" type="curve"/>
      <point x="572" y="731"/>
      <point x="779" y="750"/>
    </contour>
  </outline>
</glyph>
<glyph name="ety155_cid25791_H" format="1">
  <advance width="1000"/>
  <outline>
    <contour>
      <point x="972" y="724" type="curve"/>
      <point x="893" y="852" type="line"/>
      <point x="779" y="826"/>
      <point x="620" y="808"/>
      <point x="473" y="799" type="curve"/>
      <point x="487" y="766"/>
      <point x="505" y="712"/>
      <point x="509" y="677" type="curve"/>
      <point x="658" y="680"/>
      <point x="832" y="695"/>
    </contour>
    <contour>
      <point x="611" y="468" type="curve"/>
      <point x="611" y="800" type="line"/>
      <point x="473" y="800" type="line"/>
      <point x="473" y="468" type="line"/>
      <point x="473" y="327"/>
      <point x="465" y="105"/>
      <point x="393" y="-27" type="curve"/>
      <point x="427" y="-44"/>
      <point x="482" y="-84"/>
      <point x="508" y="-109" type="curve"/>
      <point x="599" y="43"/>
      <point x="611" y="294"/>
    </contour>
  </outline>
</glyph>
<glyph name="ety156_cid25793_EL" format="1">
  <advance width="1000"/>
  <outline>
    <contour>
      <point x="520" y="399" type="curve"/>
      <point x="520" y="754" type="line"/>
      <point x="490" y="754" type="line"/>
      <point x="490" y="399" type="line"/>
      <point x="490" y="247"/>
      <point x="481" y="81"/>
      <point x="412" y="-53" type="curve"/>
      <point x="421" y="-57"/>
      <point x="431" y="-65"/>
      <point x="437" y="-69" type="curve"/>
      <point x="509" y="69"/>
      <point x="520" y="237"/>
    </contour>
    <contour>
      <point x="933" y="785" type="curve"/>
      <point x="906" y="809" type="line"/>
      <point x="814" y="785"/>
      <point x="635" y="766"/>
      <point x="490" y="756" type="curve"/>
      <point x="494" y="748"/>
      <point x="499" y="737"/>
      <point x="501" y="730" type="curve"/>
      <point x="648" y="739"/>
      <point x="825" y="759"/>
    </contour>
  </outline>
</glyph>
<glyph name="ety157_cid25793_H" format="1">
  <advance width="1000"/>
  <outline>
    <contour>
      <point x="599" y="436" type="curve"/>
      <point x="599" y="791" type="line"/>
      <point x="469" y="791" type="line"/>
      <point x="469" y="437" type="line"/>
      <point x="469" y="300"/>
      <point x="460" y="96"/>
      <point x="385" y="-25" type="curve"/>
      <point x="416" y="-41"/>
      <point x="467" y="-79"/>
      <point x="491" y="-103" type="curve"/>
      <point x="586" y="37"/>
      <point x="599" y="267"/>
    </contour>
    <contour>
      <point x="975" y="736" type="curve"/>
      <point x="873" y="855" type="line"/>
      <point x="769" y="826"/>
      <point x="613" y="803"/>
      <point x="469" y="792" type="curve"/>
      <point x="485" y="760"/>
      <point x="503" y="705"/>
      <point x="508" y="671" type="curve"/>
      <point x="659" y="679"/>
      <point x="835" y="699"/>
    </contour>
  </outline>
</glyph>
<glyph name="ety159_cid25872_EL" format="1">
  <advance width="1000"/>
  <outline>
    <contour>
      <point x="877" y="793" type="curve"/>
      <point x="847" y="815" type="line"/>
      <point x="755" y="776"/>
      <point x="576" y="738"/>
      <point x="426" y="712" type="curve"/>
      <point x="429" y="705"/>
      <point x="434" y="695"/>
      <point x="436" y="688" type="curve"/>
      <point x="591" y="714"/>
      <point x="768" y="751"/>
    </contour>
    <contour>
      <point x="400" y="-2" type="curve"/>
      <point x="400" y="11"/>
      <point x="455" y="37"/>
      <point x="455" y="37" type="curve"/>
      <point x="455" y="702" type="line"/>
      <point x="426" y="711" type="line"/>
      <point x="426" y="83" type="line"/>
      <point x="426" y="47"/>
      <point x="398" y="33"/>
      <point x="384" y="29" type="curve"/>
      <point x="389" y="20"/>
      <point x="397" y="6"/>
    </contour>
  </outline>
</glyph>
<glyph name="ety160_cid25872_H" format="1">
  <advance width="1000"/>
  <outline>
    <contour>
      <point x="949" y="748" type="curve"/>
      <point x="841" y="857" type="line"/>
      <point x="735" y="815"/>
      <point x="568" y="777"/>
      <point x="415" y="755" type="curve"/>
      <point x="431" y="725"/>
      <point x="450" y="674"/>
      <point x="456" y="642" type="curve"/>
      <point x="618" y="662"/>
      <point x="804" y="697"/>
    </contour>
    <contour>
      <point x="415" y="5" type="curve"/>
      <point x="415" y="50"/>
      <point x="550" y="109"/>
      <point x="550" y="109" type="curve"/>
      <point x="550" y="714" type="line"/>
      <point x="415" y="753" type="line"/>
      <point x="415" y="194" type="line"/>
      <point x="415" y="151"/>
      <point x="389" y="129"/>
      <point x="366" y="118" type="curve"/>
      <point x="385" y="93"/>
      <point x="408" y="37"/>
    </contour>
  </outline>
</glyph>
<glyph name="ety161_cid26528_EL" format="1">
  <advance width="1000"/>
  <outline>
    <contour>
      <point x="911" y="806" type="curve"/>
      <point x="886" y="830" type="line"/>
      <point x="786" y="806"/>
      <point x="590" y="788"/>
      <point x="434" y="779" type="curve"/>
      <point x="438" y="771"/>
      <point x="442" y="761"/>
      <point x="444" y="754" type="curve"/>
      <point x="602" y="761"/>
      <point x="797" y="779"/>
    </contour>
    <contour>
      <point x="422" y="360" type="curve"/>
      <point x="422" y="374"/>
      <point x="464" y="399"/>
      <point x="464" y="399" type="curve"/>
      <point x="464" y="775" type="line"/>
      <point x="434" y="780" type="line"/>
      <point x="434" y="445" type="line"/>
      <point x="434" y="408"/>
      <point x="416" y="395"/>
      <point x="405" y="390" type="curve"/>
      <point x="411" y="382"/>
      <point x="419" y="368"/>
    </contour>
  </outline>
</glyph>
<glyph name="ety162_cid26528_H" format="1">
  <advance width="1000"/>
  <outline>
    <contour>
      <point x="952" y="756" type="curve"/>
      <point x="867" y="857" type="line"/>
      <point x="754" y="827"/>
      <point x="572" y="807"/>
      <point x="411" y="799" type="curve"/>
      <point x="424" y="772"/>
      <point x="439" y="725"/>
      <point x="443" y="696" type="curve"/>
      <point x="610" y="701"/>
      <point x="807" y="719"/>
    </contour>
    <contour>
      <point x="410" y="331" type="curve"/>
      <point x="410" y="371"/>
      <point x="539" y="429"/>
      <point x="539" y="429" type="curve"/>
      <point x="539" y="773" type="line"/>
      <point x="410" y="799" type="line"/>
      <point x="410" y="503" type="line"/>
      <point x="410" y="461"/>
      <point x="387" y="442"/>
      <point x="366" y="432" type="curve"/>
      <point x="383" y="410"/>
      <point x="404" y="360"/>
    </contour>
  </outline>
</glyph>
<glyph name="ety164_cid26829_H" format="1">
  <advance width="1000"/>
  <outline>
    <contour>
      <point x="974" y="573" type="curve"/>
      <point x="896" y="639" type="line"/>
      <point x="862" y="615"/>
      <point x="803" y="589"/>
      <point x="749" y="572" type="curve"/>
      <point x="760" y="553"/>
      <point x="774" y="521"/>
      <point x="779" y="502" type="curve"/>
      <point x="841" y="517"/>
      <point x="916" y="541"/>
    </contour>
    <contour>
      <point x="829" y="570" type="line"/>
      <point x="749" y="570" type="line"/>
      <point x="749" y="484" type="line"/>
      <point x="749" y="444"/>
      <point x="735" y="425"/>
      <point x="721" y="416" type="curve"/>
      <point x="734" y="397"/>
      <point x="752" y="356"/>
      <point x="758" y="335" type="curve"/>
      <point x="829" y="408" type="line"/>
    </contour>
  </outline>
</glyph>
<glyph name="ety168_cid27110_H" format="1">
  <advance width="1000"/>
  <outline>
    <contour>
      <point x="970" y="728" type="curve"/>
      <point x="893" y="852" type="line"/>
      <point x="780" y="826"/>
      <point x="619" y="808"/>
      <point x="473" y="799" type="curve"/>
      <point x="487" y="767"/>
      <point x="504" y="715"/>
      <point x="508" y="680" type="curve"/>
      <point x="657" y="684"/>
      <point x="831" y="698"/>
    </contour>
    <contour>
      <point x="609" y="468" type="curve"/>
      <point x="609" y="800" type="line"/>
      <point x="473" y="800" type="line"/>
      <point x="473" y="469" type="line"/>
      <point x="473" y="327"/>
      <point x="465" y="105"/>
      <point x="393" y="-27" type="curve"/>
      <point x="427" y="-43"/>
      <point x="481" y="-82"/>
      <point x="506" y="-107" type="curve"/>
      <point x="597" y="45"/>
      <point x="609" y="295"/>
    </contour>
  </outline>
</glyph>
<glyph name="ety169_cid27714_H" format="1">
  <advance width="1000"/>
  <outline>
    <contour>
      <point x="969" y="725" type="curve"/>
      <point x="892" y="853" type="line"/>
      <point x="769" y="826"/>
      <point x="597" y="807"/>
      <point x="438" y="799" type="curve"/>
      <point x="453" y="765"/>
      <point x="470" y="711"/>
      <point x="474" y="675" type="curve"/>
      <point x="634" y="679"/>
      <point x="820" y="694"/>
    </contour>
    <contour>
      <point x="576" y="434" type="curve"/>
      <point x="576" y="800" type="line"/>
      <point x="438" y="800" type="line"/>
      <point x="438" y="435" type="line"/>
      <point x="438" y="297"/>
      <point x="428" y="94"/>
      <point x="337" y="-24" type="curve"/>
      <point x="370" y="-42"/>
      <point x="424" y="-84"/>
      <point x="448" y="-109" type="curve"/>
      <point x="560" y="28"/>
      <point x="576" y="261"/>
    </contour>
  </outline>
</glyph>
<glyph name="ety170_cid27905_H" format="1">
  <advance width="1000"/>
  <outline>
    <contour>
      <point x="963" y="727" type="curve"/>
      <point x="865" y="846" type="line"/>
      <point x="752" y="810"/>
      <point x="586" y="774"/>
      <point x="435" y="753" type="curve"/>
      <point x="450" y="722"/>
      <point x="470" y="670"/>
      <point x="475" y="636" type="curve"/>
      <point x="633" y="655"/>
      <point x="816" y="686"/>
    </contour>
    <contour>
      <point x="573" y="752" type="line"/>
      <point x="434" y="752" type="line"/>
      <point x="434" y="138" type="line"/>
      <point x="434" y="88"/>
      <point x="399" y="42"/>
      <point x="373" y="22" type="curve"/>
      <point x="396" y="-4"/>
      <point x="438" y="-69"/>
      <point x="453" y="-102" type="curve"/>
      <point x="573" y="40" type="line"/>
    </contour>
  </outline>
</glyph>
<glyph name="ety171_cid27909_EL" format="1">
  <advance width="1000"/>
  <outline>
    <contour>
      <point x="449" y="469" type="curve"/>
      <point x="449" y="719" type="line"/>
      <point x="421" y="719" type="line"/>
      <point x="421" y="470" type="line"/>
      <point x="421" y="312"/>
      <point x="407" y="101"/>
      <point x="288" y="-54" type="curve"/>
      <point x="296" y="-57"/>
      <point x="307" y="-65"/>
      <point x="312" y="-70" type="curve"/>
      <point x="431" y="86"/>
      <point x="449" y="307"/>
    </contour>
    <contour>
      <point x="908" y="775" type="curve"/>
      <point x="889" y="800" type="line"/>
      <point x="792" y="757"/>
      <point x="579" y="731"/>
      <point x="422" y="719" type="curve"/>
      <point x="425" y="712"/>
      <point x="428" y="701"/>
      <point x="429" y="693" type="curve"/>
      <point x="591" y="704"/>
      <point x="802" y="729"/>
    </contour>
  </outline>
</glyph>
<glyph name="ety172_cid28060_H" format="1">
  <advance width="1000"/>
  <outline>
    <contour>
      <point x="920" y="755" type="curve"/>
      <point x="829" y="855" type="line"/>
      <point x="729" y="827"/>
      <point x="570" y="808"/>
      <point x="427" y="799" type="curve"/>
      <point x="441" y="772"/>
      <point x="457" y="726"/>
      <point x="461" y="697" type="curve"/>
      <point x="611" y="702"/>
      <point x="788" y="720"/>
    </contour>
    <contour>
      <point x="560" y="799" type="line"/>
      <point x="426" y="799" type="line"/>
      <point x="426" y="543" type="line"/>
      <point x="426" y="502"/>
      <point x="400" y="476"/>
      <point x="376" y="463" type="curve"/>
      <point x="398" y="432"/>
      <point x="425" y="364"/>
      <point x="434" y="332" type="curve"/>
      <point x="560" y="438" type="line"/>
    </contour>
  </outline>
</glyph>
<glyph name="ety173_cid28103_H" format="1">
  <advance width="1000"/>
  <outline>
    <contour>
      <point x="493" y="413" type="curve"/>
      <point x="493" y="776" type="line"/>
      <point x="365" y="776" type="line"/>
      <point x="365" y="414" type="line"/>
      <point x="365" y="285"/>
      <point x="357" y="94"/>
      <point x="293" y="-20" type="curve"/>
      <point x="324" y="-36"/>
      <point x="373" y="-73"/>
      <point x="397" y="-96" type="curve"/>
      <point x="482" y="35"/>
      <point x="493" y="251"/>
    </contour>
    <contour>
      <point x="959" y="748" type="curve"/>
      <point x="857" y="852" type="line"/>
      <point x="737" y="815"/>
      <point x="541" y="789"/>
      <point x="365" y="777" type="curve"/>
      <point x="379" y="748"/>
      <point x="397" y="698"/>
      <point x="401" y="667" type="curve"/>
      <point x="585" y="677"/>
      <point x="799" y="701"/>
    </contour>
  </outline>
</glyph>
<glyph name="ety174_cid28104_EL" format="1">
  <advance width="1000"/>
  <outline>
    <contour>
      <point x="863" y="787" type="curve"/>
      <point x="833" y="811" type="line"/>
      <point x="732" y="783"/>
      <point x="534" y="759"/>
      <point x="375" y="745" type="curve"/>
      <point x="378" y="738"/>
      <point x="383" y="727"/>
      <point x="385" y="720" type="curve"/>
      <point x="548" y="733"/>
      <point x="745" y="757"/>
    </contour>
    <contour>
      <point x="404" y="414" type="curve"/>
      <point x="404" y="745" type="line"/>
      <point x="374" y="745" type="line"/>
      <point x="374" y="414" type="line"/>
      <point x="374" y="260"/>
      <point x="366" y="82"/>
      <point x="305" y="-63" type="curve"/>
      <point x="314" y="-65"/>
      <point x="326" y="-72"/>
      <point x="331" y="-77" type="curve"/>
      <point x="394" y="73"/>
      <point x="404" y="250"/>
    </contour>
  </outline>
</glyph>
<glyph name="ety175_cid28379_H" format="1">
  <advance width="1000"/>
  <outline>
    <contour>
      <point x="955" y="744" type="curve"/>
      <point x="847" y="858" type="line"/>
      <point x="744" y="815"/>
      <point x="587" y="775"/>
      <point x="442" y="752" type="curve"/>
      <point x="458" y="721"/>
      <point x="479" y="669"/>
      <point x="485" y="636" type="curve"/>
      <point x="639" y="657"/>
      <point x="815" y="693"/>
    </contour>
    <contour>
      <point x="441" y="-101" type="curve"/>
      <point x="441" y="-57"/>
      <point x="576" y="-8"/>
      <point x="576" y="-8" type="curve"/>
      <point x="576" y="712" type="line"/>
      <point x="441" y="751" type="line"/>
      <point x="441" y="75" type="line"/>
      <point x="441" y="35"/>
      <point x="419" y="19"/>
      <point x="398" y="10" type="curve"/>
      <point x="416" y="-15"/>
      <point x="435" y="-69"/>
    </contour>
  </outline>
</glyph>
<glyph name="ety176_cid28380_EL" format="1">
  <advance width="1000"/>
  <outline>
    <contour>
      <point x="877" y="793" type="curve"/>
      <point x="847" y="815" type="line"/>
      <point x="759" y="776"/>
      <point x="590" y="736"/>
      <point x="446" y="709" type="curve"/>
      <point x="450" y="701"/>
      <point x="455" y="691"/>
      <point x="457" y="684" type="curve"/>
      <point x="604" y="712"/>
      <point x="772" y="751"/>
    </contour>
    <contour>
      <point x="421" y="1" type="curve"/>
      <point x="421" y="14"/>
      <point x="476" y="41"/>
      <point x="476" y="41" type="curve"/>
      <point x="476" y="701" type="line"/>
      <point x="446" y="710" type="line"/>
      <point x="446" y="87" type="line"/>
      <point x="446" y="51"/>
      <point x="419" y="36"/>
      <point x="404" y="31" type="curve"/>
      <point x="410" y="23"/>
      <point x="418" y="9"/>
    </contour>
  </outline>
</glyph>
<glyph name="ety177_cid28380_H" format="1">
  <advance width="1000"/>
  <outline>
    <contour>
      <point x="950" y="748" type="curve"/>
      <point x="848" y="857" type="line"/>
      <point x="747" y="815"/>
      <point x="590" y="777"/>
      <point x="445" y="755" type="curve"/>
      <point x="460" y="725"/>
      <point x="478" y="674"/>
      <point x="484" y="642" type="curve"/>
      <point x="637" y="662"/>
      <point x="813" y="697"/>
    </contour>
    <contour>
      <point x="445" y="18" type="curve"/>
      <point x="445" y="63"/>
      <point x="573" y="122"/>
      <point x="573" y="122" type="curve"/>
      <point x="573" y="714" type="line"/>
      <point x="445" y="753" type="line"/>
      <point x="445" y="207" type="line"/>
      <point x="445" y="164"/>
      <point x="420" y="142"/>
      <point x="399" y="131" type="curve"/>
      <point x="417" y="106"/>
      <point x="438" y="50"/>
    </contour>
  </outline>
</glyph>
<glyph name="ety178_cid28386_EL" format="1">
  <advance width="1000"/>
  <outline>
    <contour>
      <point x="912" y="781" type="curve"/>
      <point x="887" y="806" type="line"/>
      <point x="786" y="779"/>
      <point x="591" y="757"/>
      <point x="434" y="744" type="curve"/>
      <point x="438" y="736"/>
      <point x="443" y="725"/>
      <point x="444" y="719" type="curve"/>
      <point x="604" y="730"/>
      <point x="797" y="753"/>
    </contour>
    <contour>
      <point x="464" y="540" type="curve"/>
      <point x="464" y="743" type="line"/>
      <point x="434" y="743" type="line"/>
      <point x="434" y="540" type="line"/>
      <point x="434" y="383"/>
      <point x="430" y="133"/>
      <point x="318" y="-47" type="curve"/>
      <point x="326" y="-52"/>
      <point x="336" y="-61"/>
      <point x="341" y="-67" type="curve"/>
      <point x="457" y="125"/>
      <point x="464" y="376"/>
    </contour>
  </outline>
</glyph>
<glyph name="ety179_cid28386_H" format="1">
  <advance width="1000"/>
  <outline>
    <contour>
      <point x="965" y="741" type="curve"/>
      <point x="872" y="849" type="line"/>
      <point x="756" y="822"/>
      <point x="576" y="803"/>
      <point x="414" y="794" type="curve"/>
      <point x="428" y="766"/>
      <point x="444" y="716"/>
      <point x="448" y="684" type="curve"/>
      <point x="616" y="690"/>
      <point x="813" y="707"/>
    </contour>
    <contour>
      <point x="551" y="524" type="curve"/>
      <point x="551" y="796" type="line"/>
      <point x="414" y="796" type="line"/>
      <point x="414" y="524" type="line"/>
      <point x="414" y="378"/>
      <point x="409" y="142"/>
      <point x="319" y="-2" type="curve"/>
      <point x="354" y="-24"/>
      <point x="404" y="-69"/>
      <point x="426" y="-97" type="curve"/>
      <point x="532" y="78"/>
      <point x="551" y="340"/>
    </contour>
  </outline>
</glyph>
<glyph name="ety180_cid28468_H" format="1">
  <advance width="1000"/>
  <outline>
    <contour>
      <point x="931" y="770" type="curve"/>
      <point x="826" y="856" type="line"/>
      <point x="747" y="827"/>
      <point x="611" y="802"/>
      <point x="489" y="787" type="curve"/>
      <point x="503" y="763"/>
      <point x="519" y="720"/>
      <point x="524" y="694" type="curve"/>
      <point x="657" y="707"/>
      <point x="813" y="731"/>
    </contour>
    <contour>
      <point x="616" y="639" type="curve"/>
      <point x="616" y="786" type="line"/>
      <point x="490" y="786" type="line"/>
      <point x="490" y="643" type="line"/>
      <point x="490" y="570"/>
      <point x="474" y="496"/>
      <point x="366" y="445" type="curve"/>
      <point x="398" y="425"/>
      <point x="447" y="381"/>
      <point x="469" y="353" type="curve"/>
      <point x="598" y="422"/>
      <point x="616" y="532"/>
    </contour>
  </outline>
</glyph>
<glyph name="ety183_cid28591_EL" format="1">
  <advance width="1000"/>
  <outline>
    <contour>
      <point x="457" y="418" type="curve"/>
      <point x="457" y="745" type="line"/>
      <point x="427" y="745" type="line"/>
      <point x="427" y="418" type="line"/>
      <point x="427" y="259"/>
      <point x="417" y="82"/>
      <point x="328" y="-62" type="curve"/>
      <point x="336" y="-65"/>
      <point x="347" y="-72"/>
      <point x="353" y="-78" type="curve"/>
      <point x="444" y="69"/>
      <point x="457" y="249"/>
    </contour>
    <contour>
      <point x="896" y="801" type="curve"/>
      <point x="868" y="823" type="line"/>
      <point x="773" y="789"/>
      <point x="582" y="761"/>
      <point x="427" y="744" type="curve"/>
      <point x="431" y="737"/>
      <point x="436" y="726"/>
      <point x="437" y="719" type="curve"/>
      <point x="596" y="735"/>
      <point x="786" y="763"/>
    </contour>
  </outline>
</glyph>
<glyph name="ety184_cid28591_H" format="1">
  <advance width="1000"/>
  <outline>
    <contour>
      <point x="505" y="412" type="curve"/>
      <point x="505" y="776" type="line"/>
      <point x="377" y="776" type="line"/>
      <point x="377" y="413" type="line"/>
      <point x="377" y="285"/>
      <point x="371" y="93"/>
      <point x="317" y="-21" type="curve"/>
      <point x="348" y="-37"/>
      <point x="398" y="-73"/>
      <point x="421" y="-96" type="curve"/>
      <point x="495" y="36"/>
      <point x="505" y="252"/>
    </contour>
    <contour>
      <point x="959" y="748" type="curve"/>
      <point x="856" y="851" type="line"/>
      <point x="739" y="814"/>
      <point x="549" y="789"/>
      <point x="377" y="777" type="curve"/>
      <point x="391" y="748"/>
      <point x="408" y="697"/>
      <point x="413" y="666" type="curve"/>
      <point x="593" y="676"/>
      <point x="802" y="701"/>
    </contour>
  </outline>
</glyph>
<glyph name="ety186_cid28878_EL" format="1">
  <advance width="1000"/>
  <outline>
    <contour>
      <point x="877" y="793" type="curve"/>
      <point x="847" y="815" type="line"/>
      <point x="755" y="775"/>
      <point x="576" y="735"/>
      <point x="426" y="708" type="curve"/>
      <point x="429" y="701"/>
      <point x="434" y="690"/>
      <point x="436" y="683" type="curve"/>
      <point x="591" y="711"/>
      <point x="768" y="750"/>
    </contour>
    <contour>
      <point x="400" y="-75" type="curve"/>
      <point x="400" y="-63"/>
      <point x="455" y="-39"/>
      <point x="455" y="-39" type="curve"/>
      <point x="455" y="698" type="line"/>
      <point x="426" y="707" type="line"/>
      <point x="426" y="7" type="line"/>
      <point x="426" y="-28"/>
      <point x="399" y="-40"/>
      <point x="384" y="-45" type="curve"/>
      <point x="390" y="-54"/>
      <point x="397" y="-67"/>
    </contour>
  </outline>
</glyph>
<glyph name="ety187_cid28878_H" format="1">
  <advance width="1000"/>
  <outline>
    <contour>
      <point x="953" y="746" type="curve"/>
      <point x="841" y="859" type="line"/>
      <point x="734" y="816"/>
      <point x="568" y="776"/>
      <point x="415" y="752" type="curve"/>
      <point x="431" y="722"/>
      <point x="452" y="668"/>
      <point x="458" y="635" type="curve"/>
      <point x="620" y="657"/>
      <point x="807" y="693"/>
    </contour>
    <contour>
      <point x="415" y="-101" type="curve"/>
      <point x="415" y="-56"/>
      <point x="550" y="-3"/>
      <point x="550" y="-3" type="curve"/>
      <point x="550" y="714" type="line"/>
      <point x="415" y="753" type="line"/>
      <point x="415" y="83" type="line"/>
      <point x="415" y="43"/>
      <point x="391" y="24"/>
      <point x="369" y="14" type="curve"/>
      <point x="388" y="-12"/>
      <point x="409" y="-68"/>
    </contour>
  </outline>
</glyph>
<glyph name="ety188_cid28902_EL" format="1">
  <advance width="1000"/>
  <outline>
    <contour>
      <point x="877" y="590" type="curve"/>
      <point x="855" y="607" type="line"/>
      <point x="777" y="564"/>
      <point x="614" y="516"/>
      <point x="497" y="498" type="curve"/>
      <point x="505" y="492"/>
      <point x="515" y="481"/>
      <point x="519" y="474" type="curve"/>
      <point x="635" y="496"/>
      <point x="795" y="545"/>
    </contour>
    <contour>
      <point x="492" y="-68" type="curve"/>
      <point x="492" y="-55"/>
      <point x="527" y="-28"/>
      <point x="527" y="-28" type="curve"/>
      <point x="527" y="498" type="line"/>
      <point x="498" y="498" type="line"/>
      <point x="498" y="18" type="line"/>
      <point x="498" y="-20"/>
      <point x="484" y="-33"/>
      <point x="476" y="-38" type="curve"/>
      <point x="481" y="-46"/>
      <point x="489" y="-61"/>
    </contour>
  </outline>
</glyph>
<glyph name="ety189_cid28902_H" format="1">
  <advance width="1000"/>
  <outline>
    <contour>
      <point x="967" y="511" type="curve"/>
      <point x="868" y="593" type="line"/>
      <point x="765" y="558"/>
      <point x="567" y="515"/>
      <point x="430" y="499" type="curve"/>
      <point x="459" y="465"/>
      <point x="491" y="410"/>
      <point x="509" y="374" type="curve"/>
      <point x="645" y="405"/>
      <point x="845" y="464"/>
    </contour>
    <contour>
      <point x="443" y="-99" type="curve"/>
      <point x="443" y="-54"/>
      <point x="561" y="12"/>
      <point x="561" y="12" type="curve"/>
      <point x="561" y="498" type="line"/>
      <point x="430" y="498" type="line"/>
      <point x="430" y="102" type="line"/>
      <point x="430" y="58"/>
      <point x="408" y="32"/>
      <point x="387" y="18" type="curve"/>
      <point x="407" y="-8"/>
      <point x="434" y="-66"/>
    </contour>
  </outline>
</glyph>
<glyph name="ety190_cid29017_H" format="1">
  <advance width="1000"/>
  <outline>
    <contour>
      <point x="932" y="752" type="curve"/>
      <point x="850" y="850" type="line"/>
      <point x="728" y="821"/>
      <point x="531" y="799"/>
      <point x="358" y="788" type="curve"/>
      <point x="369" y="762"/>
      <point x="383" y="716"/>
      <point x="386" y="687" type="curve"/>
      <point x="565" y="696"/>
      <point x="775" y="716"/>
    </contour>
    <contour>
      <point x="471" y="481" type="curve"/>
      <point x="471" y="788" type="line"/>
      <point x="357" y="788" type="line"/>
      <point x="357" y="481" type="line"/>
      <point x="357" y="337"/>
      <point x="352" y="137"/>
      <point x="282" y="3" type="curve"/>
      <point x="308" y="-12"/>
      <point x="358" y="-56"/>
      <point x="378" y="-81" type="curve"/>
      <point x="458" y="68"/>
      <point x="471" y="317"/>
    </contour>
  </outline>
</glyph>
<glyph name="ety192_cid29150_H" format="1">
  <advance width="1000"/>
  <outline>
    <contour>
      <point x="950" y="753" type="curve"/>
      <point x="842" y="862" type="line"/>
      <point x="736" y="819"/>
      <point x="569" y="779"/>
      <point x="416" y="755" type="curve"/>
      <point x="431" y="726"/>
      <point x="451" y="675"/>
      <point x="457" y="643" type="curve"/>
      <point x="619" y="665"/>
      <point x="805" y="701"/>
    </contour>
    <contour>
      <point x="415" y="4" type="curve"/>
      <point x="415" y="49"/>
      <point x="550" y="108"/>
      <point x="550" y="108" type="curve"/>
      <point x="550" y="717" type="line"/>
      <point x="415" y="756" type="line"/>
      <point x="415" y="192" type="line"/>
      <point x="415" y="150"/>
      <point x="389" y="128"/>
      <point x="366" y="117" type="curve"/>
      <point x="385" y="91"/>
      <point x="408" y="36"/>
    </contour>
  </outline>
</glyph>
<glyph name="ety194_cid29371_EL" format="1">
  <advance width="1000"/>
  <outline>
    <contour>
      <point x="942" y="637" type="curve"/>
      <point x="915" y="659" type="line"/>
      <point x="875" y="638"/>
      <point x="801" y="616"/>
      <point x="739" y="602" type="curve"/>
      <point x="743" y="594"/>
      <point x="748" y="585"/>
      <point x="750" y="578" type="curve"/>
      <point x="815" y="592"/>
      <point x="891" y="613"/>
    </contour>
    <contour>
      <point x="716" y="368" type="curve"/>
      <point x="716" y="381"/>
      <point x="768" y="400"/>
      <point x="768" y="400" type="curve"/>
      <point x="768" y="592" type="line"/>
      <point x="738" y="602" type="line"/>
      <point x="738" y="446" type="line"/>
      <point x="738" y="412"/>
      <point x="715" y="403"/>
      <point x="701" y="399" type="curve"/>
      <point x="707" y="390"/>
      <point x="713" y="376"/>
    </contour>
  </outline>
</glyph>
<glyph name="ety195_cid29371_H" format="1">
  <advance width="1000"/>
  <outline>
    <contour>
      <point x="970" y="572" type="curve"/>
      <point x="892" y="638" type="line"/>
      <point x="858" y="614"/>
      <point x="799" y="588"/>
      <point x="745" y="571" type="curve"/>
      <point x="756" y="552"/>
      <point x="770" y="520"/>
      <point x="775" y="501" type="curve"/>
      <point x="837" y="516"/>
      <point x="912" y="540"/>
    </contour>
    <contour>
      <point x="741" y="329" type="curve"/>
      <point x="741" y="357"/>
      <point x="825" y="406"/>
      <point x="825" y="406" type="curve"/>
      <point x="825" y="544" type="line"/>
      <point x="745" y="567" type="line"/>
      <point x="745" y="476" type="line"/>
      <point x="745" y="435"/>
      <point x="721" y="413"/>
      <point x="704" y="404" type="curve"/>
      <point x="717" y="386"/>
      <point x="735" y="349"/>
    </contour>
  </outline>
</glyph>
<glyph name="ety197_cid29565_H" format="1">
  <advance width="1000"/>
  <outline>
    <contour>
      <point x="690" y="473" type="curve"/>
      <point x="621" y="555" type="line"/>
      <point x="577" y="531"/>
      <point x="506" y="509"/>
      <point x="444" y="494" type="curve"/>
      <point x="456" y="472"/>
      <point x="469" y="437"/>
      <point x="474" y="415" type="curve"/>
      <point x="541" y="426"/>
      <point x="625" y="446"/>
    </contour>
    <contour>
      <point x="449" y="78" type="curve"/>
      <point x="449" y="112"/>
      <point x="551" y="176"/>
      <point x="551" y="176" type="curve"/>
      <point x="551" y="494" type="line"/>
      <point x="445" y="494" type="line"/>
      <point x="445" y="235" type="line"/>
      <point x="445" y="192"/>
      <point x="421" y="166"/>
      <point x="402" y="154" type="curve"/>
      <point x="418" y="138"/>
      <point x="441" y="100"/>
    </contour>
  </outline>
</glyph>
<glyph name="ety198_cid29566_EL" format="1">
  <advance width="1000"/>
  <outline>
    <contour>
      <point x="648" y="515" type="curve"/>
      <point x="622" y="537" type="line"/>
      <point x="582" y="514"/>
      <point x="508" y="488"/>
      <point x="445" y="472" type="curve"/>
      <point x="450" y="464"/>
      <point x="455" y="454"/>
      <point x="457" y="447" type="curve"/>
      <point x="522" y="464"/>
      <point x="597" y="488"/>
    </contour>
    <contour>
      <point x="433" y="118" type="curve"/>
      <point x="433" y="132"/>
      <point x="476" y="155"/>
      <point x="476" y="155" type="curve"/>
      <point x="476" y="471" type="line"/>
      <point x="445" y="471" type="line"/>
      <point x="445" y="201" type="line"/>
      <point x="445" y="165"/>
      <point x="427" y="154"/>
      <point x="417" y="149" type="curve"/>
      <point x="423" y="141"/>
      <point x="430" y="127"/>
    </contour>
  </outline>
</glyph>
<glyph name="ety199_cid30239_EL" format="1">
  <advance width="1000"/>
  <outline>
    <contour>
      <point x="318" y="566" type="curve"/>
      <point x="290" y="587" type="line"/>
      <point x="254" y="566"/>
      <point x="187" y="542"/>
      <point x="131" y="526" type="curve"/>
      <point x="134" y="520"/>
      <point x="139" y="510"/>
      <point x="142" y="504" type="curve"/>
      <point x="201" y="519"/>
      <point x="270" y="541"/>
    </contour>
    <contour>
      <point x="111" y="211" type="curve"/>
      <point x="111" y="226"/>
      <point x="159" y="254"/>
      <point x="159" y="254" type="curve"/>
      <point x="159" y="526" type="line"/>
      <point x="130" y="526" type="line"/>
      <point x="130" y="300" type="line"/>
      <point x="130" y="262"/>
      <point x="106" y="246"/>
      <point x="93" y="240" type="curve"/>
      <point x="99" y="232"/>
      <point x="108" y="220"/>
    </contour>
  </outline>
</glyph>
<glyph name="ety200_cid30239_H" format="1">
  <advance width="1000"/>
  <outline>
    <contour>
      <point x="346" y="534" type="curve"/>
      <point x="249" y="627" type="line"/>
      <point x="211" y="592"/>
      <point x="151" y="551"/>
      <point x="95" y="525" type="curve"/>
      <point x="110" y="499"/>
      <point x="129" y="458"/>
      <point x="135" y="432" type="curve"/>
      <point x="202" y="457"/>
      <point x="281" y="492"/>
    </contour>
    <contour>
      <point x="104" y="180" type="curve"/>
      <point x="104" y="220"/>
      <point x="229" y="279"/>
      <point x="229" y="279" type="curve"/>
      <point x="229" y="522" type="line"/>
      <point x="96" y="522" type="line"/>
      <point x="96" y="355" type="line"/>
      <point x="96" y="314"/>
      <point x="78" y="296"/>
      <point x="59" y="285" type="curve"/>
      <point x="77" y="263"/>
      <point x="98" y="210"/>
    </contour>
  </outline>
</glyph>
<glyph name="ety201_cid30435_EL" format="1">
  <advance width="1000"/>
  <outline>
    <contour>
      <point x="612" y="604" type="curve"/>
      <point x="589" y="628" type="line"/>
      <point x="540" y="605"/>
      <point x="451" y="579"/>
      <point x="378" y="561" type="curve"/>
      <point x="383" y="553"/>
      <point x="388" y="543"/>
      <point x="390" y="536" type="curve"/>
      <point x="464" y="553"/>
      <point x="553" y="577"/>
    </contour>
    <contour>
      <point x="373" y="306" type="curve"/>
      <point x="373" y="320"/>
      <point x="408" y="332"/>
      <point x="408" y="332" type="curve"/>
      <point x="408" y="560" type="line"/>
      <point x="378" y="560" type="line"/>
      <point x="378" y="378" type="line"/>
      <point x="378" y="346"/>
      <point x="368" y="341"/>
      <point x="359" y="338" type="curve"/>
      <point x="364" y="329"/>
      <point x="371" y="315"/>
    </contour>
  </outline>
</glyph>
<glyph name="ety202_cid30435_H" format="1">
  <advance width="1000"/>
  <outline>
    <contour>
      <point x="648" y="559" type="curve"/>
      <point x="570" y="642" type="line"/>
      <point x="521" y="618"/>
      <point x="443" y="596"/>
      <point x="373" y="581" type="curve"/>
      <point x="385" y="558"/>
      <point x="399" y="521"/>
      <point x="403" y="499" type="curve"/>
      <point x="481" y="510"/>
      <point x="575" y="530"/>
    </contour>
    <contour>
      <point x="381" y="263" type="curve"/>
      <point x="381" y="295"/>
      <point x="487" y="331"/>
      <point x="487" y="331" type="curve"/>
      <point x="487" y="581" type="line"/>
      <point x="372" y="581" type="line"/>
      <point x="372" y="409" type="line"/>
      <point x="372" y="376"/>
      <point x="364" y="369"/>
      <point x="349" y="363" type="curve"/>
      <point x="363" y="341"/>
      <point x="378" y="291"/>
    </contour>
  </outline>
</glyph>
<glyph name="ety203_cid30546_EL" format="1">
  <advance width="1000"/>
  <outline>
    <contour>
      <point x="933" y="796" type="curve"/>
      <point x="906" y="819" type="line"/>
      <point x="814" y="793"/>
      <point x="635" y="768"/>
      <point x="490" y="755" type="curve"/>
      <point x="494" y="747"/>
      <point x="499" y="736"/>
      <point x="500" y="729" type="curve"/>
      <point x="648" y="743"/>
      <point x="825" y="767"/>
    </contour>
    <contour>
      <point x="520" y="400" type="curve"/>
      <point x="520" y="754" type="line"/>
      <point x="490" y="754" type="line"/>
      <point x="490" y="400" type="line"/>
      <point x="490" y="247"/>
      <point x="479" y="81"/>
      <point x="400" y="-53" type="curve"/>
      <point x="408" y="-57"/>
      <point x="419" y="-65"/>
      <point x="425" y="-69" type="curve"/>
      <point x="508" y="68"/>
      <point x="520" y="236"/>
    </contour>
  </outline>
</glyph>
<glyph name="ety204_cid30867_H" format="1">
  <advance width="1000"/>
  <outline>
    <contour>
      <point x="967" y="729" type="curve"/>
      <point x="868" y="848" type="line"/>
      <point x="759" y="812"/>
      <point x="598" y="777"/>
      <point x="450" y="755" type="curve"/>
      <point x="466" y="725"/>
      <point x="485" y="672"/>
      <point x="491" y="639" type="curve"/>
      <point x="644" y="658"/>
      <point x="823" y="688"/>
    </contour>
    <contour>
      <point x="469" y="-98" type="curve"/>
      <point x="469" y="-49"/>
      <point x="584" y="28"/>
      <point x="584" y="28" type="curve"/>
      <point x="584" y="754" type="line"/>
      <point x="449" y="754" type="line"/>
      <point x="449" y="105" type="line"/>
      <point x="449" y="56"/>
      <point x="429" y="25"/>
      <point x="408" y="8" type="curve"/>
      <point x="428" y="-14"/>
      <point x="459" y="-67"/>
    </contour>
  </outline>
</glyph>
<glyph name="ety206_cid31237_H" format="1">
  <advance width="1000"/>
  <outline>
    <contour>
      <point x="969" y="756" type="curve"/>
      <point x="884" y="857" type="line"/>
      <point x="771" y="827"/>
      <point x="589" y="807"/>
      <point x="428" y="799" type="curve"/>
      <point x="441" y="772"/>
      <point x="456" y="725"/>
      <point x="460" y="696" type="curve"/>
      <point x="627" y="701"/>
      <point x="824" y="719"/>
    </contour>
    <contour>
      <point x="427" y="331" type="curve"/>
      <point x="427" y="371"/>
      <point x="556" y="429"/>
      <point x="556" y="429" type="curve"/>
      <point x="556" y="773" type="line"/>
      <point x="427" y="799" type="line"/>
      <point x="427" y="503" type="line"/>
      <point x="427" y="461"/>
      <point x="404" y="442"/>
      <point x="383" y="432" type="curve"/>
      <point x="400" y="410"/>
      <point x="421" y="360"/>
    </contour>
  </outline>
</glyph>
<glyph name="ety207_cid31632_H" format="1">
  <advance width="1000"/>
  <outline>
    <contour>
      <point x="974" y="573" type="curve"/>
      <point x="896" y="639" type="line"/>
      <point x="862" y="615"/>
      <point x="803" y="589"/>
      <point x="750" y="572" type="curve"/>
      <point x="761" y="553"/>
      <point x="775" y="521"/>
      <point x="780" y="502" type="curve"/>
      <point x="842" y="517"/>
      <point x="916" y="541"/>
    </contour>
    <contour>
      <point x="741" y="329" type="curve"/>
      <point x="741" y="357"/>
      <point x="825" y="406"/>
      <point x="825" y="406" type="curve"/>
      <point x="825" y="544" type="line"/>
      <point x="745" y="567" type="line"/>
      <point x="745" y="476" type="line"/>
      <point x="745" y="435"/>
      <point x="721" y="413"/>
      <point x="704" y="404" type="curve"/>
      <point x="717" y="386"/>
      <point x="735" y="349"/>
    </contour>
  </outline>
</glyph>
<glyph name="ety209_cid31872_H" format="1">
  <advance width="1000"/>
  <outline>
    <contour>
      <point x="978" y="741" type="curve"/>
      <point x="876" y="852" type="line"/>
      <point x="773" y="826"/>
      <point x="614" y="807"/>
      <point x="469" y="798" type="curve"/>
      <point x="483" y="769"/>
      <point x="501" y="717"/>
      <point x="505" y="685" type="curve"/>
      <point x="658" y="690"/>
      <point x="837" y="707"/>
    </contour>
    <contour>
      <point x="595" y="464" type="curve"/>
      <point x="595" y="800" type="line"/>
      <point x="469" y="800" type="line"/>
      <point x="469" y="464" type="line"/>
      <point x="469" y="319"/>
      <point x="461" y="99"/>
      <point x="389" y="-36" type="curve"/>
      <point x="420" y="-51"/>
      <point x="470" y="-87"/>
      <point x="494" y="-110" type="curve"/>
      <point x="583" y="44"/>
      <point x="595" y="289"/>
    </contour>
  </outline>
</glyph>
<glyph name="ety210_cid31873_EL" format="1">
  <advance width="1000"/>
  <outline>
    <contour>
      <point x="928" y="796" type="curve"/>
      <point x="901" y="819" type="line"/>
      <point x="809" y="793"/>
      <point x="630" y="768"/>
      <point x="485" y="755" type="curve"/>
      <point x="489" y="747"/>
      <point x="494" y="736"/>
      <point x="495" y="729" type="curve"/>
      <point x="643" y="743"/>
      <point x="820" y="767"/>
    </contour>
    <contour>
      <point x="515" y="361" type="curve"/>
      <point x="515" y="754" type="line"/>
      <point x="485" y="754" type="line"/>
      <point x="485" y="361" type="line"/>
      <point x="485" y="215"/>
      <point x="475" y="65"/>
      <point x="395" y="-53" type="curve"/>
      <point x="403" y="-57"/>
      <point x="414" y="-65"/>
      <point x="420" y="-69" type="curve"/>
      <point x="503" y="52"/>
      <point x="515" y="204"/>
    </contour>
  </outline>
</glyph>
<glyph name="ety211_cid31873_H" format="1">
  <advance width="1000"/>
  <outline>
    <contour>
      <point x="978" y="741" type="curve"/>
      <point x="876" y="852" type="line"/>
      <point x="773" y="826"/>
      <point x="614" y="807"/>
      <point x="469" y="798" type="curve"/>
      <point x="483" y="769"/>
      <point x="501" y="717"/>
      <point x="505" y="685" type="curve"/>
      <point x="658" y="690"/>
      <point x="837" y="707"/>
    </contour>
    <contour>
      <point x="595" y="470" type="curve"/>
      <point x="595" y="800" type="line"/>
      <point x="469" y="800" type="line"/>
      <point x="469" y="470" type="line"/>
      <point x="469" y="329"/>
      <point x="462" y="105"/>
      <point x="410" y="-34" type="curve"/>
      <point x="442" y="-47"/>
      <point x="494" y="-77"/>
      <point x="520" y="-97" type="curve"/>
      <point x="586" y="59"/>
      <point x="595" y="304"/>
    </contour>
  </outline>
</glyph>
<glyph name="ety212_cid31967_EL" format="1">
  <advance width="1000"/>
  <outline>
    <contour>
      <point x="430" y="548" type="curve"/>
      <point x="406" y="569" type="line"/>
      <point x="334" y="552"/>
      <point x="211" y="530"/>
      <point x="123" y="521" type="curve"/>
      <point x="142" y="499" type="line"/>
      <point x="232" y="509"/>
      <point x="349" y="524"/>
    </contour>
    <contour>
      <point x="152" y="521" type="line"/>
      <point x="122" y="521" type="line"/>
      <point x="122" y="392" type="line"/>
      <point x="122" y="356"/>
      <point x="106" y="346"/>
      <point x="96" y="341" type="curve"/>
      <point x="102" y="333"/>
      <point x="109" y="320"/>
      <point x="112" y="310" type="curve"/>
      <point x="152" y="346" type="line"/>
    </contour>
  </outline>
</glyph>
<glyph name="ety213_cid32421_H" format="1">
  <advance width="1000"/>
  <outline>
    <contour>
      <point x="683" y="761" type="curve"/>
      <point x="577" y="850" type="line"/>
      <point x="532" y="802"/>
      <point x="456" y="741"/>
      <point x="401" y="706" type="curve"/>
      <point x="484" y="629" type="line"/>
      <point x="542" y="661"/>
      <point x="617" y="712"/>
    </contour>
    <contour>
      <point x="405" y="85" type="curve"/>
      <point x="405" y="124"/>
      <point x="514" y="191"/>
      <point x="514" y="191" type="curve"/>
      <point x="514" y="706" type="line"/>
      <point x="400" y="706" type="line"/>
      <point x="400" y="259" type="line"/>
      <point x="400" y="212"/>
      <point x="376" y="185"/>
      <point x="357" y="172" type="curve"/>
      <point x="373" y="154"/>
      <point x="397" y="110"/>
    </contour>
  </outline>
</glyph>
<glyph name="ety215_cid32519_H" format="1">
  <advance width="1000"/>
  <outline>
    <contour>
      <point x="957" y="772" type="curve"/>
      <point x="866" y="849" type="line"/>
      <point x="813" y="827"/>
      <point x="724" y="806"/>
      <point x="644" y="793" type="curve"/>
      <point x="656" y="772"/>
      <point x="671" y="735"/>
      <point x="676" y="712" type="curve"/>
      <point x="766" y="723"/>
      <point x="873" y="743"/>
    </contour>
    <contour>
      <point x="757" y="679" type="curve"/>
      <point x="757" y="792" type="line"/>
      <point x="644" y="792" type="line"/>
      <point x="644" y="681" type="line"/>
      <point x="644" y="612"/>
      <point x="639" y="519"/>
      <point x="590" y="448" type="curve"/>
      <point x="613" y="435"/>
      <point x="662" y="391"/>
      <point x="679" y="369" type="curve"/>
      <point x="744" y="455"/>
      <point x="757" y="585"/>
    </contour>
  </outline>
</glyph>
<glyph name="ety216_cid32606_H" format="1">
  <advance width="1000"/>
  <outline>
    <contour>
      <point x="876" y="762" type="curve"/>
      <point x="793" y="851" type="line"/>
      <point x="630" y="824"/>
      <point x="355" y="810"/>
      <point x="117" y="807" type="curve"/>
      <point x="127" y="784"/>
      <point x="139" y="740"/>
      <point x="142" y="713" type="curve"/>
      <point x="384" y="713"/>
      <point x="670" y="727"/>
    </contour>
    <contour>
      <point x="261" y="594" type="curve"/>
      <point x="261" y="808" type="line"/>
      <point x="117" y="808" type="line"/>
      <point x="117" y="594" type="line"/>
      <point x="117" y="425"/>
      <point x="111" y="162"/>
      <point x="21" y="-15" type="curve"/>
      <point x="55" y="-28"/>
      <point x="121" y="-69"/>
      <point x="148" y="-94" type="curve"/>
      <point x="245" y="99"/>
      <point x="261" y="409"/>
    </contour>
  </outline>
</glyph>
<glyph name="ety217_cid32633_EL" format="1">
  <advance width="1000"/>
  <outline>
    <contour>
      <point x="922" y="804" type="curve"/>
      <point x="892" y="825" type="line"/>
      <point x="808" y="790"/>
      <point x="646" y="753"/>
      <point x="509" y="728" type="curve"/>
      <point x="513" y="721"/>
      <point x="518" y="711"/>
      <point x="520" y="704" type="curve"/>
      <point x="661" y="728"/>
      <point x="821" y="765"/>
    </contour>
    <contour>
      <point x="536" y="473" type="curve"/>
      <point x="536" y="728" type="line"/>
      <point x="507" y="728" type="line"/>
      <point x="507" y="474" type="line"/>
      <point x="507" y="322"/>
      <point x="496" y="113"/>
      <point x="397" y="-40" type="curve"/>
      <point x="405" y="-44"/>
      <point x="417" y="-53"/>
      <point x="422" y="-59" type="curve"/>
      <point x="523" y="99"/>
      <point x="536" y="318"/>
    </contour>
  </outline>
</glyph>
<glyph name="ety218_cid32634_H" format="1">
  <advance width="1000"/>
  <outline>
    <contour>
      <point x="951" y="735" type="curve"/>
      <point x="835" y="850" type="line"/>
      <point x="744" y="808"/>
      <point x="603" y="768"/>
      <point x="472" y="745" type="curve"/>
      <point x="489" y="714"/>
      <point x="510" y="660"/>
      <point x="517" y="626" type="curve"/>
      <point x="659" y="648"/>
      <point x="821" y="683"/>
    </contour>
    <contour>
      <point x="620" y="464" type="curve"/>
      <point x="620" y="745" type="line"/>
      <point x="471" y="745" type="line"/>
      <point x="471" y="465" type="line"/>
      <point x="471" y="321"/>
      <point x="464" y="120"/>
      <point x="371" y="-15" type="curve"/>
      <point x="405" y="-31"/>
      <point x="470" y="-79"/>
      <point x="495" y="-106" type="curve"/>
      <point x="602" y="45"/>
      <point x="620" y="299"/>
    </contour>
  </outline>
</glyph>
<glyph name="ety220_cid32680_H" format="1">
  <advance width="1000"/>
  <outline>
    <contour>
      <point x="962" y="749" type="curve"/>
      <point x="864" y="865" type="line"/>
      <point x="750" y="828"/>
      <point x="576" y="797"/>
      <point x="417" y="779" type="curve"/>
      <point x="433" y="749"/>
      <point x="452" y="696"/>
      <point x="457" y="663" type="curve"/>
      <point x="622" y="678"/>
      <point x="813" y="705"/>
    </contour>
    <contour>
      <point x="544" y="601" type="curve"/>
      <point x="544" y="778" type="line"/>
      <point x="417" y="778" type="line"/>
      <point x="417" y="601" type="line"/>
      <point x="417" y="434"/>
      <point x="411" y="173"/>
      <point x="332" y="-7" type="curve"/>
      <point x="361" y="-19"/>
      <point x="419" y="-60"/>
      <point x="442" y="-83" type="curve"/>
      <point x="528" y="113"/>
      <point x="544" y="420"/>
    </contour>
  </outline>
</glyph>
<glyph name="ety221_cid32803_EL" format="1">
  <advance width="1000"/>
  <outline>
    <contour>
      <point x="896" y="801" type="curve"/>
      <point x="870" y="826" type="line"/>
      <point x="780" y="787"/>
      <point x="604" y="751"/>
      <point x="460" y="727" type="curve"/>
      <point x="464" y="719"/>
      <point x="469" y="708"/>
      <point x="470" y="700" type="curve"/>
      <point x="618" y="722"/>
      <point x="793" y="758"/>
    </contour>
    <contour>
      <point x="489" y="460" type="curve"/>
      <point x="489" y="726" type="line"/>
      <point x="459" y="726" type="line"/>
      <point x="459" y="460" type="line"/>
      <point x="459" y="309"/>
      <point x="451" y="99"/>
      <point x="375" y="-56" type="curve"/>
      <point x="381" y="-59"/>
      <point x="395" y="-66"/>
      <point x="401" y="-71" type="curve"/>
      <point x="478" y="84"/>
      <point x="489" y="305"/>
    </contour>
  </outline>
</glyph>
<glyph name="ety222_cid32803_H" format="1">
  <advance width="1000"/>
  <outline>
    <contour>
      <point x="948" y="734" type="curve"/>
      <point x="838" y="853" type="line"/>
      <point x="736" y="819"/>
      <point x="581" y="789"/>
      <point x="438" y="772" type="curve"/>
      <point x="453" y="741"/>
      <point x="472" y="685"/>
      <point x="478" y="650" type="curve"/>
      <point x="629" y="664"/>
      <point x="806" y="691"/>
    </contour>
    <contour>
      <point x="557" y="510" type="curve"/>
      <point x="557" y="772" type="line"/>
      <point x="437" y="772" type="line"/>
      <point x="437" y="509" type="line"/>
      <point x="437" y="353"/>
      <point x="432" y="123"/>
      <point x="361" y="-34" type="curve"/>
      <point x="391" y="-45"/>
      <point x="446" y="-78"/>
      <point x="469" y="-98" type="curve"/>
      <point x="545" y="73"/>
      <point x="557" y="339"/>
    </contour>
  </outline>
</glyph>
<glyph name="ety223_cid32804_EL" format="1">
  <advance width="1000"/>
  <outline>
    <contour>
      <point x="916" y="801" type="curve"/>
      <point x="888" y="826" type="line"/>
      <point x="792" y="787"/>
      <point x="605" y="751"/>
      <point x="451" y="727" type="curve"/>
      <point x="455" y="719"/>
      <point x="461" y="708"/>
      <point x="462" y="700" type="curve"/>
      <point x="619" y="722"/>
      <point x="806" y="758"/>
    </contour>
    <contour>
      <point x="483" y="460" type="curve"/>
      <point x="483" y="726" type="line"/>
      <point x="451" y="726" type="line"/>
      <point x="451" y="460" type="line"/>
      <point x="451" y="309"/>
      <point x="443" y="99"/>
      <point x="361" y="-56" type="curve"/>
      <point x="369" y="-59"/>
      <point x="383" y="-66"/>
      <point x="389" y="-71" type="curve"/>
      <point x="472" y="84"/>
      <point x="483" y="305"/>
    </contour>
  </outline>
</glyph>
<glyph name="ety224_cid33009_EL" format="1">
  <advance width="1000"/>
  <outline>
    <contour>
      <point x="457" y="362" type="curve"/>
      <point x="457" y="745" type="line"/>
      <point x="427" y="745" type="line"/>
      <point x="427" y="362" type="line"/>
      <point x="427" y="216"/>
      <point x="418" y="61"/>
      <point x="349" y="-62" type="curve"/>
      <point x="358" y="-65"/>
      <point x="369" y="-73"/>
      <point x="375" y="-78" type="curve"/>
      <point x="446" y="49"/>
      <point x="457" y="205"/>
    </contour>
    <contour>
      <point x="896" y="801" type="curve"/>
      <point x="868" y="823" type="line"/>
      <point x="773" y="789"/>
      <point x="582" y="761"/>
      <point x="427" y="744" type="curve"/>
      <point x="431" y="737"/>
      <point x="436" y="726"/>
      <point x="437" y="719" type="curve"/>
      <point x="596" y="735"/>
      <point x="786" y="763"/>
    </contour>
  </outline>
</glyph>
<glyph name="ety225_cid33009_H" format="1">
  <advance width="1000"/>
  <outline>
    <contour>
      <point x="516" y="412" type="curve"/>
      <point x="516" y="776" type="line"/>
      <point x="388" y="776" type="line"/>
      <point x="388" y="413" type="line"/>
      <point x="388" y="285"/>
      <point x="382" y="93"/>
      <point x="328" y="-21" type="curve"/>
      <point x="359" y="-37"/>
      <point x="409" y="-73"/>
      <point x="432" y="-96" type="curve"/>
      <point x="506" y="36"/>
      <point x="516" y="252"/>
    </contour>
    <contour>
      <point x="958" y="748" type="curve"/>
      <point x="855" y="851" type="line"/>
      <point x="741" y="815"/>
      <point x="556" y="789"/>
      <point x="388" y="777" type="curve"/>
      <point x="403" y="748"/>
      <point x="420" y="698"/>
      <point x="425" y="667" type="curve"/>
      <point x="600" y="677"/>
      <point x="805" y="701"/>
    </contour>
  </outline>
</glyph>
<glyph name="ety226_cid33010_EL" format="1">
  <advance width="1000"/>
  <outline>
    <contour>
      <point x="873" y="788" type="curve"/>
      <point x="847" y="812" type="line"/>
      <point x="751" y="783"/>
      <point x="563" y="760"/>
      <point x="411" y="746" type="curve"/>
      <point x="415" y="738"/>
      <point x="420" y="727"/>
      <point x="421" y="720" type="curve"/>
      <point x="575" y="733"/>
      <point x="763" y="757"/>
    </contour>
    <contour>
      <point x="438" y="413" type="curve"/>
      <point x="438" y="745" type="line"/>
      <point x="411" y="745" type="line"/>
      <point x="411" y="413" type="line"/>
      <point x="411" y="260"/>
      <point x="405" y="83"/>
      <point x="360" y="-63" type="curve"/>
      <point x="369" y="-65"/>
      <point x="378" y="-72"/>
      <point x="384" y="-77" type="curve"/>
      <point x="431" y="74"/>
      <point x="438" y="250"/>
    </contour>
  </outline>
</glyph>
<glyph name="ety227_cid33010_H" format="1">
  <advance width="1000"/>
  <outline>
    <contour>
      <point x="948" y="747" type="curve"/>
      <point x="861" y="852" type="line"/>
      <point x="744" y="821"/>
      <point x="564" y="794"/>
      <point x="402" y="779" type="curve"/>
      <point x="416" y="752"/>
      <point x="432" y="704"/>
      <point x="436" y="675" type="curve"/>
      <point x="603" y="687"/>
      <point x="798" y="711"/>
    </contour>
    <contour>
      <point x="521" y="445" type="curve"/>
      <point x="521" y="778" type="line"/>
      <point x="402" y="778" type="line"/>
      <point x="402" y="446" type="line"/>
      <point x="402" y="304"/>
      <point x="396" y="89"/>
      <point x="339" y="-45" type="curve"/>
      <point x="369" y="-59"/>
      <point x="416" y="-93"/>
      <point x="439" y="-114" type="curve"/>
      <point x="512" y="38"/>
      <point x="521" y="276"/>
    </contour>
  </outline>
</glyph>
<glyph name="ety228_cid33091_H" format="1">
  <advance width="1000"/>
  <outline>
    <contour>
      <point x="894" y="659" type="curve"/>
      <point x="811" y="730" type="line"/>
      <point x="746" y="701"/>
      <point x="629" y="678"/>
      <point x="526" y="666" type="curve"/>
      <point x="538" y="645"/>
      <point x="552" y="609"/>
      <point x="556" y="587" type="curve"/>
      <point x="669" y="598"/>
      <point x="802" y="620"/>
    </contour>
    <contour>
      <point x="648" y="665" type="line"/>
      <point x="526" y="665" type="line"/>
      <point x="526" y="570" type="line"/>
      <point x="526" y="535"/>
      <point x="505" y="511"/>
      <point x="485" y="500" type="curve"/>
      <point x="505" y="478"/>
      <point x="534" y="428"/>
      <point x="543" y="404" type="curve"/>
      <point x="648" y="491" type="line"/>
    </contour>
  </outline>
</glyph>
<glyph name="ety230_cid33230_EL" format="1">
  <advance width="1000"/>
  <outline>
    <contour>
      <point x="934" y="642" type="curve"/>
      <point x="907" y="664" type="line"/>
      <point x="868" y="643"/>
      <point x="793" y="621"/>
      <point x="731" y="607" type="curve"/>
      <point x="735" y="599"/>
      <point x="740" y="590"/>
      <point x="742" y="583" type="curve"/>
      <point x="807" y="597"/>
      <point x="883" y="618"/>
    </contour>
    <contour>
      <point x="708" y="376" type="curve"/>
      <point x="708" y="390"/>
      <point x="760" y="409"/>
      <point x="760" y="409" type="curve"/>
      <point x="760" y="597" type="line"/>
      <point x="730" y="607" type="line"/>
      <point x="730" y="455" type="line"/>
      <point x="730" y="421"/>
      <point x="707" y="412"/>
      <point x="693" y="408" type="curve"/>
      <point x="699" y="399"/>
      <point x="705" y="385"/>
    </contour>
  </outline>
</glyph>
<glyph name="ety231_cid33230_H" format="1">
  <advance width="1000"/>
  <outline>
    <contour>
      <point x="967" y="592" type="curve"/>
      <point x="889" y="658" type="line"/>
      <point x="855" y="634"/>
      <point x="796" y="608"/>
      <point x="742" y="591" type="curve"/>
      <point x="753" y="572"/>
      <point x="767" y="540"/>
      <point x="772" y="521" type="curve"/>
      <point x="834" y="536"/>
      <point x="909" y="560"/>
    </contour>
    <contour>
      <point x="738" y="339" type="curve"/>
      <point x="738" y="367"/>
      <point x="821" y="416"/>
      <point x="821" y="416" type="curve"/>
      <point x="821" y="567" type="line"/>
      <point x="742" y="590" type="line"/>
      <point x="742" y="486" type="line"/>
      <point x="742" y="445"/>
      <point x="718" y="423"/>
      <point x="701" y="414" type="curve"/>
      <point x="714" y="396"/>
      <point x="732" y="359"/>
    </contour>
  </outline>
</glyph>
<glyph name="ety232_cid33374_H" format="1">
  <advance width="1000"/>
  <outline>
    <contour>
      <point x="959" y="726" type="curve"/>
      <point x="871" y="845" type="line"/>
      <point x="772" y="809"/>
      <point x="625" y="773"/>
      <point x="492" y="752" type="curve"/>
      <point x="506" y="721"/>
      <point x="523" y="669"/>
      <point x="528" y="635" type="curve"/>
      <point x="667" y="654"/>
      <point x="828" y="685"/>
    </contour>
    <contour>
      <point x="500" y="-97" type="curve"/>
      <point x="500" y="-51"/>
      <point x="628" y="24"/>
      <point x="628" y="24" type="curve"/>
      <point x="628" y="751" type="line"/>
      <point x="491" y="751" type="line"/>
      <point x="491" y="91" type="line"/>
      <point x="491" y="44"/>
      <point x="465" y="15"/>
      <point x="442" y="0" type="curve"/>
      <point x="462" y="-20"/>
      <point x="491" y="-69"/>
    </contour>
  </outline>
</glyph>
<glyph name="ety233_cid33528_H" format="1">
  <advance width="1000"/>
  <outline>
    <contour>
      <point x="559" y="601" type="curve"/>
      <point x="559" y="790" type="line"/>
      <point x="429" y="790" type="line"/>
      <point x="429" y="600" type="line"/>
      <point x="429" y="433"/>
      <point x="426" y="164"/>
      <point x="375" y="-20" type="curve"/>
      <point x="407" y="-30"/>
      <point x="468" y="-63"/>
      <point x="494" y="-84" type="curve"/>
      <point x="549" y="115"/>
      <point x="559" y="420"/>
    </contour>
    <contour>
      <point x="954" y="759" type="curve"/>
      <point x="849" y="855" type="line"/>
      <point x="748" y="825"/>
      <point x="580" y="802"/>
      <point x="429" y="791" type="curve"/>
      <point x="443" y="764"/>
      <point x="459" y="717"/>
      <point x="464" y="688" type="curve"/>
      <point x="624" y="697"/>
      <point x="813" y="719"/>
    </contour>
  </outline>
</glyph>
<glyph name="ety234_cid33594_EL" format="1">
  <advance width="1000"/>
  <outline>
    <contour>
      <point x="932" y="618" type="curve"/>
      <point x="905" y="639" type="line"/>
      <point x="866" y="619"/>
      <point x="791" y="596"/>
      <point x="729" y="582" type="curve"/>
      <point x="733" y="574"/>
      <point x="738" y="566"/>
      <point x="740" y="559" type="curve"/>
      <point x="805" y="572"/>
      <point x="881" y="593"/>
    </contour>
    <contour>
      <point x="722" y="348" type="curve"/>
      <point x="722" y="362"/>
      <point x="757" y="374"/>
      <point x="757" y="374" type="curve"/>
      <point x="757" y="582" type="line"/>
      <point x="727" y="582" type="line"/>
      <point x="727" y="420" type="line"/>
      <point x="727" y="387"/>
      <point x="718" y="383"/>
      <point x="709" y="381" type="curve"/>
      <point x="714" y="373"/>
      <point x="721" y="357"/>
    </contour>
  </outline>
</glyph>
<glyph name="ety235_cid33594_H" format="1">
  <advance width="1000"/>
  <outline>
    <contour>
      <point x="981" y="573" type="curve"/>
      <point x="907" y="639" type="line"/>
      <point x="875" y="615"/>
      <point x="819" y="589"/>
      <point x="768" y="572" type="curve"/>
      <point x="779" y="553"/>
      <point x="792" y="521"/>
      <point x="796" y="502" type="curve"/>
      <point x="856" y="517"/>
      <point x="926" y="541"/>
    </contour>
    <contour>
      <point x="775" y="340" type="curve"/>
      <point x="775" y="361"/>
      <point x="843" y="384"/>
      <point x="843" y="384" type="curve"/>
      <point x="843" y="568" type="line"/>
      <point x="768" y="568" type="line"/>
      <point x="768" y="442" type="line"/>
      <point x="768" y="416"/>
      <point x="762" y="410"/>
      <point x="751" y="406" type="curve"/>
      <point x="761" y="391"/>
      <point x="772" y="358"/>
    </contour>
  </outline>
</glyph>
<glyph name="ety237_cid33595_H" format="1">
  <advance width="1000"/>
  <outline>
    <contour>
      <point x="985" y="573" type="curve"/>
      <point x="907" y="639" type="line"/>
      <point x="875" y="615"/>
      <point x="819" y="589"/>
      <point x="769" y="572" type="curve"/>
      <point x="780" y="553"/>
      <point x="794" y="521"/>
      <point x="799" y="502" type="curve"/>
      <point x="858" y="517"/>
      <point x="930" y="541"/>
    </contour>
    <contour>
      <point x="775" y="340" type="curve"/>
      <point x="775" y="364"/>
      <point x="844" y="388"/>
      <point x="844" y="388" type="curve"/>
      <point x="844" y="566" type="line"/>
      <point x="769" y="566" type="line"/>
      <point x="769" y="455" type="line"/>
      <point x="769" y="423"/>
      <point x="762" y="417"/>
      <point x="750" y="413" type="curve"/>
      <point x="761" y="396"/>
      <point x="772" y="360"/>
    </contour>
  </outline>
</glyph>
<glyph name="ety238_cid33727_H" format="1">
  <advance width="1000"/>
  <outline>
    <contour>
      <point x="848" y="480" type="curve"/>
      <point x="779" y="609" type="line"/>
      <point x="609" y="578"/>
      <point x="371" y="556"/>
      <point x="153" y="546" type="curve"/>
      <point x="167" y="513"/>
      <point x="184" y="459"/>
      <point x="187" y="422" type="curve"/>
      <point x="403" y="427"/>
      <point x="652" y="446"/>
    </contour>
    <contour>
      <point x="161" y="-92" type="curve"/>
      <point x="161" y="-45"/>
      <point x="296" y="32"/>
      <point x="296" y="32" type="curve"/>
      <point x="296" y="528" type="line"/>
      <point x="152" y="546" type="line"/>
      <point x="152" y="107" type="line"/>
      <point x="152" y="59"/>
      <point x="127" y="31"/>
      <point x="104" y="16" type="curve"/>
      <point x="124" y="-7"/>
      <point x="152" y="-61"/>
    </contour>
  </outline>
</glyph>
<glyph name="ety239_cid33728_H" format="1">
  <advance width="1000"/>
  <outline>
    <contour>
      <point x="848" y="489" type="curve"/>
      <point x="779" y="618" type="line"/>
      <point x="609" y="587"/>
      <point x="371" y="565"/>
      <point x="153" y="555" type="curve"/>
      <point x="167" y="522"/>
      <point x="184" y="468"/>
      <point x="187" y="431" type="curve"/>
      <point x="403" y="436"/>
      <point x="652" y="455"/>
    </contour>
    <contour>
      <point x="161" y="-83" type="curve"/>
      <point x="161" y="-37"/>
      <point x="296" y="32"/>
      <point x="296" y="32" type="curve"/>
      <point x="296" y="555" type="line"/>
      <point x="152" y="555" type="line"/>
      <point x="152" y="113" type="line"/>
      <point x="152" y="68"/>
      <point x="130" y="43"/>
      <point x="107" y="30" type="curve"/>
      <point x="128" y="6"/>
      <point x="153" y="-51"/>
    </contour>
  </outline>
</glyph>
<glyph name="ety240_cid33904_H" format="1">
  <advance width="1000"/>
  <outline>
    <contour>
      <point x="895" y="528" type="curve"/>
      <point x="799" y="628" type="line"/>
      <point x="643" y="590"/>
      <point x="382" y="568"/>
      <point x="152" y="562" type="curve"/>
      <point x="164" y="534"/>
      <point x="179" y="485"/>
      <point x="182" y="454" type="curve"/>
      <point x="418" y="459"/>
      <point x="694" y="480"/>
    </contour>
    <contour>
      <point x="288" y="446" type="curve"/>
      <point x="288" y="560" type="line"/>
      <point x="152" y="560" type="line"/>
      <point x="152" y="448" type="line"/>
      <point x="152" y="322"/>
      <point x="142" y="133"/>
      <point x="33" y="2" type="curve"/>
      <point x="62" y="-14"/>
      <point x="120" y="-66"/>
      <point x="141" y="-93" type="curve"/>
      <point x="263" y="55"/>
      <point x="288" y="294"/>
    </contour>
  </outline>
</glyph>
<glyph name="ety241_cid33925_H" format="1">
  <advance width="1000"/>
  <outline>
    <contour>
      <point x="507" y="528" type="curve"/>
      <point x="427" y="638" type="line"/>
      <point x="342" y="607"/>
      <point x="216" y="578"/>
      <point x="102" y="560" type="curve"/>
      <point x="116" y="531"/>
      <point x="133" y="485"/>
      <point x="138" y="455" type="curve"/>
      <point x="257" y="469"/>
      <point x="397" y="493"/>
    </contour>
    <contour>
      <point x="110" y="73" type="curve"/>
      <point x="110" y="115"/>
      <point x="238" y="187"/>
      <point x="238" y="187" type="curve"/>
      <point x="238" y="559" type="line"/>
      <point x="101" y="559" type="line"/>
      <point x="101" y="255" type="line"/>
      <point x="101" y="210"/>
      <point x="76" y="183"/>
      <point x="54" y="170" type="curve"/>
      <point x="73" y="149"/>
      <point x="101" y="101"/>
    </contour>
  </outline>
</glyph>
<glyph name="ety242_cid33936_EL" format="1">
  <advance width="1000"/>
  <outline>
    <contour>
      <point x="844" y="571" type="curve"/>
      <point x="826" y="597" type="line"/>
      <point x="682" y="568"/>
      <point x="403" y="544"/>
      <point x="184" y="532" type="curve"/>
      <point x="187" y="525"/>
      <point x="191" y="514"/>
      <point x="192" y="506" type="curve"/>
      <point x="413" y="516"/>
      <point x="689" y="540"/>
    </contour>
    <contour>
      <point x="213" y="532" type="line"/>
      <point x="183" y="532" type="line"/>
      <point x="183" y="44" type="line"/>
      <point x="183" y="5"/>
      <point x="162" y="-12"/>
      <point x="150" y="-17" type="curve"/>
      <point x="156" y="-25"/>
      <point x="164" y="-38"/>
      <point x="168" y="-47" type="curve"/>
      <point x="213" y="-2" type="line"/>
    </contour>
  </outline>
</glyph>
<glyph name="ety243_cid33936_H" format="1">
  <advance width="1000"/>
  <outline>
    <contour>
      <point x="868" y="527" type="curve"/>
      <point x="799" y="642" type="line"/>
      <point x="630" y="610"/>
      <point x="377" y="589"/>
      <point x="152" y="582" type="curve"/>
      <point x="165" y="552"/>
      <point x="180" y="502"/>
      <point x="183" y="468" type="curve"/>
      <point x="408" y="472"/>
      <point x="671" y="490"/>
    </contour>
    <contour>
      <point x="297" y="583" type="line"/>
      <point x="151" y="583" type="line"/>
      <point x="151" y="164" type="line"/>
      <point x="151" y="116"/>
      <point x="109" y="70"/>
      <point x="81" y="51" type="curve"/>
      <point x="105" y="22"/>
      <point x="146" y="-47"/>
      <point x="160" y="-82" type="curve"/>
      <point x="297" y="61" type="line"/>
    </contour>
  </outline>
</glyph>
<glyph name="ety244_cid33937_EL" format="1">
  <advance width="1000"/>
  <outline>
    <contour>
      <point x="844" y="571" type="curve"/>
      <point x="826" y="597" type="line"/>
      <point x="682" y="568"/>
      <point x="403" y="544"/>
      <point x="184" y="532" type="curve"/>
      <point x="187" y="525"/>
      <point x="191" y="514"/>
      <point x="192" y="506" type="curve"/>
      <point x="413" y="516"/>
      <point x="689" y="540"/>
    </contour>
    <contour>
      <point x="165" y="14" type="curve"/>
      <point x="165" y="27"/>
      <point x="213" y="47"/>
      <point x="213" y="47" type="curve"/>
      <point x="213" y="529" type="line"/>
      <point x="183" y="532" type="line"/>
      <point x="183" y="93" type="line"/>
      <point x="183" y="58"/>
      <point x="163" y="49"/>
      <point x="150" y="45" type="curve"/>
      <point x="155" y="36"/>
      <point x="162" y="23"/>
    </contour>
  </outline>
</glyph>
